M48
;Layer_Color=9474304
;FILE_FORMAT=2:4
INCH,TZ
;TYPE=PLATED
T01F00S00C0.0118
T02F00S00C0.0276
T03F00S00C0.0335
T04F00S00C0.0394
T05F00S00C0.0409
T06F00S00C0.0433
T07F00S00C0.0453
T08F00S00C0.0512
T09F00S00C0.0984
%
T01
X34449Y14764
X33661Y15945
T02
X31693Y4331
Y6299
Y7677
Y9646
Y11811
Y13780
Y15157
Y17126
T03
X33858Y1181
X37402
Y19882
X33858
T04
X10236Y5118
X17913
X25591
Y8071
Y12697
Y15650
X17913
Y12697
Y8071
X10236
Y12697
Y15650
T05
X42126Y6102
X44291Y9843
X42126Y13386
T06
X36024Y5283
Y6283
Y7283
Y13780
Y14780
Y15780
T07
X5315Y4764
X29370Y1181
X32441
X39409Y9055
X39409Y10433
X42480
X42480Y9055
X32441Y19882
X29370
X5315Y15315
Y12244
Y7835
T08
X3051Y9055
Y11024
T09
X1378Y1378
X44488
Y19685
X1378Y19685
M30
