G04*
G04 #@! TF.GenerationSoftware,Altium Limited,Altium Designer,24.5.1 (21)*
G04*
G04 Layer_Physical_Order=2*
G04 Layer_Color=16711680*
%FSLAX25Y25*%
%MOIN*%
G70*
G04*
G04 #@! TF.SameCoordinates,C76CA4C4-4B78-49E4-996D-9464DF6DB47D*
G04*
G04*
G04 #@! TF.FilePolarity,Positive*
G04*
G01*
G75*
%ADD18C,0.04724*%
%ADD19R,0.04724X0.04724*%
%ADD21R,0.06102X0.06102*%
%ADD22C,0.06102*%
%ADD29C,0.01968*%
%ADD30C,0.06693*%
%ADD31R,0.06693X0.06693*%
%ADD32C,0.06496*%
%ADD33C,0.06181*%
G04:AMPARAMS|DCode=34|XSize=76.77mil|YSize=76.77mil|CornerRadius=19.19mil|HoleSize=0mil|Usage=FLASHONLY|Rotation=270.000|XOffset=0mil|YOffset=0mil|HoleType=Round|Shape=RoundedRectangle|*
%AMROUNDEDRECTD34*
21,1,0.07677,0.03839,0,0,270.0*
21,1,0.03839,0.07677,0,0,270.0*
1,1,0.03839,-0.01919,-0.01919*
1,1,0.03839,-0.01919,0.01919*
1,1,0.03839,0.01919,0.01919*
1,1,0.03839,0.01919,-0.01919*
%
%ADD34ROUNDEDRECTD34*%
%ADD35C,0.07677*%
%ADD36C,0.19685*%
%ADD37C,0.05315*%
%ADD38R,0.05315X0.05315*%
%ADD39C,0.02362*%
D18*
X316929Y43307D02*
D03*
Y96457D02*
D03*
Y171260D02*
D03*
Y118110D02*
D03*
D19*
Y62992D02*
D03*
Y76772D02*
D03*
Y151575D02*
D03*
Y137795D02*
D03*
D21*
X179134Y156496D02*
D03*
X102362Y80709D02*
D03*
X255906D02*
D03*
X179134D02*
D03*
X102362Y156496D02*
D03*
X255906D02*
D03*
D22*
X179134Y126969D02*
D03*
X102362Y51181D02*
D03*
X255906D02*
D03*
X179134D02*
D03*
X102362Y126969D02*
D03*
X255906D02*
D03*
D29*
X424803Y104331D02*
X425197Y104724D01*
Y110236D01*
X421260Y114173D02*
X425197Y110236D01*
X386614Y106299D02*
X390551D01*
X421260Y114173D02*
Y133858D01*
X390551Y106299D02*
X394094D01*
X316929Y137795D02*
X360236D01*
X330709Y165354D02*
Y174044D01*
X329556Y175197D02*
X330709Y174044D01*
X311024Y175197D02*
X329556D01*
X307087Y171260D02*
X311024Y175197D01*
X330709Y165354D02*
X336614Y159449D01*
X344488Y147638D02*
X344646Y147795D01*
X360236D01*
X348425Y162590D02*
Y163386D01*
X337410Y151575D02*
X348425Y162590D01*
X316929Y151575D02*
X337410D01*
X360236Y137795D02*
X391732D01*
X297244Y151575D02*
X316929D01*
X360236Y106299D02*
X386614D01*
X409449Y61024D02*
X424803Y76378D01*
Y90551D01*
X409449Y61024D02*
X421260D01*
X401260Y52835D02*
X409449Y61024D01*
X360236Y52835D02*
X401260D01*
X324410Y11811D02*
X333830D01*
X338583D01*
X332677Y12964D02*
Y45276D01*
Y12964D02*
X333830Y11811D01*
X332677Y45276D02*
X340551Y53150D01*
X359921D02*
X360236Y52835D01*
X340551Y53150D02*
X359921D01*
X316929Y62992D02*
X330709D01*
X340551Y53150D01*
X360079Y62992D02*
X360236Y62835D01*
X342520Y62992D02*
X360079D01*
X320866Y70051D02*
X322019Y68898D01*
X320866Y70051D02*
Y72835D01*
X322019Y68898D02*
X336614D01*
X342520Y62992D01*
X316929Y76772D02*
X320866Y72835D01*
X360236Y62835D02*
X368926D01*
X370079Y63988D01*
Y82677D01*
X377953Y90551D02*
X394094D01*
X370079Y82677D02*
X377953Y90551D01*
X394094Y106299D02*
X401968Y98425D01*
X442913D01*
X307087Y171260D02*
X316929D01*
X277559D02*
X307087D01*
X405512Y151575D02*
Y167323D01*
Y140917D02*
Y151575D01*
X391732Y137795D02*
X405512Y151575D01*
X408638Y137791D02*
X416646D01*
X420578Y133858D02*
X421260D01*
X416646Y137791D02*
X420578Y133858D01*
X405512Y140917D02*
X408638Y137791D01*
X391732Y181102D02*
X405512Y167323D01*
X356299Y181102D02*
X391732D01*
X338583Y198819D02*
X356299Y181102D01*
X279528Y64961D02*
X295276D01*
X255906D02*
X279528D01*
Y25984D02*
X293701Y11811D01*
X279528Y25984D02*
Y64961D01*
X340551Y106299D02*
X360236D01*
Y72835D02*
Y106299D01*
X330709Y96457D02*
X340551Y106299D01*
X316929Y96457D02*
X330709D01*
X316929D02*
Y118110D01*
X354016Y157795D02*
X360236D01*
X348425Y163386D02*
X354016Y157795D01*
X348425Y163386D02*
Y171260D01*
X336614Y183071D02*
X348425Y171260D01*
X299213Y183071D02*
X336614D01*
X293701Y188583D02*
X299213Y183071D01*
X293701Y188583D02*
Y198819D01*
X411417Y172821D02*
Y185039D01*
Y160602D02*
Y172821D01*
X432663D01*
X443898Y184055D01*
Y195866D02*
X444882Y196850D01*
X443898Y184055D02*
Y195866D01*
X442913Y98425D02*
Y141732D01*
X425197Y159449D02*
X442913Y141732D01*
X411417Y160602D02*
X412570Y159449D01*
X425197D01*
X374016Y198819D02*
X397638D01*
X411417Y185039D01*
X375000Y12795D02*
X443898D01*
X374016Y11811D02*
X375000Y12795D01*
X443898D02*
X444882Y13780D01*
X102362Y114173D02*
X179134D01*
X61417D02*
X102362D01*
Y126969D01*
X179134Y114173D02*
X255906D01*
X179134D02*
Y126969D01*
X255906Y114173D02*
X282311D01*
X255906D02*
Y126969D01*
X283465Y137795D02*
X297244Y151575D01*
X283465Y115326D02*
Y137795D01*
X282311Y114173D02*
X283465Y115326D01*
X53150Y122441D02*
X61417Y114173D01*
X324410Y198819D02*
X338583D01*
X230315Y169291D02*
X244094Y155512D01*
X267717D01*
X271654Y159449D01*
Y165354D01*
X277559Y171260D01*
X145669Y169291D02*
X230315D01*
X66929D02*
X145669D01*
Y169291D02*
Y169291D01*
Y169291D02*
X158465Y156496D01*
X179134D01*
X178150Y157480D02*
X179134Y156496D01*
X41339Y169291D02*
X66929D01*
X79724Y156496D01*
X102362D01*
X13780Y196850D02*
X41339Y169291D01*
X102362Y96457D02*
X179134D01*
X59055D02*
X102362D01*
Y80709D02*
Y96457D01*
X179134D02*
X255906D01*
X179134Y80709D02*
Y96457D01*
X255906D02*
X291339D01*
X255906Y80709D02*
Y96457D01*
X311024Y76772D02*
X316929D01*
X291339Y96457D02*
X311024Y76772D01*
X53150Y78347D02*
Y90551D01*
X59055Y96457D01*
X17717Y110236D02*
Y139764D01*
Y62992D02*
Y110236D01*
X30512D01*
X17717Y62992D02*
X33071Y47638D01*
X53150D01*
X17717Y139764D02*
X31102Y153150D01*
X53150D01*
X139764Y64961D02*
X179134D01*
X88583D02*
X139764D01*
X127953Y26744D02*
Y53150D01*
X66929Y25591D02*
X126800D01*
X127953Y26744D01*
Y53150D02*
X139764Y64961D01*
X55118Y13780D02*
X66929Y25591D01*
X13780Y13780D02*
X55118D01*
X179134Y64961D02*
X255906D01*
Y51181D02*
Y64961D01*
X179134Y51181D02*
Y64961D01*
X295276D02*
X316929Y43307D01*
X47244Y64961D02*
X88583D01*
X30512Y81693D02*
Y90551D01*
Y81693D02*
X47244Y64961D01*
X88583D02*
X102362Y51181D01*
D30*
X360236Y137795D02*
D03*
Y147795D02*
D03*
Y62835D02*
D03*
Y52835D02*
D03*
D31*
Y157795D02*
D03*
Y72835D02*
D03*
D32*
X53150Y122441D02*
D03*
Y153150D02*
D03*
Y78347D02*
D03*
Y47638D02*
D03*
X324410Y198819D02*
D03*
X293701D02*
D03*
X394094Y90551D02*
D03*
X424803D02*
D03*
X394094Y104331D02*
D03*
X424803D02*
D03*
X324410Y11811D02*
D03*
X293701D02*
D03*
D33*
X442913Y98425D02*
D03*
X421260Y61024D02*
D03*
Y133858D02*
D03*
D34*
X30512Y110236D02*
D03*
D35*
Y90551D02*
D03*
D36*
X444882Y196850D02*
D03*
X13780Y13780D02*
D03*
X444882D02*
D03*
X13780Y196850D02*
D03*
D37*
X338583Y11811D02*
D03*
Y198819D02*
D03*
D38*
X374016Y11811D02*
D03*
Y198819D02*
D03*
D39*
X336614Y159449D02*
D03*
X344488Y147638D02*
D03*
M02*
