G04*
G04 #@! TF.GenerationSoftware,Altium Limited,Altium Designer,24.5.1 (21)*
G04*
G04 Layer_Color=0*
%FSLAX25Y25*%
%MOIN*%
G70*
G04*
G04 #@! TF.SameCoordinates,C76CA4C4-4B78-49E4-996D-9464DF6DB47D*
G04*
G04*
G04 #@! TF.FilePolarity,Positive*
G04*
G01*
G75*
%ADD13C,0.00394*%
%ADD40C,0.00197*%
D13*
X314961Y53150D02*
X318898D01*
X316929Y51181D02*
Y55118D01*
X179134Y139764D02*
Y143701D01*
X177165Y141732D02*
X181102D01*
X102362Y63976D02*
Y67913D01*
X100394Y65945D02*
X104331D01*
X255906Y63976D02*
Y67913D01*
X253937Y65945D02*
X257874D01*
X179134Y63976D02*
Y67913D01*
X177165Y65945D02*
X181102D01*
X102362Y139764D02*
Y143701D01*
X100394Y141732D02*
X104331D01*
X255906Y139764D02*
Y143701D01*
X253937Y141732D02*
X257874D01*
X316929Y84646D02*
Y88583D01*
X314961Y86614D02*
X318898D01*
X316929Y159449D02*
Y163386D01*
X314961Y161417D02*
X318898D01*
X316929Y125984D02*
Y129921D01*
X314961Y127953D02*
X318898D01*
D40*
X29528Y98425D02*
Y102362D01*
X27559Y100394D02*
X31496D01*
M02*
