G04*
G04 #@! TF.GenerationSoftware,Altium Limited,Altium Designer,24.5.1 (21)*
G04*
G04 Layer_Color=2752767*
%FSLAX25Y25*%
%MOIN*%
G70*
G04*
G04 #@! TF.SameCoordinates,C76CA4C4-4B78-49E4-996D-9464DF6DB47D*
G04*
G04*
G04 #@! TF.FilePolarity,Positive*
G04*
G01*
G75*
%ADD41C,0.00500*%
%ADD42C,0.00667*%
D41*
X360236Y135795D02*
X361236Y136795D01*
X362236D01*
X361236Y137795D01*
X362236Y138795D01*
X361236D01*
X360236Y139795D01*
X359236Y138795D01*
X358236D01*
X359236Y137795D01*
X358236Y136795D01*
X359236D01*
X360236Y135795D01*
Y145795D02*
X361236Y146795D01*
X362236D01*
X361236Y147795D01*
X362236Y148795D01*
X361236D01*
X360236Y149795D01*
X359236Y148795D01*
X358236D01*
X359236Y147795D01*
X358236Y146795D01*
X359236D01*
X360236Y145795D01*
Y155795D02*
X361236Y156795D01*
X362236D01*
X361236Y157795D01*
X362236Y158795D01*
X361236D01*
X360236Y159795D01*
X359236Y158795D01*
X358236D01*
X359236Y157795D01*
X358236Y156795D01*
X359236D01*
X360236Y155795D01*
X314929Y41307D02*
X315929Y43307D01*
X314929Y45307D01*
X316929Y44307D01*
X318929Y45307D01*
X317929Y43307D01*
X318929Y41307D01*
X316929Y42307D01*
X314929Y41307D01*
Y60992D02*
X315929Y62992D01*
X314929Y64992D01*
X316929Y63992D01*
X318929Y64992D01*
X317929Y62992D01*
X318929Y60992D01*
X316929Y61992D01*
X314929Y60992D01*
X441913Y97425D02*
Y96425D01*
X443913D01*
Y97425D01*
X444913D01*
Y99425D01*
X443913D01*
Y100425D01*
X441913D01*
Y99425D01*
X440913D01*
Y97425D01*
X441913D01*
X177134Y154496D02*
Y158496D01*
X181134D01*
Y154496D01*
X177134D01*
Y124969D02*
Y128969D01*
X181134D01*
Y124969D01*
X177134D01*
X28512Y108236D02*
Y112236D01*
X32512D01*
Y108236D01*
X28512D01*
X29312Y109036D02*
Y111436D01*
X31712D01*
Y109036D01*
X29312D01*
X28512Y88551D02*
Y92551D01*
X32512D01*
Y88551D01*
X28512D01*
X29312Y89351D02*
Y91751D01*
X31712D01*
Y89351D01*
X29312D01*
X442882Y196850D02*
X444882Y198850D01*
X446882Y196850D01*
X444882Y194850D01*
X442882Y196850D01*
X338583Y9811D02*
X336583Y13811D01*
X340583D01*
X338583Y9811D01*
X374016D02*
X372016Y13811D01*
X376016D01*
X374016Y9811D01*
X420260Y60024D02*
Y59024D01*
X422260D01*
Y60024D01*
X423260D01*
Y62024D01*
X422260D01*
Y63024D01*
X420260D01*
Y62024D01*
X419260D01*
Y60024D01*
X420260D01*
Y132858D02*
Y131858D01*
X422260D01*
Y132858D01*
X423260D01*
Y134858D01*
X422260D01*
Y135858D01*
X420260D01*
Y134858D01*
X419260D01*
Y132858D01*
X420260D01*
X360236Y70835D02*
X361236Y71835D01*
X362236D01*
X361236Y72835D01*
X362236Y73835D01*
X361236D01*
X360236Y74835D01*
X359236Y73835D01*
X358236D01*
X359236Y72835D01*
X358236Y71835D01*
X359236D01*
X360236Y70835D01*
Y60835D02*
X361236Y61835D01*
X362236D01*
X361236Y62835D01*
X362236Y63835D01*
X361236D01*
X360236Y64835D01*
X359236Y63835D01*
X358236D01*
X359236Y62835D01*
X358236Y61835D01*
X359236D01*
X360236Y60835D01*
Y50835D02*
X361236Y51835D01*
X362236D01*
X361236Y52835D01*
X362236Y53835D01*
X361236D01*
X360236Y54835D01*
X359236Y53835D01*
X358236D01*
X359236Y52835D01*
X358236Y51835D01*
X359236D01*
X360236Y50835D01*
X338583Y196819D02*
X336583Y200819D01*
X340583D01*
X338583Y196819D01*
X374016D02*
X372016Y200819D01*
X376016D01*
X374016Y196819D01*
X11779Y13780D02*
X13780Y15779D01*
X15779Y13780D01*
X13780Y11779D01*
X11779Y13780D01*
X100362Y78709D02*
Y82709D01*
X104362D01*
Y78709D01*
X100362D01*
Y49181D02*
Y53181D01*
X104362D01*
Y49181D01*
X100362D01*
X253906Y78709D02*
Y82709D01*
X257906D01*
Y78709D01*
X253906D01*
Y49181D02*
Y53181D01*
X257906D01*
Y49181D01*
X253906D01*
X177134Y78709D02*
Y82709D01*
X181134D01*
Y78709D01*
X177134D01*
Y49181D02*
Y53181D01*
X181134D01*
Y49181D01*
X177134D01*
X100362Y154496D02*
Y158496D01*
X104362D01*
Y154496D01*
X100362D01*
Y124969D02*
Y128969D01*
X104362D01*
Y124969D01*
X100362D01*
X253906Y154496D02*
Y158496D01*
X257906D01*
Y154496D01*
X253906D01*
Y124969D02*
Y128969D01*
X257906D01*
Y124969D01*
X253906D01*
X442882Y13780D02*
X444882Y15779D01*
X446882Y13780D01*
X444882Y11779D01*
X442882Y13780D01*
X314929Y74772D02*
X315929Y76772D01*
X314929Y78772D01*
X316929Y77772D01*
X318929Y78772D01*
X317929Y76772D01*
X318929Y74772D01*
X316929Y75772D01*
X314929Y74772D01*
Y94457D02*
X315929Y96457D01*
X314929Y98457D01*
X316929Y97457D01*
X318929Y98457D01*
X317929Y96457D01*
X318929Y94457D01*
X316929Y95457D01*
X314929Y94457D01*
Y149575D02*
X315929Y151575D01*
X314929Y153575D01*
X316929Y152575D01*
X318929Y153575D01*
X317929Y151575D01*
X318929Y149575D01*
X316929Y150575D01*
X314929Y149575D01*
Y169260D02*
X315929Y171260D01*
X314929Y173260D01*
X316929Y172260D01*
X318929Y173260D01*
X317929Y171260D01*
X318929Y169260D01*
X316929Y170260D01*
X314929Y169260D01*
Y135795D02*
X315929Y137795D01*
X314929Y139795D01*
X316929Y138795D01*
X318929Y139795D01*
X317929Y137795D01*
X318929Y135795D01*
X316929Y136795D01*
X314929Y135795D01*
Y116110D02*
X315929Y118110D01*
X314929Y120110D01*
X316929Y119110D01*
X318929Y120110D01*
X317929Y118110D01*
X318929Y116110D01*
X316929Y117110D01*
X314929Y116110D01*
X11779Y196850D02*
X13780Y198850D01*
X15779Y196850D01*
X13780Y194850D01*
X11779Y196850D01*
X334614Y157449D02*
X335614D01*
X336614Y158449D01*
X337614Y157449D01*
X338614D01*
Y158449D01*
X337614Y159449D01*
X338614Y160449D01*
Y161449D01*
X337614D01*
X336614Y160449D01*
X335614Y161449D01*
X334614D01*
Y160449D01*
X335614Y159449D01*
X334614Y158449D01*
Y157449D01*
X342488Y145638D02*
X343488D01*
X344488Y146638D01*
X345488Y145638D01*
X346488D01*
Y146638D01*
X345488Y147638D01*
X346488Y148638D01*
Y149638D01*
X345488D01*
X344488Y148638D01*
X343488Y149638D01*
X342488D01*
Y148638D01*
X343488Y147638D01*
X342488Y146638D01*
Y145638D01*
D42*
X55150Y122441D02*
G03*
X55150Y122441I-2000J0D01*
G01*
Y153150D02*
G03*
X55150Y153150I-2000J0D01*
G01*
Y78347D02*
G03*
X55150Y78347I-2000J0D01*
G01*
Y47638D02*
G03*
X55150Y47638I-2000J0D01*
G01*
X326410Y198819D02*
G03*
X326410Y198819I-2000J0D01*
G01*
X295701D02*
G03*
X295701Y198819I-2000J0D01*
G01*
X396094Y90551D02*
G03*
X396094Y90551I-2000J0D01*
G01*
X426803D02*
G03*
X426803Y90551I-2000J0D01*
G01*
X396094Y104331D02*
G03*
X396094Y104331I-2000J0D01*
G01*
X426803D02*
G03*
X426803Y104331I-2000J0D01*
G01*
X326410Y11811D02*
G03*
X326410Y11811I-2000J0D01*
G01*
X295701D02*
G03*
X295701Y11811I-2000J0D01*
G01*
M02*
