G04*
G04 #@! TF.GenerationSoftware,Altium Limited,Altium Designer,24.5.1 (21)*
G04*
G04 Layer_Color=32768*
%FSLAX25Y25*%
%MOIN*%
G70*
G04*
G04 #@! TF.SameCoordinates,C76CA4C4-4B78-49E4-996D-9464DF6DB47D*
G04*
G04*
G04 #@! TF.FilePolarity,Positive*
G04*
G01*
G75*
%ADD12C,0.00591*%
G36*
X443264Y208350D02*
X443064D01*
Y209061D01*
X442283D01*
Y208350D01*
X442083D01*
Y209859D01*
X442283D01*
Y209240D01*
X443064D01*
Y209859D01*
X443264D01*
Y208350D01*
D02*
G37*
G36*
X444040Y209863D02*
X444069Y209859D01*
X444104Y209852D01*
X444143Y209841D01*
X444182Y209828D01*
X444221Y209811D01*
X444224D01*
X444226Y209809D01*
X444239Y209802D01*
X444259Y209789D01*
X444280Y209774D01*
X444307Y209752D01*
X444333Y209728D01*
X444359Y209700D01*
X444381Y209667D01*
X444383Y209663D01*
X444389Y209652D01*
X444398Y209632D01*
X444409Y209608D01*
X444420Y209580D01*
X444429Y209547D01*
X444435Y209510D01*
X444437Y209473D01*
Y209469D01*
Y209456D01*
X444435Y209438D01*
X444431Y209414D01*
X444424Y209386D01*
X444413Y209355D01*
X444400Y209325D01*
X444383Y209294D01*
X444381Y209290D01*
X444374Y209281D01*
X444361Y209266D01*
X444344Y209249D01*
X444322Y209229D01*
X444296Y209207D01*
X444265Y209188D01*
X444228Y209168D01*
X444230D01*
X444235Y209166D01*
X444241Y209163D01*
X444250Y209161D01*
X444274Y209153D01*
X444304Y209140D01*
X444339Y209122D01*
X444374Y209100D01*
X444407Y209072D01*
X444437Y209039D01*
X444440Y209035D01*
X444448Y209022D01*
X444461Y209000D01*
X444474Y208972D01*
X444487Y208937D01*
X444500Y208895D01*
X444509Y208847D01*
X444511Y208795D01*
Y208793D01*
Y208786D01*
Y208775D01*
X444509Y208762D01*
X444507Y208745D01*
X444503Y208725D01*
X444498Y208704D01*
X444494Y208680D01*
X444477Y208627D01*
X444463Y208599D01*
X444450Y208573D01*
X444433Y208544D01*
X444413Y208516D01*
X444391Y208488D01*
X444365Y208462D01*
X444363Y208459D01*
X444359Y208455D01*
X444350Y208449D01*
X444339Y208440D01*
X444326Y208429D01*
X444309Y208418D01*
X444289Y208405D01*
X444265Y208394D01*
X444241Y208381D01*
X444213Y208368D01*
X444184Y208357D01*
X444152Y208346D01*
X444117Y208337D01*
X444080Y208331D01*
X444043Y208326D01*
X444001Y208324D01*
X443982D01*
X443969Y208326D01*
X443951Y208329D01*
X443931Y208331D01*
X443910Y208335D01*
X443886Y208340D01*
X443833Y208353D01*
X443779Y208374D01*
X443751Y208387D01*
X443724Y208403D01*
X443698Y208422D01*
X443672Y208442D01*
X443670Y208444D01*
X443666Y208449D01*
X443659Y208455D01*
X443652Y208464D01*
X443642Y208475D01*
X443631Y208490D01*
X443618Y208505D01*
X443605Y208525D01*
X443591Y208547D01*
X443578Y208568D01*
X443554Y208621D01*
X443535Y208682D01*
X443528Y208715D01*
X443524Y208749D01*
X443709Y208773D01*
Y208771D01*
X443711Y208767D01*
X443714Y208758D01*
X443716Y208747D01*
X443718Y208734D01*
X443722Y208719D01*
X443733Y208686D01*
X443748Y208647D01*
X443768Y208610D01*
X443790Y208575D01*
X443816Y208544D01*
X443820Y208542D01*
X443829Y208534D01*
X443847Y208523D01*
X443868Y208512D01*
X443894Y208499D01*
X443927Y208488D01*
X443964Y208479D01*
X444003Y208477D01*
X444017D01*
X444025Y208479D01*
X444049Y208481D01*
X444080Y208488D01*
X444115Y208499D01*
X444152Y208514D01*
X444189Y208536D01*
X444224Y208566D01*
X444228Y208571D01*
X444239Y208584D01*
X444252Y208603D01*
X444269Y208629D01*
X444287Y208662D01*
X444300Y208699D01*
X444311Y208743D01*
X444315Y208791D01*
Y208793D01*
Y208797D01*
Y208804D01*
X444313Y208813D01*
X444311Y208837D01*
X444304Y208865D01*
X444296Y208900D01*
X444280Y208935D01*
X444259Y208969D01*
X444230Y209002D01*
X444226Y209007D01*
X444215Y209015D01*
X444198Y209028D01*
X444173Y209044D01*
X444143Y209059D01*
X444106Y209072D01*
X444065Y209081D01*
X444019Y209085D01*
X443999D01*
X443984Y209083D01*
X443964Y209081D01*
X443942Y209076D01*
X443916Y209072D01*
X443888Y209065D01*
X443910Y209229D01*
X443921D01*
X443929Y209227D01*
X443958D01*
X443982Y209231D01*
X444010Y209236D01*
X444043Y209242D01*
X444080Y209253D01*
X444115Y209268D01*
X444152Y209288D01*
X444154D01*
X444156Y209290D01*
X444167Y209299D01*
X444182Y209314D01*
X444200Y209334D01*
X444217Y209362D01*
X444232Y209395D01*
X444243Y209432D01*
X444248Y209454D01*
Y209477D01*
Y209480D01*
Y209482D01*
Y209495D01*
X444243Y209512D01*
X444239Y209536D01*
X444230Y209562D01*
X444219Y209591D01*
X444202Y209619D01*
X444178Y209645D01*
X444176Y209647D01*
X444165Y209656D01*
X444149Y209667D01*
X444130Y209680D01*
X444104Y209691D01*
X444073Y209702D01*
X444038Y209711D01*
X443999Y209713D01*
X443982D01*
X443962Y209708D01*
X443936Y209704D01*
X443908Y209696D01*
X443879Y209685D01*
X443849Y209667D01*
X443820Y209645D01*
X443818Y209643D01*
X443810Y209632D01*
X443796Y209617D01*
X443781Y209595D01*
X443766Y209567D01*
X443751Y209532D01*
X443738Y209490D01*
X443729Y209443D01*
X443543Y209475D01*
Y209477D01*
X443546Y209484D01*
X443548Y209493D01*
X443550Y209506D01*
X443554Y209521D01*
X443561Y209539D01*
X443574Y209580D01*
X443596Y209628D01*
X443622Y209676D01*
X443655Y209722D01*
X443696Y209763D01*
X443698Y209765D01*
X443703Y209767D01*
X443709Y209772D01*
X443718Y209778D01*
X443729Y209787D01*
X443744Y209796D01*
X443759Y209805D01*
X443779Y209815D01*
X443822Y209833D01*
X443873Y209850D01*
X443931Y209861D01*
X443962Y209865D01*
X444017D01*
X444040Y209863D01*
D02*
G37*
G36*
X441869Y209680D02*
X441372D01*
Y208350D01*
X441172D01*
Y209680D01*
X440675D01*
Y209859D01*
X441869D01*
Y209680D01*
D02*
G37*
G36*
X440034Y209857D02*
X440071Y209855D01*
X440110Y209852D01*
X440147Y209848D01*
X440180Y209844D01*
X440184D01*
X440199Y209839D01*
X440219Y209835D01*
X440245Y209828D01*
X440274Y209818D01*
X440304Y209805D01*
X440337Y209789D01*
X440365Y209772D01*
X440369Y209770D01*
X440378Y209763D01*
X440391Y209750D01*
X440409Y209735D01*
X440428Y209715D01*
X440448Y209689D01*
X440470Y209661D01*
X440487Y209628D01*
X440489Y209624D01*
X440494Y209613D01*
X440502Y209593D01*
X440511Y209567D01*
X440518Y209536D01*
X440526Y209501D01*
X440531Y209462D01*
X440533Y209421D01*
Y209419D01*
Y209412D01*
Y209403D01*
X440531Y209388D01*
X440529Y209373D01*
X440526Y209353D01*
X440522Y209331D01*
X440518Y209307D01*
X440502Y209257D01*
X440494Y209231D01*
X440481Y209203D01*
X440465Y209174D01*
X440450Y209148D01*
X440430Y209122D01*
X440409Y209096D01*
X440407Y209094D01*
X440402Y209089D01*
X440396Y209083D01*
X440385Y209076D01*
X440372Y209065D01*
X440354Y209054D01*
X440332Y209042D01*
X440308Y209031D01*
X440280Y209017D01*
X440247Y209004D01*
X440212Y208994D01*
X440171Y208985D01*
X440128Y208976D01*
X440079Y208969D01*
X440025Y208965D01*
X439968Y208963D01*
X439582D01*
Y208350D01*
X439382D01*
Y209859D01*
X440001D01*
X440034Y209857D01*
D02*
G37*
G36*
X12162Y25280D02*
X11962D01*
Y25990D01*
X11181D01*
Y25280D01*
X10981D01*
Y26788D01*
X11181D01*
Y26169D01*
X11962D01*
Y26788D01*
X12162D01*
Y25280D01*
D02*
G37*
G36*
X12956Y26792D02*
X12973Y26790D01*
X12995Y26788D01*
X13019Y26784D01*
X13043Y26779D01*
X13100Y26764D01*
X13156Y26742D01*
X13184Y26729D01*
X13213Y26714D01*
X13239Y26694D01*
X13263Y26673D01*
X13265Y26670D01*
X13270Y26668D01*
X13274Y26660D01*
X13283Y26651D01*
X13294Y26640D01*
X13304Y26625D01*
X13315Y26609D01*
X13328Y26590D01*
X13350Y26548D01*
X13372Y26496D01*
X13381Y26470D01*
X13385Y26439D01*
X13389Y26409D01*
X13392Y26376D01*
Y26372D01*
Y26361D01*
X13389Y26343D01*
X13387Y26319D01*
X13383Y26293D01*
X13374Y26263D01*
X13365Y26230D01*
X13352Y26197D01*
X13350Y26193D01*
X13346Y26182D01*
X13337Y26165D01*
X13324Y26141D01*
X13307Y26114D01*
X13285Y26082D01*
X13259Y26049D01*
X13228Y26012D01*
X13224Y26008D01*
X13213Y25995D01*
X13202Y25984D01*
X13191Y25973D01*
X13178Y25960D01*
X13161Y25942D01*
X13143Y25925D01*
X13121Y25905D01*
X13100Y25883D01*
X13073Y25859D01*
X13045Y25835D01*
X13014Y25807D01*
X12980Y25779D01*
X12945Y25748D01*
X12943Y25746D01*
X12938Y25742D01*
X12930Y25735D01*
X12919Y25726D01*
X12905Y25713D01*
X12890Y25700D01*
X12855Y25672D01*
X12818Y25639D01*
X12783Y25607D01*
X12753Y25578D01*
X12740Y25567D01*
X12729Y25556D01*
X12727Y25554D01*
X12720Y25548D01*
X12711Y25539D01*
X12701Y25526D01*
X12690Y25511D01*
X12677Y25495D01*
X12650Y25458D01*
X13394D01*
Y25280D01*
X12393D01*
Y25282D01*
Y25290D01*
Y25304D01*
X12395Y25321D01*
X12398Y25341D01*
X12402Y25362D01*
X12406Y25384D01*
X12415Y25408D01*
Y25410D01*
X12417Y25412D01*
X12421Y25426D01*
X12430Y25445D01*
X12443Y25471D01*
X12461Y25502D01*
X12483Y25537D01*
X12507Y25572D01*
X12537Y25609D01*
Y25611D01*
X12541Y25613D01*
X12552Y25626D01*
X12572Y25646D01*
X12600Y25674D01*
X12633Y25707D01*
X12674Y25746D01*
X12725Y25790D01*
X12779Y25835D01*
X12781Y25838D01*
X12790Y25844D01*
X12803Y25855D01*
X12818Y25868D01*
X12838Y25886D01*
X12862Y25905D01*
X12886Y25927D01*
X12914Y25951D01*
X12969Y26003D01*
X13023Y26056D01*
X13049Y26082D01*
X13073Y26108D01*
X13095Y26132D01*
X13113Y26156D01*
Y26158D01*
X13117Y26160D01*
X13121Y26167D01*
X13126Y26175D01*
X13141Y26199D01*
X13158Y26228D01*
X13174Y26263D01*
X13189Y26300D01*
X13198Y26341D01*
X13202Y26380D01*
Y26383D01*
Y26385D01*
X13200Y26398D01*
X13198Y26420D01*
X13191Y26444D01*
X13182Y26474D01*
X13167Y26505D01*
X13148Y26535D01*
X13121Y26566D01*
X13117Y26570D01*
X13106Y26579D01*
X13091Y26590D01*
X13067Y26605D01*
X13036Y26618D01*
X13001Y26631D01*
X12960Y26640D01*
X12914Y26642D01*
X12901D01*
X12892Y26640D01*
X12866Y26638D01*
X12836Y26631D01*
X12803Y26622D01*
X12766Y26607D01*
X12731Y26588D01*
X12698Y26561D01*
X12694Y26557D01*
X12685Y26546D01*
X12672Y26529D01*
X12659Y26502D01*
X12644Y26472D01*
X12631Y26433D01*
X12622Y26389D01*
X12618Y26339D01*
X12428Y26359D01*
Y26361D01*
X12430Y26367D01*
Y26378D01*
X12432Y26393D01*
X12437Y26411D01*
X12441Y26431D01*
X12448Y26455D01*
X12454Y26478D01*
X12472Y26531D01*
X12498Y26583D01*
X12513Y26609D01*
X12533Y26636D01*
X12552Y26660D01*
X12574Y26681D01*
X12576Y26683D01*
X12581Y26686D01*
X12587Y26692D01*
X12598Y26699D01*
X12611Y26707D01*
X12626Y26716D01*
X12644Y26727D01*
X12666Y26738D01*
X12690Y26749D01*
X12716Y26760D01*
X12744Y26768D01*
X12775Y26777D01*
X12807Y26784D01*
X12842Y26790D01*
X12879Y26792D01*
X12919Y26795D01*
X12940D01*
X12956Y26792D01*
D02*
G37*
G36*
X10767Y26609D02*
X10270D01*
Y25280D01*
X10069D01*
Y26609D01*
X9572D01*
Y26788D01*
X10767D01*
Y26609D01*
D02*
G37*
G36*
X8931Y26786D02*
X8968Y26784D01*
X9008Y26781D01*
X9045Y26777D01*
X9077Y26773D01*
X9082D01*
X9097Y26768D01*
X9117Y26764D01*
X9143Y26758D01*
X9171Y26747D01*
X9202Y26734D01*
X9234Y26718D01*
X9263Y26701D01*
X9267Y26699D01*
X9276Y26692D01*
X9289Y26679D01*
X9306Y26664D01*
X9326Y26644D01*
X9346Y26618D01*
X9367Y26590D01*
X9385Y26557D01*
X9387Y26553D01*
X9391Y26542D01*
X9400Y26522D01*
X9409Y26496D01*
X9415Y26465D01*
X9424Y26431D01*
X9428Y26391D01*
X9431Y26350D01*
Y26348D01*
Y26341D01*
Y26333D01*
X9428Y26317D01*
X9426Y26302D01*
X9424Y26282D01*
X9420Y26261D01*
X9415Y26237D01*
X9400Y26186D01*
X9391Y26160D01*
X9378Y26132D01*
X9363Y26104D01*
X9348Y26077D01*
X9328Y26051D01*
X9306Y26025D01*
X9304Y26023D01*
X9300Y26019D01*
X9293Y26012D01*
X9282Y26006D01*
X9269Y25995D01*
X9252Y25984D01*
X9230Y25971D01*
X9206Y25960D01*
X9178Y25947D01*
X9145Y25934D01*
X9110Y25923D01*
X9069Y25914D01*
X9025Y25905D01*
X8977Y25899D01*
X8923Y25894D01*
X8866Y25892D01*
X8480D01*
Y25280D01*
X8280D01*
Y26788D01*
X8899D01*
X8931Y26786D01*
D02*
G37*
G36*
X443264Y25280D02*
X443064D01*
Y25990D01*
X442283D01*
Y25280D01*
X442083D01*
Y26788D01*
X442283D01*
Y26169D01*
X443064D01*
Y26788D01*
X443264D01*
Y25280D01*
D02*
G37*
G36*
X444300Y25811D02*
X444505D01*
Y25641D01*
X444300D01*
Y25280D01*
X444115D01*
Y25641D01*
X443459D01*
Y25811D01*
X444149Y26788D01*
X444300D01*
Y25811D01*
D02*
G37*
G36*
X441869Y26609D02*
X441372D01*
Y25280D01*
X441172D01*
Y26609D01*
X440675D01*
Y26788D01*
X441869D01*
Y26609D01*
D02*
G37*
G36*
X440034Y26786D02*
X440071Y26784D01*
X440110Y26781D01*
X440147Y26777D01*
X440180Y26773D01*
X440184D01*
X440199Y26768D01*
X440219Y26764D01*
X440245Y26758D01*
X440274Y26747D01*
X440304Y26734D01*
X440337Y26718D01*
X440365Y26701D01*
X440369Y26699D01*
X440378Y26692D01*
X440391Y26679D01*
X440409Y26664D01*
X440428Y26644D01*
X440448Y26618D01*
X440470Y26590D01*
X440487Y26557D01*
X440489Y26553D01*
X440494Y26542D01*
X440502Y26522D01*
X440511Y26496D01*
X440518Y26465D01*
X440526Y26431D01*
X440531Y26391D01*
X440533Y26350D01*
Y26348D01*
Y26341D01*
Y26333D01*
X440531Y26317D01*
X440529Y26302D01*
X440526Y26282D01*
X440522Y26261D01*
X440518Y26237D01*
X440502Y26186D01*
X440494Y26160D01*
X440481Y26132D01*
X440465Y26104D01*
X440450Y26077D01*
X440430Y26051D01*
X440409Y26025D01*
X440407Y26023D01*
X440402Y26019D01*
X440396Y26012D01*
X440385Y26006D01*
X440372Y25995D01*
X440354Y25984D01*
X440332Y25971D01*
X440308Y25960D01*
X440280Y25947D01*
X440247Y25934D01*
X440212Y25923D01*
X440171Y25914D01*
X440128Y25905D01*
X440079Y25899D01*
X440025Y25894D01*
X439968Y25892D01*
X439582D01*
Y25280D01*
X439382D01*
Y26788D01*
X440001D01*
X440034Y26786D01*
D02*
G37*
G36*
X12162Y208350D02*
X11962D01*
Y209061D01*
X11181D01*
Y208350D01*
X10981D01*
Y209859D01*
X11181D01*
Y209240D01*
X11962D01*
Y209859D01*
X12162D01*
Y208350D01*
D02*
G37*
G36*
X13117D02*
X12932D01*
Y209530D01*
X12930Y209528D01*
X12919Y209519D01*
X12905Y209506D01*
X12884Y209490D01*
X12860Y209471D01*
X12829Y209449D01*
X12794Y209425D01*
X12755Y209401D01*
X12753D01*
X12751Y209399D01*
X12738Y209390D01*
X12716Y209379D01*
X12690Y209366D01*
X12659Y209351D01*
X12626Y209336D01*
X12594Y209320D01*
X12561Y209307D01*
Y209486D01*
X12563D01*
X12568Y209490D01*
X12576Y209493D01*
X12587Y209499D01*
X12600Y209506D01*
X12616Y209514D01*
X12653Y209536D01*
X12696Y209560D01*
X12740Y209591D01*
X12786Y209626D01*
X12831Y209663D01*
X12833Y209665D01*
X12836Y209667D01*
X12842Y209674D01*
X12851Y209680D01*
X12871Y209702D01*
X12897Y209728D01*
X12923Y209759D01*
X12951Y209794D01*
X12975Y209828D01*
X12997Y209865D01*
X13117D01*
Y208350D01*
D02*
G37*
G36*
X10767Y209680D02*
X10270D01*
Y208350D01*
X10069D01*
Y209680D01*
X9572D01*
Y209859D01*
X10767D01*
Y209680D01*
D02*
G37*
G36*
X8931Y209857D02*
X8968Y209855D01*
X9008Y209852D01*
X9045Y209848D01*
X9077Y209844D01*
X9082D01*
X9097Y209839D01*
X9117Y209835D01*
X9143Y209828D01*
X9171Y209818D01*
X9202Y209804D01*
X9234Y209789D01*
X9263Y209772D01*
X9267Y209770D01*
X9276Y209763D01*
X9289Y209750D01*
X9306Y209735D01*
X9326Y209715D01*
X9346Y209689D01*
X9367Y209661D01*
X9385Y209628D01*
X9387Y209624D01*
X9391Y209613D01*
X9400Y209593D01*
X9409Y209567D01*
X9415Y209536D01*
X9424Y209501D01*
X9428Y209462D01*
X9431Y209421D01*
Y209419D01*
Y209412D01*
Y209403D01*
X9428Y209388D01*
X9426Y209373D01*
X9424Y209353D01*
X9420Y209331D01*
X9415Y209307D01*
X9400Y209257D01*
X9391Y209231D01*
X9378Y209203D01*
X9363Y209174D01*
X9348Y209148D01*
X9328Y209122D01*
X9306Y209096D01*
X9304Y209094D01*
X9300Y209089D01*
X9293Y209083D01*
X9282Y209076D01*
X9269Y209065D01*
X9252Y209054D01*
X9230Y209041D01*
X9206Y209031D01*
X9178Y209017D01*
X9145Y209004D01*
X9110Y208994D01*
X9069Y208985D01*
X9025Y208976D01*
X8977Y208969D01*
X8923Y208965D01*
X8866Y208963D01*
X8480D01*
Y208350D01*
X8280D01*
Y209859D01*
X8899D01*
X8931Y209857D01*
D02*
G37*
%LPC*%
G36*
X440014Y209680D02*
X439582D01*
Y209142D01*
X439988D01*
X440003Y209144D01*
X440019D01*
X440036Y209146D01*
X440077Y209151D01*
X440123Y209159D01*
X440169Y209172D01*
X440210Y209190D01*
X440230Y209201D01*
X440245Y209214D01*
X440249Y209218D01*
X440258Y209227D01*
X440271Y209244D01*
X440287Y209266D01*
X440302Y209294D01*
X440315Y209329D01*
X440324Y209368D01*
X440328Y209414D01*
Y209416D01*
Y209419D01*
Y209430D01*
X440326Y209449D01*
X440321Y209471D01*
X440317Y209495D01*
X440308Y209523D01*
X440295Y209549D01*
X440280Y209576D01*
X440278Y209578D01*
X440271Y209587D01*
X440260Y209597D01*
X440247Y209613D01*
X440228Y209628D01*
X440206Y209641D01*
X440182Y209654D01*
X440154Y209665D01*
X440151D01*
X440143Y209667D01*
X440130Y209669D01*
X440112Y209674D01*
X440086Y209676D01*
X440053Y209678D01*
X440014Y209680D01*
D02*
G37*
G36*
X8912Y26609D02*
X8480D01*
Y26071D01*
X8886D01*
X8901Y26073D01*
X8916D01*
X8934Y26075D01*
X8975Y26080D01*
X9021Y26088D01*
X9066Y26101D01*
X9108Y26119D01*
X9127Y26130D01*
X9143Y26143D01*
X9147Y26147D01*
X9156Y26156D01*
X9169Y26173D01*
X9184Y26195D01*
X9200Y26223D01*
X9213Y26258D01*
X9221Y26298D01*
X9226Y26343D01*
Y26346D01*
Y26348D01*
Y26359D01*
X9223Y26378D01*
X9219Y26400D01*
X9215Y26424D01*
X9206Y26452D01*
X9193Y26478D01*
X9178Y26505D01*
X9176Y26507D01*
X9169Y26516D01*
X9158Y26526D01*
X9145Y26542D01*
X9125Y26557D01*
X9104Y26570D01*
X9080Y26583D01*
X9051Y26594D01*
X9049D01*
X9040Y26596D01*
X9027Y26598D01*
X9010Y26603D01*
X8984Y26605D01*
X8951Y26607D01*
X8912Y26609D01*
D02*
G37*
G36*
X444115Y26487D02*
X443639Y25811D01*
X444115D01*
Y26487D01*
D02*
G37*
G36*
X440014Y26609D02*
X439582D01*
Y26071D01*
X439988D01*
X440003Y26073D01*
X440019D01*
X440036Y26075D01*
X440077Y26080D01*
X440123Y26088D01*
X440169Y26101D01*
X440210Y26119D01*
X440230Y26130D01*
X440245Y26143D01*
X440249Y26147D01*
X440258Y26156D01*
X440271Y26173D01*
X440287Y26195D01*
X440302Y26223D01*
X440315Y26258D01*
X440324Y26298D01*
X440328Y26343D01*
Y26346D01*
Y26348D01*
Y26359D01*
X440326Y26378D01*
X440321Y26400D01*
X440317Y26424D01*
X440308Y26452D01*
X440295Y26478D01*
X440280Y26505D01*
X440278Y26507D01*
X440271Y26516D01*
X440260Y26526D01*
X440247Y26542D01*
X440228Y26557D01*
X440206Y26570D01*
X440182Y26583D01*
X440154Y26594D01*
X440151D01*
X440143Y26596D01*
X440130Y26598D01*
X440112Y26603D01*
X440086Y26605D01*
X440053Y26607D01*
X440014Y26609D01*
D02*
G37*
G36*
X8912Y209680D02*
X8480D01*
Y209142D01*
X8886D01*
X8901Y209144D01*
X8916D01*
X8934Y209146D01*
X8975Y209151D01*
X9021Y209159D01*
X9066Y209172D01*
X9108Y209190D01*
X9127Y209201D01*
X9143Y209214D01*
X9147Y209218D01*
X9156Y209227D01*
X9169Y209244D01*
X9184Y209266D01*
X9200Y209294D01*
X9213Y209329D01*
X9221Y209368D01*
X9226Y209414D01*
Y209416D01*
Y209419D01*
Y209430D01*
X9223Y209449D01*
X9219Y209471D01*
X9215Y209495D01*
X9206Y209523D01*
X9193Y209549D01*
X9178Y209576D01*
X9176Y209578D01*
X9169Y209587D01*
X9158Y209597D01*
X9145Y209613D01*
X9125Y209628D01*
X9104Y209641D01*
X9080Y209654D01*
X9051Y209665D01*
X9049D01*
X9040Y209667D01*
X9027Y209669D01*
X9010Y209674D01*
X8984Y209676D01*
X8951Y209678D01*
X8912Y209680D01*
D02*
G37*
%LPD*%
D12*
X32479Y104821D02*
Y102854D01*
Y103837D01*
X26576D01*
Y104821D01*
Y102854D01*
Y99902D02*
X32479D01*
X26576Y95966D01*
X32479D01*
M02*
