G04*
G04 #@! TF.GenerationSoftware,Altium Limited,Altium Designer,24.5.1 (21)*
G04*
G04 Layer_Color=255*
%FSLAX25Y25*%
%MOIN*%
G70*
G04*
G04 #@! TF.SameCoordinates,C76CA4C4-4B78-49E4-996D-9464DF6DB47D*
G04*
G04*
G04 #@! TF.FilePolarity,Positive*
G04*
G01*
G75*
%ADD18C,0.04724*%
%ADD19R,0.04724X0.04724*%
%ADD21R,0.06102X0.06102*%
%ADD22C,0.06102*%
%ADD30C,0.06693*%
%ADD31R,0.06693X0.06693*%
%ADD32C,0.06496*%
%ADD33C,0.06181*%
G04:AMPARAMS|DCode=34|XSize=76.77mil|YSize=76.77mil|CornerRadius=19.19mil|HoleSize=0mil|Usage=FLASHONLY|Rotation=270.000|XOffset=0mil|YOffset=0mil|HoleType=Round|Shape=RoundedRectangle|*
%AMROUNDEDRECTD34*
21,1,0.07677,0.03839,0,0,270.0*
21,1,0.03839,0.07677,0,0,270.0*
1,1,0.03839,-0.01919,-0.01919*
1,1,0.03839,-0.01919,0.01919*
1,1,0.03839,0.01919,0.01919*
1,1,0.03839,0.01919,-0.01919*
%
%ADD34ROUNDEDRECTD34*%
%ADD35C,0.07677*%
%ADD36C,0.19685*%
%ADD37C,0.05315*%
%ADD38R,0.05315X0.05315*%
D18*
X316929Y43307D02*
D03*
Y96457D02*
D03*
Y171260D02*
D03*
Y118110D02*
D03*
D19*
Y62992D02*
D03*
Y76772D02*
D03*
Y151575D02*
D03*
Y137795D02*
D03*
D21*
X179134Y156496D02*
D03*
X102362Y80709D02*
D03*
X255906D02*
D03*
X179134D02*
D03*
X102362Y156496D02*
D03*
X255906D02*
D03*
D22*
X179134Y126969D02*
D03*
X102362Y51181D02*
D03*
X255906D02*
D03*
X179134D02*
D03*
X102362Y126969D02*
D03*
X255906D02*
D03*
D30*
X360236Y137795D02*
D03*
Y147795D02*
D03*
Y62835D02*
D03*
Y52835D02*
D03*
D31*
Y157795D02*
D03*
Y72835D02*
D03*
D32*
X53150Y122441D02*
D03*
Y153150D02*
D03*
Y78347D02*
D03*
Y47638D02*
D03*
X324410Y198819D02*
D03*
X293701D02*
D03*
X394094Y90551D02*
D03*
X424803D02*
D03*
X394094Y104331D02*
D03*
X424803D02*
D03*
X324410Y11811D02*
D03*
X293701D02*
D03*
D33*
X442913Y98425D02*
D03*
X421260Y61024D02*
D03*
Y133858D02*
D03*
D34*
X30512Y110236D02*
D03*
D35*
Y90551D02*
D03*
D36*
X444882Y196850D02*
D03*
X13780Y13780D02*
D03*
X444882D02*
D03*
X13780Y196850D02*
D03*
D37*
X338583Y11811D02*
D03*
Y198819D02*
D03*
D38*
X374016Y11811D02*
D03*
Y198819D02*
D03*
M02*
