G04*
G04 #@! TF.GenerationSoftware,Altium Limited,Altium Designer,24.5.1 (21)*
G04*
G04 Layer_Color=16711935*
%FSLAX25Y25*%
%MOIN*%
G70*
G04*
G04 #@! TF.SameCoordinates,C76CA4C4-4B78-49E4-996D-9464DF6DB47D*
G04*
G04*
G04 #@! TF.FilePolarity,Positive*
G04*
G01*
G75*
%ADD11C,0.00787*%
%ADD12C,0.00591*%
%ADD13C,0.00394*%
D11*
X306890Y67913D02*
X326969D01*
X306890Y38386D02*
Y67913D01*
Y38386D02*
X326969D01*
Y67913D01*
X438169Y92421D02*
Y104429D01*
X447657D01*
Y92421D02*
Y104429D01*
X438169Y92421D02*
X447657D01*
X416516Y55020D02*
Y67028D01*
X426004D01*
Y55020D02*
Y67028D01*
X416516Y55020D02*
X426004D01*
X416516Y127854D02*
Y139862D01*
X426004D01*
Y127854D02*
Y139862D01*
X416516Y127854D02*
X426004D01*
X306890Y71850D02*
Y101378D01*
X326969D01*
Y71850D02*
Y101378D01*
X306890Y71850D02*
X326969D01*
X306890Y146653D02*
Y176181D01*
X326969D01*
Y146653D02*
Y176181D01*
X306890Y146653D02*
X326969D01*
Y113189D02*
Y142717D01*
X306890Y113189D02*
X326969D01*
X306890D02*
Y142717D01*
X326969D01*
D12*
X215551Y141732D02*
G03*
X215551Y141732I-36417J0D01*
G01*
X138779Y65945D02*
G03*
X138779Y65945I-36417J0D01*
G01*
X292323D02*
G03*
X292323Y65945I-36417J0D01*
G01*
X215551D02*
G03*
X215551Y65945I-36417J0D01*
G01*
X138779Y141732D02*
G03*
X138779Y141732I-36417J0D01*
G01*
X292323D02*
G03*
X292323Y141732I-36417J0D01*
G01*
D13*
X353346Y127323D02*
Y168268D01*
Y168268D02*
X371457D01*
Y127323D02*
Y168268D01*
X353346Y127323D02*
X371457D01*
X366339D02*
Y168268D01*
X57774Y128543D02*
Y147047D01*
X48526D02*
X57774D01*
X48526Y128543D02*
Y147047D01*
Y128543D02*
X57774D01*
X14764Y120079D02*
X44291D01*
X14764Y80709D02*
X44291D01*
Y120079D01*
X14764Y80709D02*
Y120079D01*
Y100394D02*
X17913D01*
Y80709D02*
Y120079D01*
X48526Y53740D02*
X57774D01*
X48526D02*
Y72244D01*
X57774D01*
Y53740D02*
Y72244D01*
X299803Y194195D02*
Y203442D01*
X318307D01*
Y194195D02*
Y203442D01*
X299803Y194195D02*
X318307D01*
X343898Y7087D02*
Y16535D01*
X368701D01*
X343898Y7087D02*
X368701D01*
Y16535D01*
X418701Y85928D02*
Y95175D01*
X400197Y85928D02*
X418701D01*
X400197D02*
Y95175D01*
X418701D01*
X418701Y99707D02*
Y108955D01*
X400197Y99707D02*
X418701D01*
X400197D02*
Y108955D01*
X418701D01*
X366339Y42362D02*
Y83307D01*
X353346Y42362D02*
X371457D01*
Y83307D01*
X353346Y83307D02*
X371457D01*
X353346Y42362D02*
Y83307D01*
X343898Y194095D02*
Y203543D01*
X368701D01*
X343898Y194095D02*
X368701D01*
Y203543D01*
X299803Y7187D02*
Y16434D01*
X318307D01*
Y7187D02*
Y16434D01*
X299803Y7187D02*
X318307D01*
M02*
