G04*
G04 #@! TF.GenerationSoftware,Altium Limited,Altium Designer,24.5.1 (21)*
G04*
G04 Layer_Color=16711935*
%FSLAX25Y25*%
%MOIN*%
G70*
G04*
G04 #@! TF.SameCoordinates,C76CA4C4-4B78-49E4-996D-9464DF6DB47D*
G04*
G04*
G04 #@! TF.FilePolarity,Positive*
G04*
G01*
G75*
%ADD11C,0.00787*%
G36*
X318125Y53146D02*
X318132Y53139D01*
X318135Y53124D01*
X318146Y53106D01*
X318157Y53084D01*
X318172Y53059D01*
X318208Y52997D01*
X318248Y52924D01*
X318299Y52851D01*
X318357Y52775D01*
X318419Y52698D01*
X318423Y52695D01*
X318427Y52691D01*
X318438Y52680D01*
X318448Y52666D01*
X318485Y52633D01*
X318529Y52589D01*
X318580Y52545D01*
X318638Y52498D01*
X318696Y52458D01*
X318758Y52422D01*
Y52221D01*
X316228D01*
Y52531D01*
X318197D01*
X318194Y52535D01*
X318179Y52553D01*
X318157Y52574D01*
X318132Y52611D01*
X318099Y52651D01*
X318063Y52702D01*
X318023Y52760D01*
X317983Y52826D01*
Y52829D01*
X317979Y52833D01*
X317964Y52855D01*
X317946Y52891D01*
X317924Y52935D01*
X317899Y52986D01*
X317873Y53040D01*
X317848Y53095D01*
X317826Y53150D01*
X318125D01*
Y53146D01*
D02*
G37*
G36*
X318055Y51038D02*
X317040D01*
X317036D01*
X317029D01*
X317018D01*
X317000D01*
X316960D01*
X316909Y51035D01*
X316854D01*
X316799Y51031D01*
X316752Y51028D01*
X316712Y51020D01*
X316708D01*
X316694Y51013D01*
X316672Y51006D01*
X316643Y50995D01*
X316614Y50977D01*
X316581Y50955D01*
X316552Y50929D01*
X316523Y50896D01*
X316519Y50893D01*
X316512Y50878D01*
X316501Y50860D01*
X316490Y50831D01*
X316476Y50798D01*
X316465Y50758D01*
X316457Y50714D01*
X316454Y50664D01*
Y50638D01*
X316457Y50612D01*
X316461Y50580D01*
X316472Y50540D01*
X316483Y50496D01*
X316501Y50449D01*
X316523Y50401D01*
X316527Y50394D01*
X316537Y50380D01*
X316552Y50358D01*
X316574Y50332D01*
X316603Y50303D01*
X316636Y50274D01*
X316672Y50248D01*
X316716Y50227D01*
X316723Y50223D01*
X316738Y50219D01*
X316767Y50212D01*
X316807Y50201D01*
X316858Y50190D01*
X316920Y50183D01*
X316992Y50179D01*
X317076Y50176D01*
X318055D01*
Y49866D01*
X316228D01*
Y50143D01*
X316494D01*
X316490Y50147D01*
X316479Y50154D01*
X316465Y50165D01*
X316446Y50183D01*
X316425Y50205D01*
X316395Y50230D01*
X316370Y50259D01*
X316341Y50296D01*
X316312Y50336D01*
X316286Y50380D01*
X316261Y50427D01*
X316235Y50478D01*
X316217Y50536D01*
X316203Y50594D01*
X316192Y50660D01*
X316188Y50725D01*
Y50751D01*
X316192Y50784D01*
X316195Y50824D01*
X316203Y50871D01*
X316213Y50922D01*
X316228Y50973D01*
X316250Y51028D01*
X316253Y51035D01*
X316261Y51049D01*
X316275Y51075D01*
X316294Y51104D01*
X316315Y51140D01*
X316341Y51173D01*
X316370Y51206D01*
X316403Y51235D01*
X316406Y51239D01*
X316421Y51246D01*
X316439Y51257D01*
X316468Y51271D01*
X316501Y51290D01*
X316541Y51304D01*
X316585Y51319D01*
X316632Y51330D01*
X316636D01*
X316650Y51333D01*
X316672Y51337D01*
X316701D01*
X316745Y51341D01*
X316792Y51344D01*
X316854Y51348D01*
X316923D01*
X318055D01*
Y51038D01*
D02*
G37*
G36*
X318747Y47624D02*
X318448D01*
Y48993D01*
X317670D01*
Y47810D01*
X317371D01*
Y48993D01*
X316228D01*
Y49328D01*
X318747D01*
Y47624D01*
D02*
G37*
G36*
X179884Y141423D02*
X179880D01*
X179873Y141419D01*
X179858Y141416D01*
X179840Y141412D01*
X179818Y141408D01*
X179793Y141401D01*
X179738Y141383D01*
X179673Y141357D01*
X179611Y141325D01*
X179552Y141288D01*
X179501Y141245D01*
X179498Y141237D01*
X179483Y141223D01*
X179465Y141194D01*
X179447Y141157D01*
X179425Y141113D01*
X179407Y141059D01*
X179392Y140997D01*
X179389Y140931D01*
Y140910D01*
X179392Y140895D01*
X179396Y140855D01*
X179407Y140804D01*
X179425Y140746D01*
X179451Y140684D01*
X179487Y140622D01*
X179538Y140564D01*
X179545Y140557D01*
X179567Y140538D01*
X179600Y140517D01*
X179643Y140487D01*
X179698Y140458D01*
X179760Y140436D01*
X179833Y140418D01*
X179913Y140411D01*
X179916D01*
X179924D01*
X179935D01*
X179949Y140415D01*
X179989Y140418D01*
X180036Y140429D01*
X180095Y140444D01*
X180153Y140469D01*
X180211Y140506D01*
X180266Y140553D01*
X180273Y140560D01*
X180288Y140578D01*
X180309Y140608D01*
X180335Y140648D01*
X180360Y140699D01*
X180382Y140760D01*
X180397Y140830D01*
X180404Y140906D01*
Y140939D01*
X180401Y140964D01*
X180397Y140997D01*
X180390Y141033D01*
X180382Y141077D01*
X180371Y141124D01*
X180644Y141088D01*
Y141070D01*
X180641Y141055D01*
Y141008D01*
X180648Y140968D01*
X180655Y140921D01*
X180666Y140866D01*
X180684Y140804D01*
X180710Y140746D01*
X180743Y140684D01*
Y140680D01*
X180746Y140677D01*
X180761Y140658D01*
X180786Y140633D01*
X180819Y140604D01*
X180866Y140575D01*
X180921Y140549D01*
X180983Y140531D01*
X181019Y140524D01*
X181059D01*
X181063D01*
X181067D01*
X181088D01*
X181118Y140531D01*
X181158Y140538D01*
X181201Y140553D01*
X181249Y140571D01*
X181296Y140600D01*
X181340Y140640D01*
X181343Y140644D01*
X181358Y140662D01*
X181376Y140688D01*
X181398Y140720D01*
X181416Y140764D01*
X181434Y140815D01*
X181449Y140873D01*
X181453Y140939D01*
Y140968D01*
X181445Y141001D01*
X181438Y141044D01*
X181423Y141092D01*
X181405Y141139D01*
X181376Y141190D01*
X181340Y141237D01*
X181336Y141241D01*
X181318Y141255D01*
X181292Y141277D01*
X181256Y141303D01*
X181209Y141328D01*
X181150Y141354D01*
X181081Y141376D01*
X181001Y141390D01*
X181056Y141700D01*
X181059D01*
X181070Y141696D01*
X181085Y141692D01*
X181107Y141689D01*
X181132Y141681D01*
X181161Y141670D01*
X181230Y141649D01*
X181310Y141612D01*
X181391Y141569D01*
X181467Y141514D01*
X181536Y141445D01*
X181540Y141441D01*
X181544Y141434D01*
X181551Y141423D01*
X181562Y141408D01*
X181576Y141390D01*
X181591Y141365D01*
X181605Y141339D01*
X181624Y141306D01*
X181653Y141234D01*
X181682Y141150D01*
X181700Y141052D01*
X181707Y141001D01*
Y140910D01*
X181704Y140870D01*
X181696Y140822D01*
X181685Y140764D01*
X181667Y140699D01*
X181645Y140633D01*
X181616Y140568D01*
Y140564D01*
X181613Y140560D01*
X181602Y140538D01*
X181580Y140506D01*
X181554Y140469D01*
X181518Y140426D01*
X181478Y140382D01*
X181431Y140338D01*
X181376Y140302D01*
X181369Y140298D01*
X181351Y140287D01*
X181318Y140273D01*
X181278Y140254D01*
X181230Y140236D01*
X181176Y140222D01*
X181114Y140211D01*
X181052Y140207D01*
X181045D01*
X181023D01*
X180994Y140211D01*
X180954Y140218D01*
X180906Y140229D01*
X180856Y140247D01*
X180805Y140269D01*
X180754Y140298D01*
X180746Y140302D01*
X180732Y140313D01*
X180706Y140334D01*
X180677Y140364D01*
X180644Y140400D01*
X180608Y140444D01*
X180575Y140495D01*
X180543Y140557D01*
Y140553D01*
X180539Y140546D01*
X180535Y140535D01*
X180532Y140520D01*
X180517Y140480D01*
X180495Y140429D01*
X180466Y140371D01*
X180430Y140313D01*
X180382Y140258D01*
X180328Y140207D01*
X180320Y140203D01*
X180299Y140189D01*
X180262Y140167D01*
X180215Y140145D01*
X180157Y140123D01*
X180087Y140102D01*
X180007Y140087D01*
X179920Y140083D01*
X179916D01*
X179905D01*
X179887D01*
X179865Y140087D01*
X179836Y140091D01*
X179804Y140098D01*
X179767Y140105D01*
X179727Y140112D01*
X179640Y140142D01*
X179592Y140164D01*
X179549Y140185D01*
X179501Y140214D01*
X179454Y140247D01*
X179407Y140284D01*
X179363Y140327D01*
X179359Y140331D01*
X179352Y140338D01*
X179341Y140353D01*
X179327Y140371D01*
X179308Y140393D01*
X179290Y140422D01*
X179269Y140455D01*
X179250Y140495D01*
X179228Y140535D01*
X179207Y140582D01*
X179188Y140629D01*
X179170Y140684D01*
X179156Y140742D01*
X179145Y140804D01*
X179137Y140866D01*
X179134Y140935D01*
Y140968D01*
X179137Y140990D01*
X179141Y141019D01*
X179145Y141052D01*
X179152Y141088D01*
X179159Y141128D01*
X179181Y141215D01*
X179218Y141306D01*
X179239Y141354D01*
X179265Y141397D01*
X179298Y141441D01*
X179330Y141485D01*
X179334Y141488D01*
X179341Y141496D01*
X179352Y141507D01*
X179367Y141518D01*
X179385Y141536D01*
X179410Y141554D01*
X179436Y141576D01*
X179469Y141598D01*
X179505Y141620D01*
X179542Y141641D01*
X179629Y141681D01*
X179731Y141714D01*
X179785Y141725D01*
X179844Y141732D01*
X179884Y141423D01*
D02*
G37*
G36*
Y139465D02*
X179880D01*
X179873Y139461D01*
X179858Y139457D01*
X179840Y139454D01*
X179818Y139450D01*
X179793Y139443D01*
X179738Y139425D01*
X179673Y139399D01*
X179611Y139366D01*
X179552Y139330D01*
X179501Y139286D01*
X179498Y139279D01*
X179483Y139264D01*
X179465Y139235D01*
X179447Y139199D01*
X179425Y139155D01*
X179407Y139101D01*
X179392Y139039D01*
X179389Y138973D01*
Y138951D01*
X179392Y138937D01*
X179396Y138897D01*
X179407Y138846D01*
X179425Y138788D01*
X179451Y138726D01*
X179487Y138664D01*
X179538Y138605D01*
X179545Y138598D01*
X179567Y138580D01*
X179600Y138558D01*
X179643Y138529D01*
X179698Y138500D01*
X179760Y138478D01*
X179833Y138460D01*
X179913Y138453D01*
X179916D01*
X179924D01*
X179935D01*
X179949Y138456D01*
X179989Y138460D01*
X180036Y138471D01*
X180095Y138485D01*
X180153Y138511D01*
X180211Y138547D01*
X180266Y138595D01*
X180273Y138602D01*
X180288Y138620D01*
X180309Y138649D01*
X180335Y138689D01*
X180360Y138740D01*
X180382Y138802D01*
X180397Y138871D01*
X180404Y138948D01*
Y138980D01*
X180401Y139006D01*
X180397Y139039D01*
X180390Y139075D01*
X180382Y139119D01*
X180371Y139166D01*
X180644Y139130D01*
Y139111D01*
X180641Y139097D01*
Y139050D01*
X180648Y139010D01*
X180655Y138962D01*
X180666Y138908D01*
X180684Y138846D01*
X180710Y138788D01*
X180743Y138726D01*
Y138722D01*
X180746Y138718D01*
X180761Y138700D01*
X180786Y138675D01*
X180819Y138646D01*
X180866Y138617D01*
X180921Y138591D01*
X180983Y138573D01*
X181019Y138566D01*
X181059D01*
X181063D01*
X181067D01*
X181088D01*
X181118Y138573D01*
X181158Y138580D01*
X181201Y138595D01*
X181249Y138613D01*
X181296Y138642D01*
X181340Y138682D01*
X181343Y138686D01*
X181358Y138704D01*
X181376Y138729D01*
X181398Y138762D01*
X181416Y138806D01*
X181434Y138857D01*
X181449Y138915D01*
X181453Y138980D01*
Y139010D01*
X181445Y139042D01*
X181438Y139086D01*
X181423Y139133D01*
X181405Y139181D01*
X181376Y139232D01*
X181340Y139279D01*
X181336Y139283D01*
X181318Y139297D01*
X181292Y139319D01*
X181256Y139345D01*
X181209Y139370D01*
X181150Y139395D01*
X181081Y139417D01*
X181001Y139432D01*
X181056Y139741D01*
X181059D01*
X181070Y139738D01*
X181085Y139734D01*
X181107Y139730D01*
X181132Y139723D01*
X181161Y139712D01*
X181230Y139690D01*
X181310Y139654D01*
X181391Y139610D01*
X181467Y139556D01*
X181536Y139486D01*
X181540Y139483D01*
X181544Y139476D01*
X181551Y139465D01*
X181562Y139450D01*
X181576Y139432D01*
X181591Y139406D01*
X181605Y139381D01*
X181624Y139348D01*
X181653Y139275D01*
X181682Y139192D01*
X181700Y139093D01*
X181707Y139042D01*
Y138951D01*
X181704Y138911D01*
X181696Y138864D01*
X181685Y138806D01*
X181667Y138740D01*
X181645Y138675D01*
X181616Y138609D01*
Y138605D01*
X181613Y138602D01*
X181602Y138580D01*
X181580Y138547D01*
X181554Y138511D01*
X181518Y138467D01*
X181478Y138424D01*
X181431Y138380D01*
X181376Y138344D01*
X181369Y138340D01*
X181351Y138329D01*
X181318Y138314D01*
X181278Y138296D01*
X181230Y138278D01*
X181176Y138263D01*
X181114Y138252D01*
X181052Y138249D01*
X181045D01*
X181023D01*
X180994Y138252D01*
X180954Y138260D01*
X180906Y138271D01*
X180856Y138289D01*
X180805Y138311D01*
X180754Y138340D01*
X180746Y138344D01*
X180732Y138354D01*
X180706Y138376D01*
X180677Y138405D01*
X180644Y138442D01*
X180608Y138485D01*
X180575Y138536D01*
X180543Y138598D01*
Y138595D01*
X180539Y138587D01*
X180535Y138576D01*
X180532Y138562D01*
X180517Y138522D01*
X180495Y138471D01*
X180466Y138413D01*
X180430Y138354D01*
X180382Y138300D01*
X180328Y138249D01*
X180320Y138245D01*
X180299Y138231D01*
X180262Y138209D01*
X180215Y138187D01*
X180157Y138165D01*
X180087Y138143D01*
X180007Y138129D01*
X179920Y138125D01*
X179916D01*
X179905D01*
X179887D01*
X179865Y138129D01*
X179836Y138132D01*
X179804Y138140D01*
X179767Y138147D01*
X179727Y138154D01*
X179640Y138183D01*
X179592Y138205D01*
X179549Y138227D01*
X179501Y138256D01*
X179454Y138289D01*
X179407Y138325D01*
X179363Y138369D01*
X179359Y138373D01*
X179352Y138380D01*
X179341Y138394D01*
X179327Y138413D01*
X179308Y138435D01*
X179290Y138464D01*
X179269Y138496D01*
X179250Y138536D01*
X179228Y138576D01*
X179207Y138624D01*
X179188Y138671D01*
X179170Y138726D01*
X179156Y138784D01*
X179145Y138846D01*
X179137Y138908D01*
X179134Y138977D01*
Y139010D01*
X179137Y139031D01*
X179141Y139060D01*
X179145Y139093D01*
X179152Y139130D01*
X179159Y139170D01*
X179181Y139257D01*
X179218Y139348D01*
X179239Y139395D01*
X179265Y139439D01*
X179298Y139483D01*
X179330Y139526D01*
X179334Y139530D01*
X179341Y139537D01*
X179352Y139548D01*
X179367Y139559D01*
X179385Y139577D01*
X179410Y139596D01*
X179436Y139618D01*
X179469Y139639D01*
X179505Y139661D01*
X179542Y139683D01*
X179629Y139723D01*
X179731Y139756D01*
X179785Y139767D01*
X179844Y139774D01*
X179884Y139465D01*
D02*
G37*
G36*
X180532Y137816D02*
X180575D01*
X180623Y137812D01*
X180677Y137808D01*
X180790Y137797D01*
X180910Y137779D01*
X181030Y137757D01*
X181085Y137743D01*
X181139Y137728D01*
X181143D01*
X181150Y137725D01*
X181165Y137717D01*
X181183Y137710D01*
X181209Y137703D01*
X181234Y137688D01*
X181296Y137659D01*
X181361Y137623D01*
X181431Y137575D01*
X181500Y137521D01*
X181558Y137455D01*
Y137452D01*
X181565Y137448D01*
X181573Y137437D01*
X181580Y137423D01*
X181594Y137404D01*
X181605Y137382D01*
X181634Y137328D01*
X181660Y137262D01*
X181685Y137186D01*
X181700Y137095D01*
X181707Y136997D01*
Y136964D01*
X181704Y136924D01*
X181696Y136876D01*
X181685Y136822D01*
X181671Y136764D01*
X181653Y136702D01*
X181624Y136644D01*
Y136640D01*
X181620Y136636D01*
X181609Y136618D01*
X181591Y136589D01*
X181565Y136553D01*
X181529Y136513D01*
X181489Y136469D01*
X181442Y136429D01*
X181387Y136389D01*
X181380Y136385D01*
X181361Y136371D01*
X181329Y136356D01*
X181281Y136330D01*
X181227Y136309D01*
X181165Y136280D01*
X181092Y136254D01*
X181012Y136232D01*
X181008D01*
X181001Y136229D01*
X180990Y136225D01*
X180972Y136221D01*
X180950Y136218D01*
X180925Y136214D01*
X180892Y136207D01*
X180856Y136203D01*
X180815Y136196D01*
X180772Y136192D01*
X180721Y136189D01*
X180670Y136181D01*
X180612Y136178D01*
X180553D01*
X180488Y136174D01*
X180419D01*
X180415D01*
X180401D01*
X180375D01*
X180346D01*
X180306Y136178D01*
X180262D01*
X180215Y136181D01*
X180164Y136185D01*
X180047Y136196D01*
X179927Y136214D01*
X179811Y136236D01*
X179756Y136250D01*
X179702Y136269D01*
X179698D01*
X179691Y136272D01*
X179676Y136280D01*
X179658Y136287D01*
X179632Y136294D01*
X179607Y136309D01*
X179545Y136338D01*
X179480Y136374D01*
X179407Y136422D01*
X179341Y136476D01*
X179279Y136542D01*
Y136545D01*
X179272Y136549D01*
X179265Y136560D01*
X179258Y136574D01*
X179247Y136593D01*
X179232Y136611D01*
X179207Y136665D01*
X179181Y136731D01*
X179156Y136807D01*
X179141Y136898D01*
X179134Y136997D01*
Y137033D01*
X179137Y137058D01*
X179141Y137088D01*
X179148Y137124D01*
X179156Y137164D01*
X179167Y137208D01*
X179181Y137251D01*
X179196Y137299D01*
X179218Y137346D01*
X179243Y137393D01*
X179272Y137441D01*
X179308Y137488D01*
X179349Y137532D01*
X179392Y137572D01*
X179396Y137575D01*
X179407Y137583D01*
X179425Y137594D01*
X179454Y137612D01*
X179487Y137630D01*
X179531Y137648D01*
X179581Y137674D01*
X179640Y137696D01*
X179705Y137717D01*
X179782Y137739D01*
X179865Y137761D01*
X179960Y137779D01*
X180062Y137797D01*
X180171Y137808D01*
X180291Y137816D01*
X180419Y137819D01*
X180422D01*
X180437D01*
X180462D01*
X180491D01*
X180532Y137816D01*
D02*
G37*
G36*
Y135857D02*
X180575D01*
X180623Y135854D01*
X180677Y135850D01*
X180790Y135839D01*
X180910Y135821D01*
X181030Y135799D01*
X181085Y135784D01*
X181139Y135770D01*
X181143D01*
X181150Y135766D01*
X181165Y135759D01*
X181183Y135752D01*
X181209Y135745D01*
X181234Y135730D01*
X181296Y135701D01*
X181361Y135664D01*
X181431Y135617D01*
X181500Y135563D01*
X181558Y135497D01*
Y135493D01*
X181565Y135490D01*
X181573Y135479D01*
X181580Y135464D01*
X181594Y135446D01*
X181605Y135424D01*
X181634Y135370D01*
X181660Y135304D01*
X181685Y135228D01*
X181700Y135137D01*
X181707Y135038D01*
Y135006D01*
X181704Y134966D01*
X181696Y134918D01*
X181685Y134864D01*
X181671Y134805D01*
X181653Y134743D01*
X181624Y134685D01*
Y134682D01*
X181620Y134678D01*
X181609Y134660D01*
X181591Y134631D01*
X181565Y134594D01*
X181529Y134554D01*
X181489Y134511D01*
X181442Y134470D01*
X181387Y134431D01*
X181380Y134427D01*
X181361Y134412D01*
X181329Y134398D01*
X181281Y134372D01*
X181227Y134350D01*
X181165Y134321D01*
X181092Y134296D01*
X181012Y134274D01*
X181008D01*
X181001Y134270D01*
X180990Y134267D01*
X180972Y134263D01*
X180950Y134259D01*
X180925Y134256D01*
X180892Y134248D01*
X180856Y134245D01*
X180815Y134238D01*
X180772Y134234D01*
X180721Y134230D01*
X180670Y134223D01*
X180612Y134219D01*
X180553D01*
X180488Y134216D01*
X180419D01*
X180415D01*
X180401D01*
X180375D01*
X180346D01*
X180306Y134219D01*
X180262D01*
X180215Y134223D01*
X180164Y134227D01*
X180047Y134238D01*
X179927Y134256D01*
X179811Y134278D01*
X179756Y134292D01*
X179702Y134310D01*
X179698D01*
X179691Y134314D01*
X179676Y134321D01*
X179658Y134328D01*
X179632Y134336D01*
X179607Y134350D01*
X179545Y134379D01*
X179480Y134416D01*
X179407Y134463D01*
X179341Y134518D01*
X179279Y134583D01*
Y134587D01*
X179272Y134591D01*
X179265Y134601D01*
X179258Y134616D01*
X179247Y134634D01*
X179232Y134652D01*
X179207Y134707D01*
X179181Y134773D01*
X179156Y134849D01*
X179141Y134940D01*
X179134Y135038D01*
Y135075D01*
X179137Y135100D01*
X179141Y135129D01*
X179148Y135166D01*
X179156Y135206D01*
X179167Y135249D01*
X179181Y135293D01*
X179196Y135340D01*
X179218Y135388D01*
X179243Y135435D01*
X179272Y135482D01*
X179308Y135530D01*
X179349Y135573D01*
X179392Y135614D01*
X179396Y135617D01*
X179407Y135624D01*
X179425Y135635D01*
X179454Y135653D01*
X179487Y135672D01*
X179531Y135690D01*
X179581Y135715D01*
X179640Y135737D01*
X179705Y135759D01*
X179782Y135781D01*
X179865Y135803D01*
X179960Y135821D01*
X180062Y135839D01*
X180171Y135850D01*
X180291Y135857D01*
X180419Y135861D01*
X180422D01*
X180437D01*
X180462D01*
X180491D01*
X180532Y135857D01*
D02*
G37*
G36*
X181005Y133513D02*
X179989D01*
X179986D01*
X179978D01*
X179967D01*
X179949D01*
X179909D01*
X179858Y133510D01*
X179804D01*
X179749Y133506D01*
X179702Y133502D01*
X179662Y133495D01*
X179658D01*
X179643Y133488D01*
X179622Y133480D01*
X179592Y133469D01*
X179563Y133451D01*
X179531Y133430D01*
X179501Y133404D01*
X179472Y133371D01*
X179469Y133368D01*
X179461Y133353D01*
X179451Y133335D01*
X179440Y133306D01*
X179425Y133273D01*
X179414Y133233D01*
X179407Y133189D01*
X179403Y133138D01*
Y133113D01*
X179407Y133087D01*
X179410Y133054D01*
X179421Y133015D01*
X179432Y132971D01*
X179451Y132923D01*
X179472Y132876D01*
X179476Y132869D01*
X179487Y132854D01*
X179501Y132833D01*
X179523Y132807D01*
X179552Y132778D01*
X179585Y132749D01*
X179622Y132723D01*
X179665Y132702D01*
X179673Y132698D01*
X179687Y132694D01*
X179716Y132687D01*
X179756Y132676D01*
X179807Y132665D01*
X179869Y132658D01*
X179942Y132654D01*
X180026Y132650D01*
X181005D01*
Y132341D01*
X179177D01*
Y132618D01*
X179443D01*
X179440Y132621D01*
X179429Y132629D01*
X179414Y132640D01*
X179396Y132658D01*
X179374Y132680D01*
X179345Y132705D01*
X179319Y132734D01*
X179290Y132771D01*
X179261Y132811D01*
X179236Y132854D01*
X179210Y132902D01*
X179185Y132953D01*
X179167Y133011D01*
X179152Y133069D01*
X179141Y133135D01*
X179137Y133200D01*
Y133226D01*
X179141Y133258D01*
X179145Y133298D01*
X179152Y133346D01*
X179163Y133397D01*
X179177Y133448D01*
X179199Y133502D01*
X179203Y133510D01*
X179210Y133524D01*
X179225Y133550D01*
X179243Y133579D01*
X179265Y133615D01*
X179290Y133648D01*
X179319Y133681D01*
X179352Y133710D01*
X179356Y133713D01*
X179370Y133721D01*
X179389Y133732D01*
X179418Y133746D01*
X179451Y133764D01*
X179490Y133779D01*
X179534Y133793D01*
X179581Y133804D01*
X179585D01*
X179600Y133808D01*
X179622Y133812D01*
X179651D01*
X179694Y133815D01*
X179742Y133819D01*
X179804Y133823D01*
X179873D01*
X181005D01*
Y133513D01*
D02*
G37*
G36*
X181696Y130099D02*
X181398D01*
Y131467D01*
X180619D01*
Y130285D01*
X180320D01*
Y131467D01*
X179177D01*
Y131802D01*
X181696D01*
Y130099D01*
D02*
G37*
G36*
X103112Y65636D02*
X103108D01*
X103101Y65632D01*
X103086Y65628D01*
X103068Y65625D01*
X103047Y65621D01*
X103021Y65614D01*
X102966Y65596D01*
X102901Y65570D01*
X102839Y65537D01*
X102781Y65501D01*
X102730Y65457D01*
X102726Y65450D01*
X102712Y65435D01*
X102693Y65406D01*
X102675Y65370D01*
X102653Y65326D01*
X102635Y65272D01*
X102621Y65210D01*
X102617Y65144D01*
Y65122D01*
X102621Y65108D01*
X102624Y65068D01*
X102635Y65017D01*
X102653Y64959D01*
X102679Y64897D01*
X102715Y64835D01*
X102766Y64776D01*
X102773Y64769D01*
X102795Y64751D01*
X102828Y64729D01*
X102872Y64700D01*
X102926Y64671D01*
X102988Y64649D01*
X103061Y64631D01*
X103141Y64624D01*
X103145D01*
X103152D01*
X103163D01*
X103177Y64627D01*
X103217Y64631D01*
X103265Y64642D01*
X103323Y64656D01*
X103381Y64682D01*
X103440Y64718D01*
X103494Y64766D01*
X103501Y64773D01*
X103516Y64791D01*
X103538Y64820D01*
X103563Y64860D01*
X103589Y64911D01*
X103611Y64973D01*
X103625Y65042D01*
X103632Y65119D01*
Y65151D01*
X103629Y65177D01*
X103625Y65210D01*
X103618Y65246D01*
X103611Y65290D01*
X103600Y65337D01*
X103873Y65301D01*
Y65282D01*
X103869Y65268D01*
Y65221D01*
X103876Y65180D01*
X103884Y65133D01*
X103895Y65079D01*
X103913Y65017D01*
X103938Y64959D01*
X103971Y64897D01*
Y64893D01*
X103975Y64889D01*
X103989Y64871D01*
X104015Y64846D01*
X104048Y64816D01*
X104095Y64787D01*
X104149Y64762D01*
X104211Y64744D01*
X104248Y64736D01*
X104288D01*
X104291D01*
X104295D01*
X104317D01*
X104346Y64744D01*
X104386Y64751D01*
X104430Y64766D01*
X104477Y64784D01*
X104524Y64813D01*
X104568Y64853D01*
X104572Y64857D01*
X104586Y64875D01*
X104604Y64900D01*
X104626Y64933D01*
X104644Y64977D01*
X104663Y65028D01*
X104677Y65086D01*
X104681Y65151D01*
Y65180D01*
X104674Y65213D01*
X104666Y65257D01*
X104652Y65304D01*
X104633Y65352D01*
X104604Y65403D01*
X104568Y65450D01*
X104564Y65453D01*
X104546Y65468D01*
X104521Y65490D01*
X104484Y65515D01*
X104437Y65541D01*
X104379Y65566D01*
X104309Y65588D01*
X104229Y65603D01*
X104284Y65912D01*
X104288D01*
X104299Y65908D01*
X104313Y65905D01*
X104335Y65901D01*
X104360Y65894D01*
X104390Y65883D01*
X104459Y65861D01*
X104539Y65825D01*
X104619Y65781D01*
X104695Y65727D01*
X104764Y65657D01*
X104768Y65654D01*
X104772Y65646D01*
X104779Y65636D01*
X104790Y65621D01*
X104805Y65603D01*
X104819Y65577D01*
X104834Y65552D01*
X104852Y65519D01*
X104881Y65446D01*
X104910Y65363D01*
X104928Y65264D01*
X104936Y65213D01*
Y65122D01*
X104932Y65082D01*
X104925Y65035D01*
X104914Y64977D01*
X104896Y64911D01*
X104874Y64846D01*
X104845Y64780D01*
Y64776D01*
X104841Y64773D01*
X104830Y64751D01*
X104808Y64718D01*
X104783Y64682D01*
X104746Y64638D01*
X104706Y64595D01*
X104659Y64551D01*
X104604Y64514D01*
X104597Y64511D01*
X104579Y64500D01*
X104546Y64485D01*
X104506Y64467D01*
X104459Y64449D01*
X104404Y64434D01*
X104342Y64423D01*
X104280Y64420D01*
X104273D01*
X104251D01*
X104222Y64423D01*
X104182Y64431D01*
X104135Y64442D01*
X104084Y64460D01*
X104033Y64482D01*
X103982Y64511D01*
X103975Y64514D01*
X103960Y64525D01*
X103935Y64547D01*
X103905Y64576D01*
X103873Y64613D01*
X103836Y64656D01*
X103804Y64707D01*
X103771Y64769D01*
Y64766D01*
X103767Y64758D01*
X103763Y64747D01*
X103760Y64733D01*
X103745Y64693D01*
X103724Y64642D01*
X103694Y64584D01*
X103658Y64525D01*
X103611Y64471D01*
X103556Y64420D01*
X103549Y64416D01*
X103527Y64402D01*
X103490Y64380D01*
X103443Y64358D01*
X103385Y64336D01*
X103316Y64314D01*
X103236Y64300D01*
X103148Y64296D01*
X103145D01*
X103134D01*
X103116D01*
X103094Y64300D01*
X103065Y64303D01*
X103032Y64311D01*
X102996Y64318D01*
X102955Y64325D01*
X102868Y64354D01*
X102821Y64376D01*
X102777Y64398D01*
X102730Y64427D01*
X102682Y64460D01*
X102635Y64496D01*
X102592Y64540D01*
X102588Y64543D01*
X102580Y64551D01*
X102570Y64565D01*
X102555Y64584D01*
X102537Y64605D01*
X102519Y64635D01*
X102497Y64667D01*
X102479Y64707D01*
X102457Y64747D01*
X102435Y64795D01*
X102417Y64842D01*
X102399Y64897D01*
X102384Y64955D01*
X102373Y65017D01*
X102366Y65079D01*
X102362Y65148D01*
Y65180D01*
X102366Y65202D01*
X102369Y65232D01*
X102373Y65264D01*
X102380Y65301D01*
X102388Y65341D01*
X102410Y65428D01*
X102446Y65519D01*
X102468Y65566D01*
X102493Y65610D01*
X102526Y65654D01*
X102559Y65697D01*
X102562Y65701D01*
X102570Y65708D01*
X102580Y65719D01*
X102595Y65730D01*
X102613Y65748D01*
X102639Y65767D01*
X102664Y65788D01*
X102697Y65810D01*
X102733Y65832D01*
X102770Y65854D01*
X102857Y65894D01*
X102959Y65927D01*
X103014Y65938D01*
X103072Y65945D01*
X103112Y65636D01*
D02*
G37*
G36*
Y63677D02*
X103108D01*
X103101Y63674D01*
X103086Y63670D01*
X103068Y63666D01*
X103047Y63663D01*
X103021Y63655D01*
X102966Y63637D01*
X102901Y63612D01*
X102839Y63579D01*
X102781Y63542D01*
X102730Y63499D01*
X102726Y63491D01*
X102712Y63477D01*
X102693Y63448D01*
X102675Y63411D01*
X102653Y63368D01*
X102635Y63313D01*
X102621Y63251D01*
X102617Y63186D01*
Y63164D01*
X102621Y63149D01*
X102624Y63109D01*
X102635Y63058D01*
X102653Y63000D01*
X102679Y62938D01*
X102715Y62876D01*
X102766Y62818D01*
X102773Y62811D01*
X102795Y62793D01*
X102828Y62771D01*
X102872Y62742D01*
X102926Y62713D01*
X102988Y62691D01*
X103061Y62673D01*
X103141Y62665D01*
X103145D01*
X103152D01*
X103163D01*
X103177Y62669D01*
X103217Y62673D01*
X103265Y62683D01*
X103323Y62698D01*
X103381Y62723D01*
X103440Y62760D01*
X103494Y62807D01*
X103501Y62814D01*
X103516Y62833D01*
X103538Y62862D01*
X103563Y62902D01*
X103589Y62953D01*
X103611Y63015D01*
X103625Y63084D01*
X103632Y63160D01*
Y63193D01*
X103629Y63219D01*
X103625Y63251D01*
X103618Y63288D01*
X103611Y63331D01*
X103600Y63379D01*
X103873Y63342D01*
Y63324D01*
X103869Y63310D01*
Y63262D01*
X103876Y63222D01*
X103884Y63175D01*
X103895Y63120D01*
X103913Y63058D01*
X103938Y63000D01*
X103971Y62938D01*
Y62935D01*
X103975Y62931D01*
X103989Y62913D01*
X104015Y62887D01*
X104048Y62858D01*
X104095Y62829D01*
X104149Y62804D01*
X104211Y62785D01*
X104248Y62778D01*
X104288D01*
X104291D01*
X104295D01*
X104317D01*
X104346Y62785D01*
X104386Y62793D01*
X104430Y62807D01*
X104477Y62825D01*
X104524Y62854D01*
X104568Y62895D01*
X104572Y62898D01*
X104586Y62916D01*
X104604Y62942D01*
X104626Y62975D01*
X104644Y63018D01*
X104663Y63069D01*
X104677Y63127D01*
X104681Y63193D01*
Y63222D01*
X104674Y63255D01*
X104666Y63299D01*
X104652Y63346D01*
X104633Y63393D01*
X104604Y63444D01*
X104568Y63491D01*
X104564Y63495D01*
X104546Y63510D01*
X104521Y63532D01*
X104484Y63557D01*
X104437Y63583D01*
X104379Y63608D01*
X104309Y63630D01*
X104229Y63644D01*
X104284Y63954D01*
X104288D01*
X104299Y63950D01*
X104313Y63947D01*
X104335Y63943D01*
X104360Y63936D01*
X104390Y63925D01*
X104459Y63903D01*
X104539Y63867D01*
X104619Y63823D01*
X104695Y63768D01*
X104764Y63699D01*
X104768Y63695D01*
X104772Y63688D01*
X104779Y63677D01*
X104790Y63663D01*
X104805Y63644D01*
X104819Y63619D01*
X104834Y63594D01*
X104852Y63561D01*
X104881Y63488D01*
X104910Y63404D01*
X104928Y63306D01*
X104936Y63255D01*
Y63164D01*
X104932Y63124D01*
X104925Y63077D01*
X104914Y63018D01*
X104896Y62953D01*
X104874Y62887D01*
X104845Y62822D01*
Y62818D01*
X104841Y62814D01*
X104830Y62793D01*
X104808Y62760D01*
X104783Y62723D01*
X104746Y62680D01*
X104706Y62636D01*
X104659Y62593D01*
X104604Y62556D01*
X104597Y62552D01*
X104579Y62542D01*
X104546Y62527D01*
X104506Y62509D01*
X104459Y62490D01*
X104404Y62476D01*
X104342Y62465D01*
X104280Y62461D01*
X104273D01*
X104251D01*
X104222Y62465D01*
X104182Y62472D01*
X104135Y62483D01*
X104084Y62502D01*
X104033Y62523D01*
X103982Y62552D01*
X103975Y62556D01*
X103960Y62567D01*
X103935Y62589D01*
X103905Y62618D01*
X103873Y62654D01*
X103836Y62698D01*
X103804Y62749D01*
X103771Y62811D01*
Y62807D01*
X103767Y62800D01*
X103763Y62789D01*
X103760Y62774D01*
X103745Y62734D01*
X103724Y62683D01*
X103694Y62625D01*
X103658Y62567D01*
X103611Y62512D01*
X103556Y62461D01*
X103549Y62458D01*
X103527Y62443D01*
X103490Y62421D01*
X103443Y62400D01*
X103385Y62378D01*
X103316Y62356D01*
X103236Y62341D01*
X103148Y62338D01*
X103145D01*
X103134D01*
X103116D01*
X103094Y62341D01*
X103065Y62345D01*
X103032Y62352D01*
X102996Y62359D01*
X102955Y62367D01*
X102868Y62396D01*
X102821Y62418D01*
X102777Y62440D01*
X102730Y62469D01*
X102682Y62502D01*
X102635Y62538D01*
X102592Y62582D01*
X102588Y62585D01*
X102580Y62593D01*
X102570Y62607D01*
X102555Y62625D01*
X102537Y62647D01*
X102519Y62676D01*
X102497Y62709D01*
X102479Y62749D01*
X102457Y62789D01*
X102435Y62836D01*
X102417Y62884D01*
X102399Y62938D01*
X102384Y62997D01*
X102373Y63058D01*
X102366Y63120D01*
X102362Y63189D01*
Y63222D01*
X102366Y63244D01*
X102369Y63273D01*
X102373Y63306D01*
X102380Y63342D01*
X102388Y63382D01*
X102410Y63470D01*
X102446Y63561D01*
X102468Y63608D01*
X102493Y63652D01*
X102526Y63695D01*
X102559Y63739D01*
X102562Y63743D01*
X102570Y63750D01*
X102580Y63761D01*
X102595Y63772D01*
X102613Y63790D01*
X102639Y63808D01*
X102664Y63830D01*
X102697Y63852D01*
X102733Y63874D01*
X102770Y63896D01*
X102857Y63936D01*
X102959Y63968D01*
X103014Y63979D01*
X103072Y63987D01*
X103112Y63677D01*
D02*
G37*
G36*
X103760Y62028D02*
X103804D01*
X103851Y62025D01*
X103905Y62021D01*
X104018Y62010D01*
X104139Y61992D01*
X104259Y61970D01*
X104313Y61955D01*
X104368Y61941D01*
X104371D01*
X104379Y61937D01*
X104393Y61930D01*
X104411Y61923D01*
X104437Y61915D01*
X104462Y61901D01*
X104524Y61872D01*
X104590Y61835D01*
X104659Y61788D01*
X104728Y61733D01*
X104786Y61668D01*
Y61664D01*
X104794Y61661D01*
X104801Y61650D01*
X104808Y61635D01*
X104823Y61617D01*
X104834Y61595D01*
X104863Y61541D01*
X104888Y61475D01*
X104914Y61399D01*
X104928Y61308D01*
X104936Y61209D01*
Y61177D01*
X104932Y61137D01*
X104925Y61089D01*
X104914Y61035D01*
X104899Y60976D01*
X104881Y60914D01*
X104852Y60856D01*
Y60852D01*
X104848Y60849D01*
X104837Y60831D01*
X104819Y60802D01*
X104794Y60765D01*
X104757Y60725D01*
X104717Y60681D01*
X104670Y60641D01*
X104615Y60601D01*
X104608Y60598D01*
X104590Y60583D01*
X104557Y60569D01*
X104510Y60543D01*
X104455Y60521D01*
X104393Y60492D01*
X104321Y60467D01*
X104240Y60445D01*
X104237D01*
X104229Y60441D01*
X104218Y60438D01*
X104200Y60434D01*
X104179Y60430D01*
X104153Y60427D01*
X104120Y60419D01*
X104084Y60416D01*
X104044Y60409D01*
X104000Y60405D01*
X103949Y60401D01*
X103898Y60394D01*
X103840Y60390D01*
X103782D01*
X103716Y60387D01*
X103647D01*
X103643D01*
X103629D01*
X103603D01*
X103574D01*
X103534Y60390D01*
X103490D01*
X103443Y60394D01*
X103392Y60398D01*
X103276Y60409D01*
X103156Y60427D01*
X103039Y60448D01*
X102985Y60463D01*
X102930Y60481D01*
X102926D01*
X102919Y60485D01*
X102904Y60492D01*
X102886Y60500D01*
X102861Y60507D01*
X102835Y60521D01*
X102773Y60550D01*
X102708Y60587D01*
X102635Y60634D01*
X102570Y60689D01*
X102508Y60754D01*
Y60758D01*
X102500Y60761D01*
X102493Y60773D01*
X102486Y60787D01*
X102475Y60805D01*
X102460Y60823D01*
X102435Y60878D01*
X102410Y60944D01*
X102384Y61020D01*
X102369Y61111D01*
X102362Y61209D01*
Y61246D01*
X102366Y61271D01*
X102369Y61300D01*
X102377Y61337D01*
X102384Y61377D01*
X102395Y61420D01*
X102410Y61464D01*
X102424Y61511D01*
X102446Y61559D01*
X102471Y61606D01*
X102500Y61653D01*
X102537Y61701D01*
X102577Y61744D01*
X102621Y61784D01*
X102624Y61788D01*
X102635Y61795D01*
X102653Y61806D01*
X102682Y61824D01*
X102715Y61843D01*
X102759Y61861D01*
X102810Y61886D01*
X102868Y61908D01*
X102934Y61930D01*
X103010Y61952D01*
X103094Y61974D01*
X103188Y61992D01*
X103290Y62010D01*
X103400Y62021D01*
X103520Y62028D01*
X103647Y62032D01*
X103651D01*
X103665D01*
X103691D01*
X103720D01*
X103760Y62028D01*
D02*
G37*
G36*
Y60070D02*
X103804D01*
X103851Y60066D01*
X103905Y60063D01*
X104018Y60052D01*
X104139Y60034D01*
X104259Y60012D01*
X104313Y59997D01*
X104368Y59983D01*
X104371D01*
X104379Y59979D01*
X104393Y59972D01*
X104411Y59964D01*
X104437Y59957D01*
X104462Y59943D01*
X104524Y59913D01*
X104590Y59877D01*
X104659Y59830D01*
X104728Y59775D01*
X104786Y59710D01*
Y59706D01*
X104794Y59702D01*
X104801Y59691D01*
X104808Y59677D01*
X104823Y59659D01*
X104834Y59637D01*
X104863Y59582D01*
X104888Y59517D01*
X104914Y59440D01*
X104928Y59349D01*
X104936Y59251D01*
Y59218D01*
X104932Y59178D01*
X104925Y59131D01*
X104914Y59076D01*
X104899Y59018D01*
X104881Y58956D01*
X104852Y58898D01*
Y58894D01*
X104848Y58891D01*
X104837Y58872D01*
X104819Y58843D01*
X104794Y58807D01*
X104757Y58767D01*
X104717Y58723D01*
X104670Y58683D01*
X104615Y58643D01*
X104608Y58639D01*
X104590Y58625D01*
X104557Y58610D01*
X104510Y58585D01*
X104455Y58563D01*
X104393Y58534D01*
X104321Y58508D01*
X104240Y58486D01*
X104237D01*
X104229Y58483D01*
X104218Y58479D01*
X104200Y58476D01*
X104179Y58472D01*
X104153Y58468D01*
X104120Y58461D01*
X104084Y58457D01*
X104044Y58450D01*
X104000Y58447D01*
X103949Y58443D01*
X103898Y58436D01*
X103840Y58432D01*
X103782D01*
X103716Y58428D01*
X103647D01*
X103643D01*
X103629D01*
X103603D01*
X103574D01*
X103534Y58432D01*
X103490D01*
X103443Y58436D01*
X103392Y58439D01*
X103276Y58450D01*
X103156Y58468D01*
X103039Y58490D01*
X102985Y58505D01*
X102930Y58523D01*
X102926D01*
X102919Y58527D01*
X102904Y58534D01*
X102886Y58541D01*
X102861Y58548D01*
X102835Y58563D01*
X102773Y58592D01*
X102708Y58628D01*
X102635Y58676D01*
X102570Y58730D01*
X102508Y58796D01*
Y58800D01*
X102500Y58803D01*
X102493Y58814D01*
X102486Y58829D01*
X102475Y58847D01*
X102460Y58865D01*
X102435Y58920D01*
X102410Y58985D01*
X102384Y59062D01*
X102369Y59153D01*
X102362Y59251D01*
Y59287D01*
X102366Y59313D01*
X102369Y59342D01*
X102377Y59378D01*
X102384Y59418D01*
X102395Y59462D01*
X102410Y59506D01*
X102424Y59553D01*
X102446Y59600D01*
X102471Y59648D01*
X102500Y59695D01*
X102537Y59742D01*
X102577Y59786D01*
X102621Y59826D01*
X102624Y59830D01*
X102635Y59837D01*
X102653Y59848D01*
X102682Y59866D01*
X102715Y59884D01*
X102759Y59903D01*
X102810Y59928D01*
X102868Y59950D01*
X102934Y59972D01*
X103010Y59993D01*
X103094Y60015D01*
X103188Y60034D01*
X103290Y60052D01*
X103400Y60063D01*
X103520Y60070D01*
X103647Y60074D01*
X103651D01*
X103665D01*
X103691D01*
X103720D01*
X103760Y60070D01*
D02*
G37*
G36*
X104233Y57726D02*
X103217D01*
X103214D01*
X103207D01*
X103196D01*
X103177D01*
X103138D01*
X103086Y57722D01*
X103032D01*
X102977Y57718D01*
X102930Y57715D01*
X102890Y57708D01*
X102886D01*
X102872Y57700D01*
X102850Y57693D01*
X102821Y57682D01*
X102792Y57664D01*
X102759Y57642D01*
X102730Y57617D01*
X102701Y57584D01*
X102697Y57580D01*
X102690Y57566D01*
X102679Y57547D01*
X102668Y57518D01*
X102653Y57486D01*
X102642Y57446D01*
X102635Y57402D01*
X102631Y57351D01*
Y57325D01*
X102635Y57300D01*
X102639Y57267D01*
X102650Y57227D01*
X102661Y57183D01*
X102679Y57136D01*
X102701Y57089D01*
X102704Y57082D01*
X102715Y57067D01*
X102730Y57045D01*
X102752Y57020D01*
X102781Y56990D01*
X102813Y56961D01*
X102850Y56936D01*
X102894Y56914D01*
X102901Y56910D01*
X102915Y56907D01*
X102945Y56899D01*
X102985Y56889D01*
X103035Y56878D01*
X103097Y56870D01*
X103170Y56867D01*
X103254Y56863D01*
X104233D01*
Y56554D01*
X102406D01*
Y56830D01*
X102672D01*
X102668Y56834D01*
X102657Y56841D01*
X102642Y56852D01*
X102624Y56870D01*
X102602Y56892D01*
X102573Y56918D01*
X102548Y56947D01*
X102519Y56983D01*
X102489Y57023D01*
X102464Y57067D01*
X102439Y57114D01*
X102413Y57165D01*
X102395Y57223D01*
X102380Y57282D01*
X102369Y57347D01*
X102366Y57413D01*
Y57438D01*
X102369Y57471D01*
X102373Y57511D01*
X102380Y57558D01*
X102391Y57609D01*
X102406Y57660D01*
X102428Y57715D01*
X102431Y57722D01*
X102439Y57737D01*
X102453Y57762D01*
X102471Y57791D01*
X102493Y57828D01*
X102519Y57860D01*
X102548Y57893D01*
X102580Y57922D01*
X102584Y57926D01*
X102599Y57933D01*
X102617Y57944D01*
X102646Y57959D01*
X102679Y57977D01*
X102719Y57991D01*
X102762Y58006D01*
X102810Y58017D01*
X102813D01*
X102828Y58021D01*
X102850Y58024D01*
X102879D01*
X102923Y58028D01*
X102970Y58032D01*
X103032Y58035D01*
X103101D01*
X104233D01*
Y57726D01*
D02*
G37*
G36*
X104925Y54312D02*
X104626D01*
Y55680D01*
X103847D01*
Y54497D01*
X103549D01*
Y55680D01*
X102406D01*
Y56015D01*
X104925D01*
Y54312D01*
D02*
G37*
G36*
X256655Y65636D02*
X256652D01*
X256644Y65632D01*
X256630Y65628D01*
X256612Y65625D01*
X256590Y65621D01*
X256564Y65614D01*
X256510Y65596D01*
X256444Y65570D01*
X256382Y65537D01*
X256324Y65501D01*
X256273Y65457D01*
X256270Y65450D01*
X256255Y65435D01*
X256237Y65406D01*
X256219Y65370D01*
X256197Y65326D01*
X256178Y65272D01*
X256164Y65210D01*
X256160Y65144D01*
Y65122D01*
X256164Y65108D01*
X256168Y65068D01*
X256178Y65017D01*
X256197Y64959D01*
X256222Y64897D01*
X256259Y64835D01*
X256310Y64776D01*
X256317Y64769D01*
X256339Y64751D01*
X256371Y64729D01*
X256415Y64700D01*
X256470Y64671D01*
X256532Y64649D01*
X256604Y64631D01*
X256684Y64624D01*
X256688D01*
X256695D01*
X256706D01*
X256721Y64627D01*
X256761Y64631D01*
X256808Y64642D01*
X256866Y64656D01*
X256925Y64682D01*
X256983Y64718D01*
X257037Y64766D01*
X257045Y64773D01*
X257059Y64791D01*
X257081Y64820D01*
X257107Y64860D01*
X257132Y64911D01*
X257154Y64973D01*
X257169Y65042D01*
X257176Y65119D01*
Y65151D01*
X257172Y65177D01*
X257169Y65210D01*
X257161Y65246D01*
X257154Y65290D01*
X257143Y65337D01*
X257416Y65301D01*
Y65282D01*
X257412Y65268D01*
Y65220D01*
X257420Y65180D01*
X257427Y65133D01*
X257438Y65079D01*
X257456Y65017D01*
X257482Y64959D01*
X257514Y64897D01*
Y64893D01*
X257518Y64889D01*
X257533Y64871D01*
X257558Y64846D01*
X257591Y64816D01*
X257638Y64787D01*
X257693Y64762D01*
X257755Y64744D01*
X257791Y64736D01*
X257831D01*
X257835D01*
X257838D01*
X257860D01*
X257889Y64744D01*
X257929Y64751D01*
X257973Y64766D01*
X258020Y64784D01*
X258068Y64813D01*
X258111Y64853D01*
X258115Y64856D01*
X258130Y64875D01*
X258148Y64900D01*
X258170Y64933D01*
X258188Y64977D01*
X258206Y65028D01*
X258221Y65086D01*
X258224Y65151D01*
Y65180D01*
X258217Y65213D01*
X258210Y65257D01*
X258195Y65304D01*
X258177Y65352D01*
X258148Y65403D01*
X258111Y65450D01*
X258108Y65453D01*
X258089Y65468D01*
X258064Y65490D01*
X258028Y65515D01*
X257980Y65541D01*
X257922Y65566D01*
X257853Y65588D01*
X257773Y65603D01*
X257827Y65912D01*
X257831D01*
X257842Y65908D01*
X257856Y65905D01*
X257878Y65901D01*
X257904Y65894D01*
X257933Y65883D01*
X258002Y65861D01*
X258082Y65825D01*
X258162Y65781D01*
X258239Y65727D01*
X258308Y65657D01*
X258312Y65654D01*
X258315Y65646D01*
X258322Y65636D01*
X258333Y65621D01*
X258348Y65603D01*
X258363Y65577D01*
X258377Y65552D01*
X258395Y65519D01*
X258424Y65446D01*
X258453Y65363D01*
X258472Y65264D01*
X258479Y65213D01*
Y65122D01*
X258475Y65082D01*
X258468Y65035D01*
X258457Y64977D01*
X258439Y64911D01*
X258417Y64846D01*
X258388Y64780D01*
Y64776D01*
X258384Y64773D01*
X258373Y64751D01*
X258351Y64718D01*
X258326Y64682D01*
X258290Y64638D01*
X258250Y64595D01*
X258202Y64551D01*
X258148Y64514D01*
X258140Y64511D01*
X258122Y64500D01*
X258089Y64485D01*
X258049Y64467D01*
X258002Y64449D01*
X257947Y64434D01*
X257886Y64423D01*
X257824Y64420D01*
X257817D01*
X257795D01*
X257766Y64423D01*
X257726Y64431D01*
X257678Y64442D01*
X257627Y64460D01*
X257576Y64482D01*
X257525Y64511D01*
X257518Y64514D01*
X257503Y64525D01*
X257478Y64547D01*
X257449Y64576D01*
X257416Y64613D01*
X257380Y64656D01*
X257347Y64707D01*
X257314Y64769D01*
Y64766D01*
X257311Y64758D01*
X257307Y64747D01*
X257303Y64733D01*
X257289Y64693D01*
X257267Y64642D01*
X257238Y64583D01*
X257201Y64525D01*
X257154Y64471D01*
X257099Y64420D01*
X257092Y64416D01*
X257070Y64402D01*
X257034Y64380D01*
X256986Y64358D01*
X256928Y64336D01*
X256859Y64314D01*
X256779Y64300D01*
X256692Y64296D01*
X256688D01*
X256677D01*
X256659D01*
X256637Y64300D01*
X256608Y64303D01*
X256575Y64310D01*
X256539Y64318D01*
X256499Y64325D01*
X256411Y64354D01*
X256364Y64376D01*
X256320Y64398D01*
X256273Y64427D01*
X256226Y64460D01*
X256178Y64496D01*
X256135Y64540D01*
X256131Y64543D01*
X256124Y64551D01*
X256113Y64565D01*
X256098Y64583D01*
X256080Y64605D01*
X256062Y64635D01*
X256040Y64667D01*
X256022Y64707D01*
X256000Y64747D01*
X255978Y64795D01*
X255960Y64842D01*
X255942Y64897D01*
X255927Y64955D01*
X255916Y65017D01*
X255909Y65079D01*
X255906Y65148D01*
Y65180D01*
X255909Y65202D01*
X255913Y65232D01*
X255916Y65264D01*
X255924Y65301D01*
X255931Y65341D01*
X255953Y65428D01*
X255989Y65519D01*
X256011Y65566D01*
X256036Y65610D01*
X256069Y65654D01*
X256102Y65697D01*
X256106Y65701D01*
X256113Y65708D01*
X256124Y65719D01*
X256138Y65730D01*
X256157Y65748D01*
X256182Y65767D01*
X256208Y65788D01*
X256240Y65810D01*
X256277Y65832D01*
X256313Y65854D01*
X256400Y65894D01*
X256502Y65927D01*
X256557Y65938D01*
X256615Y65945D01*
X256655Y65636D01*
D02*
G37*
G36*
Y63677D02*
X256652D01*
X256644Y63674D01*
X256630Y63670D01*
X256612Y63666D01*
X256590Y63663D01*
X256564Y63655D01*
X256510Y63637D01*
X256444Y63612D01*
X256382Y63579D01*
X256324Y63542D01*
X256273Y63499D01*
X256270Y63491D01*
X256255Y63477D01*
X256237Y63448D01*
X256219Y63411D01*
X256197Y63368D01*
X256178Y63313D01*
X256164Y63251D01*
X256160Y63186D01*
Y63164D01*
X256164Y63149D01*
X256168Y63109D01*
X256178Y63058D01*
X256197Y63000D01*
X256222Y62938D01*
X256259Y62876D01*
X256310Y62818D01*
X256317Y62811D01*
X256339Y62793D01*
X256371Y62771D01*
X256415Y62742D01*
X256470Y62713D01*
X256532Y62691D01*
X256604Y62673D01*
X256684Y62665D01*
X256688D01*
X256695D01*
X256706D01*
X256721Y62669D01*
X256761Y62673D01*
X256808Y62683D01*
X256866Y62698D01*
X256925Y62723D01*
X256983Y62760D01*
X257037Y62807D01*
X257045Y62814D01*
X257059Y62833D01*
X257081Y62862D01*
X257107Y62902D01*
X257132Y62953D01*
X257154Y63015D01*
X257169Y63084D01*
X257176Y63160D01*
Y63193D01*
X257172Y63218D01*
X257169Y63251D01*
X257161Y63288D01*
X257154Y63331D01*
X257143Y63379D01*
X257416Y63342D01*
Y63324D01*
X257412Y63310D01*
Y63262D01*
X257420Y63222D01*
X257427Y63175D01*
X257438Y63120D01*
X257456Y63058D01*
X257482Y63000D01*
X257514Y62938D01*
Y62935D01*
X257518Y62931D01*
X257533Y62913D01*
X257558Y62887D01*
X257591Y62858D01*
X257638Y62829D01*
X257693Y62804D01*
X257755Y62785D01*
X257791Y62778D01*
X257831D01*
X257835D01*
X257838D01*
X257860D01*
X257889Y62785D01*
X257929Y62793D01*
X257973Y62807D01*
X258020Y62825D01*
X258068Y62854D01*
X258111Y62895D01*
X258115Y62898D01*
X258130Y62916D01*
X258148Y62942D01*
X258170Y62975D01*
X258188Y63018D01*
X258206Y63069D01*
X258221Y63127D01*
X258224Y63193D01*
Y63222D01*
X258217Y63255D01*
X258210Y63299D01*
X258195Y63346D01*
X258177Y63393D01*
X258148Y63444D01*
X258111Y63491D01*
X258108Y63495D01*
X258089Y63510D01*
X258064Y63532D01*
X258028Y63557D01*
X257980Y63582D01*
X257922Y63608D01*
X257853Y63630D01*
X257773Y63644D01*
X257827Y63954D01*
X257831D01*
X257842Y63950D01*
X257856Y63946D01*
X257878Y63943D01*
X257904Y63936D01*
X257933Y63925D01*
X258002Y63903D01*
X258082Y63867D01*
X258162Y63823D01*
X258239Y63768D01*
X258308Y63699D01*
X258312Y63695D01*
X258315Y63688D01*
X258322Y63677D01*
X258333Y63663D01*
X258348Y63644D01*
X258363Y63619D01*
X258377Y63594D01*
X258395Y63561D01*
X258424Y63488D01*
X258453Y63404D01*
X258472Y63306D01*
X258479Y63255D01*
Y63164D01*
X258475Y63124D01*
X258468Y63077D01*
X258457Y63018D01*
X258439Y62953D01*
X258417Y62887D01*
X258388Y62822D01*
Y62818D01*
X258384Y62814D01*
X258373Y62793D01*
X258351Y62760D01*
X258326Y62723D01*
X258290Y62680D01*
X258250Y62636D01*
X258202Y62593D01*
X258148Y62556D01*
X258140Y62552D01*
X258122Y62542D01*
X258089Y62527D01*
X258049Y62509D01*
X258002Y62490D01*
X257947Y62476D01*
X257886Y62465D01*
X257824Y62461D01*
X257817D01*
X257795D01*
X257766Y62465D01*
X257726Y62472D01*
X257678Y62483D01*
X257627Y62502D01*
X257576Y62523D01*
X257525Y62552D01*
X257518Y62556D01*
X257503Y62567D01*
X257478Y62589D01*
X257449Y62618D01*
X257416Y62654D01*
X257380Y62698D01*
X257347Y62749D01*
X257314Y62811D01*
Y62807D01*
X257311Y62800D01*
X257307Y62789D01*
X257303Y62774D01*
X257289Y62734D01*
X257267Y62683D01*
X257238Y62625D01*
X257201Y62567D01*
X257154Y62512D01*
X257099Y62461D01*
X257092Y62458D01*
X257070Y62443D01*
X257034Y62421D01*
X256986Y62400D01*
X256928Y62378D01*
X256859Y62356D01*
X256779Y62341D01*
X256692Y62338D01*
X256688D01*
X256677D01*
X256659D01*
X256637Y62341D01*
X256608Y62345D01*
X256575Y62352D01*
X256539Y62359D01*
X256499Y62367D01*
X256411Y62396D01*
X256364Y62418D01*
X256320Y62440D01*
X256273Y62469D01*
X256226Y62502D01*
X256178Y62538D01*
X256135Y62581D01*
X256131Y62585D01*
X256124Y62593D01*
X256113Y62607D01*
X256098Y62625D01*
X256080Y62647D01*
X256062Y62676D01*
X256040Y62709D01*
X256022Y62749D01*
X256000Y62789D01*
X255978Y62836D01*
X255960Y62884D01*
X255942Y62938D01*
X255927Y62997D01*
X255916Y63058D01*
X255909Y63120D01*
X255906Y63189D01*
Y63222D01*
X255909Y63244D01*
X255913Y63273D01*
X255916Y63306D01*
X255924Y63342D01*
X255931Y63382D01*
X255953Y63470D01*
X255989Y63561D01*
X256011Y63608D01*
X256036Y63652D01*
X256069Y63695D01*
X256102Y63739D01*
X256106Y63743D01*
X256113Y63750D01*
X256124Y63761D01*
X256138Y63772D01*
X256157Y63790D01*
X256182Y63808D01*
X256208Y63830D01*
X256240Y63852D01*
X256277Y63874D01*
X256313Y63896D01*
X256400Y63936D01*
X256502Y63968D01*
X256557Y63979D01*
X256615Y63987D01*
X256655Y63677D01*
D02*
G37*
G36*
X257303Y62028D02*
X257347D01*
X257394Y62025D01*
X257449Y62021D01*
X257562Y62010D01*
X257682Y61992D01*
X257802Y61970D01*
X257856Y61955D01*
X257911Y61941D01*
X257915D01*
X257922Y61937D01*
X257937Y61930D01*
X257955Y61923D01*
X257980Y61915D01*
X258006Y61901D01*
X258068Y61872D01*
X258133Y61835D01*
X258202Y61788D01*
X258272Y61733D01*
X258330Y61668D01*
Y61664D01*
X258337Y61661D01*
X258344Y61650D01*
X258351Y61635D01*
X258366Y61617D01*
X258377Y61595D01*
X258406Y61541D01*
X258432Y61475D01*
X258457Y61399D01*
X258472Y61308D01*
X258479Y61209D01*
Y61177D01*
X258475Y61137D01*
X258468Y61089D01*
X258457Y61035D01*
X258442Y60976D01*
X258424Y60914D01*
X258395Y60856D01*
Y60852D01*
X258392Y60849D01*
X258381Y60831D01*
X258363Y60802D01*
X258337Y60765D01*
X258301Y60725D01*
X258260Y60681D01*
X258213Y60641D01*
X258159Y60601D01*
X258151Y60598D01*
X258133Y60583D01*
X258100Y60569D01*
X258053Y60543D01*
X257998Y60521D01*
X257937Y60492D01*
X257864Y60467D01*
X257784Y60445D01*
X257780D01*
X257773Y60441D01*
X257762Y60438D01*
X257744Y60434D01*
X257722Y60430D01*
X257696Y60427D01*
X257664Y60419D01*
X257627Y60416D01*
X257587Y60409D01*
X257543Y60405D01*
X257492Y60401D01*
X257441Y60394D01*
X257383Y60390D01*
X257325D01*
X257259Y60387D01*
X257190D01*
X257187D01*
X257172D01*
X257147D01*
X257118D01*
X257078Y60390D01*
X257034D01*
X256986Y60394D01*
X256936Y60397D01*
X256819Y60409D01*
X256699Y60427D01*
X256582Y60448D01*
X256528Y60463D01*
X256473Y60481D01*
X256470D01*
X256462Y60485D01*
X256448Y60492D01*
X256430Y60500D01*
X256404Y60507D01*
X256379Y60521D01*
X256317Y60550D01*
X256251Y60587D01*
X256178Y60634D01*
X256113Y60689D01*
X256051Y60754D01*
Y60758D01*
X256044Y60761D01*
X256036Y60773D01*
X256029Y60787D01*
X256018Y60805D01*
X256004Y60823D01*
X255978Y60878D01*
X255953Y60944D01*
X255927Y61020D01*
X255913Y61111D01*
X255906Y61209D01*
Y61246D01*
X255909Y61271D01*
X255913Y61300D01*
X255920Y61337D01*
X255927Y61377D01*
X255938Y61420D01*
X255953Y61464D01*
X255967Y61511D01*
X255989Y61559D01*
X256015Y61606D01*
X256044Y61653D01*
X256080Y61701D01*
X256120Y61744D01*
X256164Y61784D01*
X256168Y61788D01*
X256178Y61795D01*
X256197Y61806D01*
X256226Y61824D01*
X256259Y61843D01*
X256302Y61861D01*
X256353Y61886D01*
X256411Y61908D01*
X256477Y61930D01*
X256553Y61952D01*
X256637Y61974D01*
X256732Y61992D01*
X256834Y62010D01*
X256943Y62021D01*
X257063Y62028D01*
X257190Y62032D01*
X257194D01*
X257209D01*
X257234D01*
X257263D01*
X257303Y62028D01*
D02*
G37*
G36*
Y60070D02*
X257347D01*
X257394Y60066D01*
X257449Y60063D01*
X257562Y60052D01*
X257682Y60034D01*
X257802Y60012D01*
X257856Y59997D01*
X257911Y59983D01*
X257915D01*
X257922Y59979D01*
X257937Y59972D01*
X257955Y59964D01*
X257980Y59957D01*
X258006Y59943D01*
X258068Y59913D01*
X258133Y59877D01*
X258202Y59830D01*
X258272Y59775D01*
X258330Y59710D01*
Y59706D01*
X258337Y59702D01*
X258344Y59691D01*
X258351Y59677D01*
X258366Y59659D01*
X258377Y59637D01*
X258406Y59582D01*
X258432Y59517D01*
X258457Y59440D01*
X258472Y59349D01*
X258479Y59251D01*
Y59218D01*
X258475Y59178D01*
X258468Y59131D01*
X258457Y59076D01*
X258442Y59018D01*
X258424Y58956D01*
X258395Y58898D01*
Y58894D01*
X258392Y58891D01*
X258381Y58872D01*
X258363Y58843D01*
X258337Y58807D01*
X258301Y58767D01*
X258260Y58723D01*
X258213Y58683D01*
X258159Y58643D01*
X258151Y58639D01*
X258133Y58625D01*
X258100Y58610D01*
X258053Y58585D01*
X257998Y58563D01*
X257937Y58534D01*
X257864Y58508D01*
X257784Y58486D01*
X257780D01*
X257773Y58483D01*
X257762Y58479D01*
X257744Y58476D01*
X257722Y58472D01*
X257696Y58468D01*
X257664Y58461D01*
X257627Y58457D01*
X257587Y58450D01*
X257543Y58447D01*
X257492Y58443D01*
X257441Y58436D01*
X257383Y58432D01*
X257325D01*
X257259Y58428D01*
X257190D01*
X257187D01*
X257172D01*
X257147D01*
X257118D01*
X257078Y58432D01*
X257034D01*
X256986Y58436D01*
X256936Y58439D01*
X256819Y58450D01*
X256699Y58468D01*
X256582Y58490D01*
X256528Y58505D01*
X256473Y58523D01*
X256470D01*
X256462Y58527D01*
X256448Y58534D01*
X256430Y58541D01*
X256404Y58548D01*
X256379Y58563D01*
X256317Y58592D01*
X256251Y58628D01*
X256178Y58676D01*
X256113Y58730D01*
X256051Y58796D01*
Y58800D01*
X256044Y58803D01*
X256036Y58814D01*
X256029Y58829D01*
X256018Y58847D01*
X256004Y58865D01*
X255978Y58920D01*
X255953Y58985D01*
X255927Y59062D01*
X255913Y59153D01*
X255906Y59251D01*
Y59287D01*
X255909Y59313D01*
X255913Y59342D01*
X255920Y59378D01*
X255927Y59418D01*
X255938Y59462D01*
X255953Y59506D01*
X255967Y59553D01*
X255989Y59600D01*
X256015Y59648D01*
X256044Y59695D01*
X256080Y59742D01*
X256120Y59786D01*
X256164Y59826D01*
X256168Y59830D01*
X256178Y59837D01*
X256197Y59848D01*
X256226Y59866D01*
X256259Y59884D01*
X256302Y59903D01*
X256353Y59928D01*
X256411Y59950D01*
X256477Y59972D01*
X256553Y59993D01*
X256637Y60015D01*
X256732Y60034D01*
X256834Y60052D01*
X256943Y60063D01*
X257063Y60070D01*
X257190Y60074D01*
X257194D01*
X257209D01*
X257234D01*
X257263D01*
X257303Y60070D01*
D02*
G37*
G36*
X257776Y57726D02*
X256761D01*
X256757D01*
X256750D01*
X256739D01*
X256721D01*
X256681D01*
X256630Y57722D01*
X256575D01*
X256521Y57718D01*
X256473Y57715D01*
X256433Y57708D01*
X256430D01*
X256415Y57700D01*
X256393Y57693D01*
X256364Y57682D01*
X256335Y57664D01*
X256302Y57642D01*
X256273Y57617D01*
X256244Y57584D01*
X256240Y57580D01*
X256233Y57566D01*
X256222Y57547D01*
X256211Y57518D01*
X256197Y57486D01*
X256186Y57446D01*
X256178Y57402D01*
X256175Y57351D01*
Y57325D01*
X256178Y57300D01*
X256182Y57267D01*
X256193Y57227D01*
X256204Y57183D01*
X256222Y57136D01*
X256244Y57089D01*
X256248Y57082D01*
X256259Y57067D01*
X256273Y57045D01*
X256295Y57020D01*
X256324Y56990D01*
X256357Y56961D01*
X256393Y56936D01*
X256437Y56914D01*
X256444Y56910D01*
X256459Y56907D01*
X256488Y56899D01*
X256528Y56889D01*
X256579Y56878D01*
X256641Y56870D01*
X256714Y56867D01*
X256797Y56863D01*
X257776D01*
Y56554D01*
X255949D01*
Y56830D01*
X256215D01*
X256211Y56834D01*
X256200Y56841D01*
X256186Y56852D01*
X256168Y56870D01*
X256146Y56892D01*
X256117Y56918D01*
X256091Y56947D01*
X256062Y56983D01*
X256033Y57023D01*
X256007Y57067D01*
X255982Y57114D01*
X255956Y57165D01*
X255938Y57223D01*
X255924Y57282D01*
X255913Y57347D01*
X255909Y57413D01*
Y57438D01*
X255913Y57471D01*
X255916Y57511D01*
X255924Y57558D01*
X255935Y57609D01*
X255949Y57660D01*
X255971Y57715D01*
X255975Y57722D01*
X255982Y57737D01*
X255996Y57762D01*
X256015Y57791D01*
X256036Y57828D01*
X256062Y57860D01*
X256091Y57893D01*
X256124Y57922D01*
X256128Y57926D01*
X256142Y57933D01*
X256160Y57944D01*
X256189Y57959D01*
X256222Y57977D01*
X256262Y57991D01*
X256306Y58006D01*
X256353Y58017D01*
X256357D01*
X256371Y58021D01*
X256393Y58024D01*
X256422D01*
X256466Y58028D01*
X256513Y58031D01*
X256575Y58035D01*
X256644D01*
X257776D01*
Y57726D01*
D02*
G37*
G36*
X258468Y54312D02*
X258170D01*
Y55680D01*
X257391D01*
Y54497D01*
X257092D01*
Y55680D01*
X255949D01*
Y56015D01*
X258468D01*
Y54312D01*
D02*
G37*
G36*
X179884Y65636D02*
X179880D01*
X179873Y65632D01*
X179858Y65628D01*
X179840Y65625D01*
X179818Y65621D01*
X179793Y65614D01*
X179738Y65596D01*
X179673Y65570D01*
X179611Y65537D01*
X179552Y65501D01*
X179501Y65457D01*
X179498Y65450D01*
X179483Y65435D01*
X179465Y65406D01*
X179447Y65370D01*
X179425Y65326D01*
X179407Y65272D01*
X179392Y65210D01*
X179389Y65144D01*
Y65122D01*
X179392Y65108D01*
X179396Y65068D01*
X179407Y65017D01*
X179425Y64959D01*
X179451Y64897D01*
X179487Y64835D01*
X179538Y64776D01*
X179545Y64769D01*
X179567Y64751D01*
X179600Y64729D01*
X179643Y64700D01*
X179698Y64671D01*
X179760Y64649D01*
X179833Y64631D01*
X179913Y64624D01*
X179916D01*
X179924D01*
X179935D01*
X179949Y64627D01*
X179989Y64631D01*
X180036Y64642D01*
X180095Y64656D01*
X180153Y64682D01*
X180211Y64718D01*
X180266Y64766D01*
X180273Y64773D01*
X180288Y64791D01*
X180309Y64820D01*
X180335Y64860D01*
X180360Y64911D01*
X180382Y64973D01*
X180397Y65042D01*
X180404Y65119D01*
Y65151D01*
X180401Y65177D01*
X180397Y65210D01*
X180390Y65246D01*
X180382Y65290D01*
X180371Y65337D01*
X180644Y65301D01*
Y65282D01*
X180641Y65268D01*
Y65221D01*
X180648Y65180D01*
X180655Y65133D01*
X180666Y65079D01*
X180684Y65017D01*
X180710Y64959D01*
X180743Y64897D01*
Y64893D01*
X180746Y64889D01*
X180761Y64871D01*
X180786Y64846D01*
X180819Y64816D01*
X180866Y64787D01*
X180921Y64762D01*
X180983Y64744D01*
X181019Y64736D01*
X181059D01*
X181063D01*
X181067D01*
X181088D01*
X181118Y64744D01*
X181158Y64751D01*
X181201Y64766D01*
X181249Y64784D01*
X181296Y64813D01*
X181340Y64853D01*
X181343Y64857D01*
X181358Y64875D01*
X181376Y64900D01*
X181398Y64933D01*
X181416Y64977D01*
X181434Y65028D01*
X181449Y65086D01*
X181453Y65151D01*
Y65180D01*
X181445Y65213D01*
X181438Y65257D01*
X181423Y65304D01*
X181405Y65352D01*
X181376Y65403D01*
X181340Y65450D01*
X181336Y65453D01*
X181318Y65468D01*
X181292Y65490D01*
X181256Y65515D01*
X181209Y65541D01*
X181150Y65566D01*
X181081Y65588D01*
X181001Y65603D01*
X181056Y65912D01*
X181059D01*
X181070Y65908D01*
X181085Y65905D01*
X181107Y65901D01*
X181132Y65894D01*
X181161Y65883D01*
X181230Y65861D01*
X181310Y65825D01*
X181391Y65781D01*
X181467Y65727D01*
X181536Y65657D01*
X181540Y65654D01*
X181544Y65646D01*
X181551Y65636D01*
X181562Y65621D01*
X181576Y65603D01*
X181591Y65577D01*
X181605Y65552D01*
X181624Y65519D01*
X181653Y65446D01*
X181682Y65363D01*
X181700Y65264D01*
X181707Y65213D01*
Y65122D01*
X181704Y65082D01*
X181696Y65035D01*
X181685Y64977D01*
X181667Y64911D01*
X181645Y64846D01*
X181616Y64780D01*
Y64776D01*
X181613Y64773D01*
X181602Y64751D01*
X181580Y64718D01*
X181554Y64682D01*
X181518Y64638D01*
X181478Y64595D01*
X181431Y64551D01*
X181376Y64514D01*
X181369Y64511D01*
X181351Y64500D01*
X181318Y64485D01*
X181278Y64467D01*
X181230Y64449D01*
X181176Y64434D01*
X181114Y64423D01*
X181052Y64420D01*
X181045D01*
X181023D01*
X180994Y64423D01*
X180954Y64431D01*
X180906Y64442D01*
X180856Y64460D01*
X180805Y64482D01*
X180754Y64511D01*
X180746Y64514D01*
X180732Y64525D01*
X180706Y64547D01*
X180677Y64576D01*
X180644Y64613D01*
X180608Y64656D01*
X180575Y64707D01*
X180543Y64769D01*
Y64766D01*
X180539Y64758D01*
X180535Y64747D01*
X180532Y64733D01*
X180517Y64693D01*
X180495Y64642D01*
X180466Y64584D01*
X180430Y64525D01*
X180382Y64471D01*
X180328Y64420D01*
X180320Y64416D01*
X180299Y64402D01*
X180262Y64380D01*
X180215Y64358D01*
X180157Y64336D01*
X180087Y64314D01*
X180007Y64300D01*
X179920Y64296D01*
X179916D01*
X179905D01*
X179887D01*
X179865Y64300D01*
X179836Y64303D01*
X179804Y64311D01*
X179767Y64318D01*
X179727Y64325D01*
X179640Y64354D01*
X179592Y64376D01*
X179549Y64398D01*
X179501Y64427D01*
X179454Y64460D01*
X179407Y64496D01*
X179363Y64540D01*
X179359Y64543D01*
X179352Y64551D01*
X179341Y64565D01*
X179327Y64584D01*
X179308Y64605D01*
X179290Y64635D01*
X179269Y64667D01*
X179250Y64707D01*
X179228Y64747D01*
X179207Y64795D01*
X179188Y64842D01*
X179170Y64897D01*
X179156Y64955D01*
X179145Y65017D01*
X179137Y65079D01*
X179134Y65148D01*
Y65180D01*
X179137Y65202D01*
X179141Y65232D01*
X179145Y65264D01*
X179152Y65301D01*
X179159Y65341D01*
X179181Y65428D01*
X179218Y65519D01*
X179239Y65566D01*
X179265Y65610D01*
X179298Y65654D01*
X179330Y65697D01*
X179334Y65701D01*
X179341Y65708D01*
X179352Y65719D01*
X179367Y65730D01*
X179385Y65748D01*
X179410Y65767D01*
X179436Y65788D01*
X179469Y65810D01*
X179505Y65832D01*
X179542Y65854D01*
X179629Y65894D01*
X179731Y65927D01*
X179785Y65938D01*
X179844Y65945D01*
X179884Y65636D01*
D02*
G37*
G36*
Y63677D02*
X179880D01*
X179873Y63674D01*
X179858Y63670D01*
X179840Y63666D01*
X179818Y63663D01*
X179793Y63655D01*
X179738Y63637D01*
X179673Y63612D01*
X179611Y63579D01*
X179552Y63542D01*
X179501Y63499D01*
X179498Y63491D01*
X179483Y63477D01*
X179465Y63448D01*
X179447Y63411D01*
X179425Y63368D01*
X179407Y63313D01*
X179392Y63251D01*
X179389Y63186D01*
Y63164D01*
X179392Y63149D01*
X179396Y63109D01*
X179407Y63058D01*
X179425Y63000D01*
X179451Y62938D01*
X179487Y62876D01*
X179538Y62818D01*
X179545Y62811D01*
X179567Y62793D01*
X179600Y62771D01*
X179643Y62742D01*
X179698Y62713D01*
X179760Y62691D01*
X179833Y62673D01*
X179913Y62665D01*
X179916D01*
X179924D01*
X179935D01*
X179949Y62669D01*
X179989Y62673D01*
X180036Y62683D01*
X180095Y62698D01*
X180153Y62723D01*
X180211Y62760D01*
X180266Y62807D01*
X180273Y62814D01*
X180288Y62833D01*
X180309Y62862D01*
X180335Y62902D01*
X180360Y62953D01*
X180382Y63015D01*
X180397Y63084D01*
X180404Y63160D01*
Y63193D01*
X180401Y63219D01*
X180397Y63251D01*
X180390Y63288D01*
X180382Y63331D01*
X180371Y63379D01*
X180644Y63342D01*
Y63324D01*
X180641Y63310D01*
Y63262D01*
X180648Y63222D01*
X180655Y63175D01*
X180666Y63120D01*
X180684Y63058D01*
X180710Y63000D01*
X180743Y62938D01*
Y62935D01*
X180746Y62931D01*
X180761Y62913D01*
X180786Y62887D01*
X180819Y62858D01*
X180866Y62829D01*
X180921Y62804D01*
X180983Y62785D01*
X181019Y62778D01*
X181059D01*
X181063D01*
X181067D01*
X181088D01*
X181118Y62785D01*
X181158Y62793D01*
X181201Y62807D01*
X181249Y62825D01*
X181296Y62854D01*
X181340Y62895D01*
X181343Y62898D01*
X181358Y62916D01*
X181376Y62942D01*
X181398Y62975D01*
X181416Y63018D01*
X181434Y63069D01*
X181449Y63127D01*
X181453Y63193D01*
Y63222D01*
X181445Y63255D01*
X181438Y63299D01*
X181423Y63346D01*
X181405Y63393D01*
X181376Y63444D01*
X181340Y63491D01*
X181336Y63495D01*
X181318Y63510D01*
X181292Y63532D01*
X181256Y63557D01*
X181209Y63583D01*
X181150Y63608D01*
X181081Y63630D01*
X181001Y63644D01*
X181056Y63954D01*
X181059D01*
X181070Y63950D01*
X181085Y63947D01*
X181107Y63943D01*
X181132Y63936D01*
X181161Y63925D01*
X181230Y63903D01*
X181310Y63867D01*
X181391Y63823D01*
X181467Y63768D01*
X181536Y63699D01*
X181540Y63695D01*
X181544Y63688D01*
X181551Y63677D01*
X181562Y63663D01*
X181576Y63644D01*
X181591Y63619D01*
X181605Y63594D01*
X181624Y63561D01*
X181653Y63488D01*
X181682Y63404D01*
X181700Y63306D01*
X181707Y63255D01*
Y63164D01*
X181704Y63124D01*
X181696Y63077D01*
X181685Y63018D01*
X181667Y62953D01*
X181645Y62887D01*
X181616Y62822D01*
Y62818D01*
X181613Y62814D01*
X181602Y62793D01*
X181580Y62760D01*
X181554Y62723D01*
X181518Y62680D01*
X181478Y62636D01*
X181431Y62593D01*
X181376Y62556D01*
X181369Y62552D01*
X181351Y62542D01*
X181318Y62527D01*
X181278Y62509D01*
X181230Y62490D01*
X181176Y62476D01*
X181114Y62465D01*
X181052Y62461D01*
X181045D01*
X181023D01*
X180994Y62465D01*
X180954Y62472D01*
X180906Y62483D01*
X180856Y62502D01*
X180805Y62523D01*
X180754Y62552D01*
X180746Y62556D01*
X180732Y62567D01*
X180706Y62589D01*
X180677Y62618D01*
X180644Y62654D01*
X180608Y62698D01*
X180575Y62749D01*
X180543Y62811D01*
Y62807D01*
X180539Y62800D01*
X180535Y62789D01*
X180532Y62774D01*
X180517Y62734D01*
X180495Y62683D01*
X180466Y62625D01*
X180430Y62567D01*
X180382Y62512D01*
X180328Y62461D01*
X180320Y62458D01*
X180299Y62443D01*
X180262Y62421D01*
X180215Y62400D01*
X180157Y62378D01*
X180087Y62356D01*
X180007Y62341D01*
X179920Y62338D01*
X179916D01*
X179905D01*
X179887D01*
X179865Y62341D01*
X179836Y62345D01*
X179804Y62352D01*
X179767Y62359D01*
X179727Y62367D01*
X179640Y62396D01*
X179592Y62418D01*
X179549Y62440D01*
X179501Y62469D01*
X179454Y62502D01*
X179407Y62538D01*
X179363Y62582D01*
X179359Y62585D01*
X179352Y62593D01*
X179341Y62607D01*
X179327Y62625D01*
X179308Y62647D01*
X179290Y62676D01*
X179269Y62709D01*
X179250Y62749D01*
X179228Y62789D01*
X179207Y62836D01*
X179188Y62884D01*
X179170Y62938D01*
X179156Y62997D01*
X179145Y63058D01*
X179137Y63120D01*
X179134Y63189D01*
Y63222D01*
X179137Y63244D01*
X179141Y63273D01*
X179145Y63306D01*
X179152Y63342D01*
X179159Y63382D01*
X179181Y63470D01*
X179218Y63561D01*
X179239Y63608D01*
X179265Y63652D01*
X179298Y63695D01*
X179330Y63739D01*
X179334Y63743D01*
X179341Y63750D01*
X179352Y63761D01*
X179367Y63772D01*
X179385Y63790D01*
X179410Y63808D01*
X179436Y63830D01*
X179469Y63852D01*
X179505Y63874D01*
X179542Y63896D01*
X179629Y63936D01*
X179731Y63968D01*
X179785Y63979D01*
X179844Y63987D01*
X179884Y63677D01*
D02*
G37*
G36*
X180532Y62028D02*
X180575D01*
X180623Y62025D01*
X180677Y62021D01*
X180790Y62010D01*
X180910Y61992D01*
X181030Y61970D01*
X181085Y61955D01*
X181139Y61941D01*
X181143D01*
X181150Y61937D01*
X181165Y61930D01*
X181183Y61923D01*
X181209Y61915D01*
X181234Y61901D01*
X181296Y61872D01*
X181361Y61835D01*
X181431Y61788D01*
X181500Y61733D01*
X181558Y61668D01*
Y61664D01*
X181565Y61661D01*
X181573Y61650D01*
X181580Y61635D01*
X181594Y61617D01*
X181605Y61595D01*
X181634Y61541D01*
X181660Y61475D01*
X181685Y61399D01*
X181700Y61308D01*
X181707Y61209D01*
Y61177D01*
X181704Y61137D01*
X181696Y61089D01*
X181685Y61035D01*
X181671Y60976D01*
X181653Y60914D01*
X181624Y60856D01*
Y60852D01*
X181620Y60849D01*
X181609Y60831D01*
X181591Y60802D01*
X181565Y60765D01*
X181529Y60725D01*
X181489Y60681D01*
X181442Y60641D01*
X181387Y60601D01*
X181380Y60598D01*
X181361Y60583D01*
X181329Y60569D01*
X181281Y60543D01*
X181227Y60521D01*
X181165Y60492D01*
X181092Y60467D01*
X181012Y60445D01*
X181008D01*
X181001Y60441D01*
X180990Y60438D01*
X180972Y60434D01*
X180950Y60430D01*
X180925Y60427D01*
X180892Y60419D01*
X180856Y60416D01*
X180815Y60409D01*
X180772Y60405D01*
X180721Y60401D01*
X180670Y60394D01*
X180612Y60390D01*
X180553D01*
X180488Y60387D01*
X180419D01*
X180415D01*
X180401D01*
X180375D01*
X180346D01*
X180306Y60390D01*
X180262D01*
X180215Y60394D01*
X180164Y60398D01*
X180047Y60409D01*
X179927Y60427D01*
X179811Y60448D01*
X179756Y60463D01*
X179702Y60481D01*
X179698D01*
X179691Y60485D01*
X179676Y60492D01*
X179658Y60500D01*
X179632Y60507D01*
X179607Y60521D01*
X179545Y60550D01*
X179480Y60587D01*
X179407Y60634D01*
X179341Y60689D01*
X179279Y60754D01*
Y60758D01*
X179272Y60761D01*
X179265Y60773D01*
X179258Y60787D01*
X179247Y60805D01*
X179232Y60823D01*
X179207Y60878D01*
X179181Y60944D01*
X179156Y61020D01*
X179141Y61111D01*
X179134Y61209D01*
Y61246D01*
X179137Y61271D01*
X179141Y61300D01*
X179148Y61337D01*
X179156Y61377D01*
X179167Y61420D01*
X179181Y61464D01*
X179196Y61511D01*
X179218Y61559D01*
X179243Y61606D01*
X179272Y61653D01*
X179308Y61701D01*
X179349Y61744D01*
X179392Y61784D01*
X179396Y61788D01*
X179407Y61795D01*
X179425Y61806D01*
X179454Y61824D01*
X179487Y61843D01*
X179531Y61861D01*
X179581Y61886D01*
X179640Y61908D01*
X179705Y61930D01*
X179782Y61952D01*
X179865Y61974D01*
X179960Y61992D01*
X180062Y62010D01*
X180171Y62021D01*
X180291Y62028D01*
X180419Y62032D01*
X180422D01*
X180437D01*
X180462D01*
X180491D01*
X180532Y62028D01*
D02*
G37*
G36*
Y60070D02*
X180575D01*
X180623Y60066D01*
X180677Y60063D01*
X180790Y60052D01*
X180910Y60034D01*
X181030Y60012D01*
X181085Y59997D01*
X181139Y59983D01*
X181143D01*
X181150Y59979D01*
X181165Y59972D01*
X181183Y59964D01*
X181209Y59957D01*
X181234Y59943D01*
X181296Y59913D01*
X181361Y59877D01*
X181431Y59830D01*
X181500Y59775D01*
X181558Y59710D01*
Y59706D01*
X181565Y59702D01*
X181573Y59691D01*
X181580Y59677D01*
X181594Y59659D01*
X181605Y59637D01*
X181634Y59582D01*
X181660Y59517D01*
X181685Y59440D01*
X181700Y59349D01*
X181707Y59251D01*
Y59218D01*
X181704Y59178D01*
X181696Y59131D01*
X181685Y59076D01*
X181671Y59018D01*
X181653Y58956D01*
X181624Y58898D01*
Y58894D01*
X181620Y58891D01*
X181609Y58872D01*
X181591Y58843D01*
X181565Y58807D01*
X181529Y58767D01*
X181489Y58723D01*
X181442Y58683D01*
X181387Y58643D01*
X181380Y58639D01*
X181361Y58625D01*
X181329Y58610D01*
X181281Y58585D01*
X181227Y58563D01*
X181165Y58534D01*
X181092Y58508D01*
X181012Y58486D01*
X181008D01*
X181001Y58483D01*
X180990Y58479D01*
X180972Y58476D01*
X180950Y58472D01*
X180925Y58468D01*
X180892Y58461D01*
X180856Y58457D01*
X180815Y58450D01*
X180772Y58447D01*
X180721Y58443D01*
X180670Y58436D01*
X180612Y58432D01*
X180553D01*
X180488Y58428D01*
X180419D01*
X180415D01*
X180401D01*
X180375D01*
X180346D01*
X180306Y58432D01*
X180262D01*
X180215Y58436D01*
X180164Y58439D01*
X180047Y58450D01*
X179927Y58468D01*
X179811Y58490D01*
X179756Y58505D01*
X179702Y58523D01*
X179698D01*
X179691Y58527D01*
X179676Y58534D01*
X179658Y58541D01*
X179632Y58548D01*
X179607Y58563D01*
X179545Y58592D01*
X179480Y58628D01*
X179407Y58676D01*
X179341Y58730D01*
X179279Y58796D01*
Y58800D01*
X179272Y58803D01*
X179265Y58814D01*
X179258Y58829D01*
X179247Y58847D01*
X179232Y58865D01*
X179207Y58920D01*
X179181Y58985D01*
X179156Y59062D01*
X179141Y59153D01*
X179134Y59251D01*
Y59287D01*
X179137Y59313D01*
X179141Y59342D01*
X179148Y59378D01*
X179156Y59418D01*
X179167Y59462D01*
X179181Y59506D01*
X179196Y59553D01*
X179218Y59600D01*
X179243Y59648D01*
X179272Y59695D01*
X179308Y59742D01*
X179349Y59786D01*
X179392Y59826D01*
X179396Y59830D01*
X179407Y59837D01*
X179425Y59848D01*
X179454Y59866D01*
X179487Y59884D01*
X179531Y59903D01*
X179581Y59928D01*
X179640Y59950D01*
X179705Y59972D01*
X179782Y59993D01*
X179865Y60015D01*
X179960Y60034D01*
X180062Y60052D01*
X180171Y60063D01*
X180291Y60070D01*
X180419Y60074D01*
X180422D01*
X180437D01*
X180462D01*
X180491D01*
X180532Y60070D01*
D02*
G37*
G36*
X181005Y57726D02*
X179989D01*
X179986D01*
X179978D01*
X179967D01*
X179949D01*
X179909D01*
X179858Y57722D01*
X179804D01*
X179749Y57718D01*
X179702Y57715D01*
X179662Y57708D01*
X179658D01*
X179643Y57700D01*
X179622Y57693D01*
X179592Y57682D01*
X179563Y57664D01*
X179531Y57642D01*
X179501Y57617D01*
X179472Y57584D01*
X179469Y57580D01*
X179461Y57566D01*
X179451Y57547D01*
X179440Y57518D01*
X179425Y57486D01*
X179414Y57446D01*
X179407Y57402D01*
X179403Y57351D01*
Y57325D01*
X179407Y57300D01*
X179410Y57267D01*
X179421Y57227D01*
X179432Y57183D01*
X179451Y57136D01*
X179472Y57089D01*
X179476Y57082D01*
X179487Y57067D01*
X179501Y57045D01*
X179523Y57020D01*
X179552Y56990D01*
X179585Y56961D01*
X179622Y56936D01*
X179665Y56914D01*
X179673Y56910D01*
X179687Y56907D01*
X179716Y56899D01*
X179756Y56889D01*
X179807Y56878D01*
X179869Y56870D01*
X179942Y56867D01*
X180026Y56863D01*
X181005D01*
Y56554D01*
X179177D01*
Y56830D01*
X179443D01*
X179440Y56834D01*
X179429Y56841D01*
X179414Y56852D01*
X179396Y56870D01*
X179374Y56892D01*
X179345Y56918D01*
X179319Y56947D01*
X179290Y56983D01*
X179261Y57023D01*
X179236Y57067D01*
X179210Y57114D01*
X179185Y57165D01*
X179167Y57223D01*
X179152Y57282D01*
X179141Y57347D01*
X179137Y57413D01*
Y57438D01*
X179141Y57471D01*
X179145Y57511D01*
X179152Y57558D01*
X179163Y57609D01*
X179177Y57660D01*
X179199Y57715D01*
X179203Y57722D01*
X179210Y57737D01*
X179225Y57762D01*
X179243Y57791D01*
X179265Y57828D01*
X179290Y57860D01*
X179319Y57893D01*
X179352Y57922D01*
X179356Y57926D01*
X179370Y57933D01*
X179389Y57944D01*
X179418Y57959D01*
X179451Y57977D01*
X179490Y57991D01*
X179534Y58006D01*
X179581Y58017D01*
X179585D01*
X179600Y58021D01*
X179622Y58024D01*
X179651D01*
X179694Y58028D01*
X179742Y58032D01*
X179804Y58035D01*
X179873D01*
X181005D01*
Y57726D01*
D02*
G37*
G36*
X181696Y54312D02*
X181398D01*
Y55680D01*
X180619D01*
Y54497D01*
X180320D01*
Y55680D01*
X179177D01*
Y56015D01*
X181696D01*
Y54312D01*
D02*
G37*
G36*
X103112Y141423D02*
X103108D01*
X103101Y141419D01*
X103086Y141416D01*
X103068Y141412D01*
X103047Y141408D01*
X103021Y141401D01*
X102966Y141383D01*
X102901Y141357D01*
X102839Y141325D01*
X102781Y141288D01*
X102730Y141245D01*
X102726Y141237D01*
X102712Y141223D01*
X102693Y141194D01*
X102675Y141157D01*
X102653Y141113D01*
X102635Y141059D01*
X102621Y140997D01*
X102617Y140931D01*
Y140910D01*
X102621Y140895D01*
X102624Y140855D01*
X102635Y140804D01*
X102653Y140746D01*
X102679Y140684D01*
X102715Y140622D01*
X102766Y140564D01*
X102773Y140557D01*
X102795Y140538D01*
X102828Y140517D01*
X102872Y140487D01*
X102926Y140458D01*
X102988Y140436D01*
X103061Y140418D01*
X103141Y140411D01*
X103145D01*
X103152D01*
X103163D01*
X103177Y140415D01*
X103217Y140418D01*
X103265Y140429D01*
X103323Y140444D01*
X103381Y140469D01*
X103440Y140506D01*
X103494Y140553D01*
X103501Y140560D01*
X103516Y140578D01*
X103538Y140608D01*
X103563Y140648D01*
X103589Y140699D01*
X103611Y140760D01*
X103625Y140830D01*
X103632Y140906D01*
Y140939D01*
X103629Y140964D01*
X103625Y140997D01*
X103618Y141033D01*
X103611Y141077D01*
X103600Y141124D01*
X103873Y141088D01*
Y141070D01*
X103869Y141055D01*
Y141008D01*
X103876Y140968D01*
X103884Y140921D01*
X103895Y140866D01*
X103913Y140804D01*
X103938Y140746D01*
X103971Y140684D01*
Y140680D01*
X103975Y140677D01*
X103989Y140658D01*
X104015Y140633D01*
X104048Y140604D01*
X104095Y140575D01*
X104149Y140549D01*
X104211Y140531D01*
X104248Y140524D01*
X104288D01*
X104291D01*
X104295D01*
X104317D01*
X104346Y140531D01*
X104386Y140538D01*
X104430Y140553D01*
X104477Y140571D01*
X104524Y140600D01*
X104568Y140640D01*
X104572Y140644D01*
X104586Y140662D01*
X104604Y140688D01*
X104626Y140720D01*
X104644Y140764D01*
X104663Y140815D01*
X104677Y140873D01*
X104681Y140939D01*
Y140968D01*
X104674Y141001D01*
X104666Y141044D01*
X104652Y141092D01*
X104633Y141139D01*
X104604Y141190D01*
X104568Y141237D01*
X104564Y141241D01*
X104546Y141255D01*
X104521Y141277D01*
X104484Y141303D01*
X104437Y141328D01*
X104379Y141354D01*
X104309Y141376D01*
X104229Y141390D01*
X104284Y141700D01*
X104288D01*
X104299Y141696D01*
X104313Y141692D01*
X104335Y141689D01*
X104360Y141681D01*
X104390Y141670D01*
X104459Y141649D01*
X104539Y141612D01*
X104619Y141569D01*
X104695Y141514D01*
X104764Y141445D01*
X104768Y141441D01*
X104772Y141434D01*
X104779Y141423D01*
X104790Y141408D01*
X104805Y141390D01*
X104819Y141365D01*
X104834Y141339D01*
X104852Y141306D01*
X104881Y141234D01*
X104910Y141150D01*
X104928Y141052D01*
X104936Y141001D01*
Y140910D01*
X104932Y140870D01*
X104925Y140822D01*
X104914Y140764D01*
X104896Y140699D01*
X104874Y140633D01*
X104845Y140568D01*
Y140564D01*
X104841Y140560D01*
X104830Y140538D01*
X104808Y140506D01*
X104783Y140469D01*
X104746Y140426D01*
X104706Y140382D01*
X104659Y140338D01*
X104604Y140302D01*
X104597Y140298D01*
X104579Y140287D01*
X104546Y140273D01*
X104506Y140254D01*
X104459Y140236D01*
X104404Y140222D01*
X104342Y140211D01*
X104280Y140207D01*
X104273D01*
X104251D01*
X104222Y140211D01*
X104182Y140218D01*
X104135Y140229D01*
X104084Y140247D01*
X104033Y140269D01*
X103982Y140298D01*
X103975Y140302D01*
X103960Y140313D01*
X103935Y140334D01*
X103905Y140364D01*
X103873Y140400D01*
X103836Y140444D01*
X103804Y140495D01*
X103771Y140557D01*
Y140553D01*
X103767Y140546D01*
X103763Y140535D01*
X103760Y140520D01*
X103745Y140480D01*
X103724Y140429D01*
X103694Y140371D01*
X103658Y140313D01*
X103611Y140258D01*
X103556Y140207D01*
X103549Y140203D01*
X103527Y140189D01*
X103490Y140167D01*
X103443Y140145D01*
X103385Y140123D01*
X103316Y140102D01*
X103236Y140087D01*
X103148Y140083D01*
X103145D01*
X103134D01*
X103116D01*
X103094Y140087D01*
X103065Y140091D01*
X103032Y140098D01*
X102996Y140105D01*
X102955Y140112D01*
X102868Y140142D01*
X102821Y140164D01*
X102777Y140185D01*
X102730Y140214D01*
X102682Y140247D01*
X102635Y140284D01*
X102592Y140327D01*
X102588Y140331D01*
X102580Y140338D01*
X102570Y140353D01*
X102555Y140371D01*
X102537Y140393D01*
X102519Y140422D01*
X102497Y140455D01*
X102479Y140495D01*
X102457Y140535D01*
X102435Y140582D01*
X102417Y140629D01*
X102399Y140684D01*
X102384Y140742D01*
X102373Y140804D01*
X102366Y140866D01*
X102362Y140935D01*
Y140968D01*
X102366Y140990D01*
X102369Y141019D01*
X102373Y141052D01*
X102380Y141088D01*
X102388Y141128D01*
X102410Y141215D01*
X102446Y141306D01*
X102468Y141354D01*
X102493Y141397D01*
X102526Y141441D01*
X102559Y141485D01*
X102562Y141488D01*
X102570Y141496D01*
X102580Y141507D01*
X102595Y141518D01*
X102613Y141536D01*
X102639Y141554D01*
X102664Y141576D01*
X102697Y141598D01*
X102733Y141620D01*
X102770Y141641D01*
X102857Y141681D01*
X102959Y141714D01*
X103014Y141725D01*
X103072Y141732D01*
X103112Y141423D01*
D02*
G37*
G36*
Y139465D02*
X103108D01*
X103101Y139461D01*
X103086Y139457D01*
X103068Y139454D01*
X103047Y139450D01*
X103021Y139443D01*
X102966Y139425D01*
X102901Y139399D01*
X102839Y139366D01*
X102781Y139330D01*
X102730Y139286D01*
X102726Y139279D01*
X102712Y139264D01*
X102693Y139235D01*
X102675Y139199D01*
X102653Y139155D01*
X102635Y139101D01*
X102621Y139039D01*
X102617Y138973D01*
Y138951D01*
X102621Y138937D01*
X102624Y138897D01*
X102635Y138846D01*
X102653Y138788D01*
X102679Y138726D01*
X102715Y138664D01*
X102766Y138605D01*
X102773Y138598D01*
X102795Y138580D01*
X102828Y138558D01*
X102872Y138529D01*
X102926Y138500D01*
X102988Y138478D01*
X103061Y138460D01*
X103141Y138453D01*
X103145D01*
X103152D01*
X103163D01*
X103177Y138456D01*
X103217Y138460D01*
X103265Y138471D01*
X103323Y138485D01*
X103381Y138511D01*
X103440Y138547D01*
X103494Y138595D01*
X103501Y138602D01*
X103516Y138620D01*
X103538Y138649D01*
X103563Y138689D01*
X103589Y138740D01*
X103611Y138802D01*
X103625Y138871D01*
X103632Y138948D01*
Y138980D01*
X103629Y139006D01*
X103625Y139039D01*
X103618Y139075D01*
X103611Y139119D01*
X103600Y139166D01*
X103873Y139130D01*
Y139111D01*
X103869Y139097D01*
Y139050D01*
X103876Y139010D01*
X103884Y138962D01*
X103895Y138908D01*
X103913Y138846D01*
X103938Y138788D01*
X103971Y138726D01*
Y138722D01*
X103975Y138718D01*
X103989Y138700D01*
X104015Y138675D01*
X104048Y138646D01*
X104095Y138617D01*
X104149Y138591D01*
X104211Y138573D01*
X104248Y138566D01*
X104288D01*
X104291D01*
X104295D01*
X104317D01*
X104346Y138573D01*
X104386Y138580D01*
X104430Y138595D01*
X104477Y138613D01*
X104524Y138642D01*
X104568Y138682D01*
X104572Y138686D01*
X104586Y138704D01*
X104604Y138729D01*
X104626Y138762D01*
X104644Y138806D01*
X104663Y138857D01*
X104677Y138915D01*
X104681Y138980D01*
Y139010D01*
X104674Y139042D01*
X104666Y139086D01*
X104652Y139133D01*
X104633Y139181D01*
X104604Y139232D01*
X104568Y139279D01*
X104564Y139283D01*
X104546Y139297D01*
X104521Y139319D01*
X104484Y139345D01*
X104437Y139370D01*
X104379Y139395D01*
X104309Y139417D01*
X104229Y139432D01*
X104284Y139741D01*
X104288D01*
X104299Y139738D01*
X104313Y139734D01*
X104335Y139730D01*
X104360Y139723D01*
X104390Y139712D01*
X104459Y139690D01*
X104539Y139654D01*
X104619Y139610D01*
X104695Y139556D01*
X104764Y139486D01*
X104768Y139483D01*
X104772Y139476D01*
X104779Y139465D01*
X104790Y139450D01*
X104805Y139432D01*
X104819Y139406D01*
X104834Y139381D01*
X104852Y139348D01*
X104881Y139275D01*
X104910Y139192D01*
X104928Y139093D01*
X104936Y139042D01*
Y138951D01*
X104932Y138911D01*
X104925Y138864D01*
X104914Y138806D01*
X104896Y138740D01*
X104874Y138675D01*
X104845Y138609D01*
Y138605D01*
X104841Y138602D01*
X104830Y138580D01*
X104808Y138547D01*
X104783Y138511D01*
X104746Y138467D01*
X104706Y138424D01*
X104659Y138380D01*
X104604Y138344D01*
X104597Y138340D01*
X104579Y138329D01*
X104546Y138314D01*
X104506Y138296D01*
X104459Y138278D01*
X104404Y138263D01*
X104342Y138252D01*
X104280Y138249D01*
X104273D01*
X104251D01*
X104222Y138252D01*
X104182Y138260D01*
X104135Y138271D01*
X104084Y138289D01*
X104033Y138311D01*
X103982Y138340D01*
X103975Y138344D01*
X103960Y138354D01*
X103935Y138376D01*
X103905Y138405D01*
X103873Y138442D01*
X103836Y138485D01*
X103804Y138536D01*
X103771Y138598D01*
Y138595D01*
X103767Y138587D01*
X103763Y138576D01*
X103760Y138562D01*
X103745Y138522D01*
X103724Y138471D01*
X103694Y138413D01*
X103658Y138354D01*
X103611Y138300D01*
X103556Y138249D01*
X103549Y138245D01*
X103527Y138231D01*
X103490Y138209D01*
X103443Y138187D01*
X103385Y138165D01*
X103316Y138143D01*
X103236Y138129D01*
X103148Y138125D01*
X103145D01*
X103134D01*
X103116D01*
X103094Y138129D01*
X103065Y138132D01*
X103032Y138140D01*
X102996Y138147D01*
X102955Y138154D01*
X102868Y138183D01*
X102821Y138205D01*
X102777Y138227D01*
X102730Y138256D01*
X102682Y138289D01*
X102635Y138325D01*
X102592Y138369D01*
X102588Y138373D01*
X102580Y138380D01*
X102570Y138394D01*
X102555Y138413D01*
X102537Y138435D01*
X102519Y138464D01*
X102497Y138496D01*
X102479Y138536D01*
X102457Y138576D01*
X102435Y138624D01*
X102417Y138671D01*
X102399Y138726D01*
X102384Y138784D01*
X102373Y138846D01*
X102366Y138908D01*
X102362Y138977D01*
Y139010D01*
X102366Y139031D01*
X102369Y139060D01*
X102373Y139093D01*
X102380Y139130D01*
X102388Y139170D01*
X102410Y139257D01*
X102446Y139348D01*
X102468Y139395D01*
X102493Y139439D01*
X102526Y139483D01*
X102559Y139526D01*
X102562Y139530D01*
X102570Y139537D01*
X102580Y139548D01*
X102595Y139559D01*
X102613Y139577D01*
X102639Y139596D01*
X102664Y139618D01*
X102697Y139639D01*
X102733Y139661D01*
X102770Y139683D01*
X102857Y139723D01*
X102959Y139756D01*
X103014Y139767D01*
X103072Y139774D01*
X103112Y139465D01*
D02*
G37*
G36*
X103760Y137816D02*
X103804D01*
X103851Y137812D01*
X103905Y137808D01*
X104018Y137797D01*
X104139Y137779D01*
X104259Y137757D01*
X104313Y137743D01*
X104368Y137728D01*
X104371D01*
X104379Y137725D01*
X104393Y137717D01*
X104411Y137710D01*
X104437Y137703D01*
X104462Y137688D01*
X104524Y137659D01*
X104590Y137623D01*
X104659Y137575D01*
X104728Y137521D01*
X104786Y137455D01*
Y137452D01*
X104794Y137448D01*
X104801Y137437D01*
X104808Y137423D01*
X104823Y137404D01*
X104834Y137382D01*
X104863Y137328D01*
X104888Y137262D01*
X104914Y137186D01*
X104928Y137095D01*
X104936Y136997D01*
Y136964D01*
X104932Y136924D01*
X104925Y136876D01*
X104914Y136822D01*
X104899Y136764D01*
X104881Y136702D01*
X104852Y136644D01*
Y136640D01*
X104848Y136636D01*
X104837Y136618D01*
X104819Y136589D01*
X104794Y136553D01*
X104757Y136513D01*
X104717Y136469D01*
X104670Y136429D01*
X104615Y136389D01*
X104608Y136385D01*
X104590Y136371D01*
X104557Y136356D01*
X104510Y136330D01*
X104455Y136309D01*
X104393Y136280D01*
X104321Y136254D01*
X104240Y136232D01*
X104237D01*
X104229Y136229D01*
X104218Y136225D01*
X104200Y136221D01*
X104179Y136218D01*
X104153Y136214D01*
X104120Y136207D01*
X104084Y136203D01*
X104044Y136196D01*
X104000Y136192D01*
X103949Y136189D01*
X103898Y136181D01*
X103840Y136178D01*
X103782D01*
X103716Y136174D01*
X103647D01*
X103643D01*
X103629D01*
X103603D01*
X103574D01*
X103534Y136178D01*
X103490D01*
X103443Y136181D01*
X103392Y136185D01*
X103276Y136196D01*
X103156Y136214D01*
X103039Y136236D01*
X102985Y136250D01*
X102930Y136269D01*
X102926D01*
X102919Y136272D01*
X102904Y136280D01*
X102886Y136287D01*
X102861Y136294D01*
X102835Y136309D01*
X102773Y136338D01*
X102708Y136374D01*
X102635Y136422D01*
X102570Y136476D01*
X102508Y136542D01*
Y136545D01*
X102500Y136549D01*
X102493Y136560D01*
X102486Y136574D01*
X102475Y136593D01*
X102460Y136611D01*
X102435Y136665D01*
X102410Y136731D01*
X102384Y136807D01*
X102369Y136898D01*
X102362Y136997D01*
Y137033D01*
X102366Y137058D01*
X102369Y137088D01*
X102377Y137124D01*
X102384Y137164D01*
X102395Y137208D01*
X102410Y137251D01*
X102424Y137299D01*
X102446Y137346D01*
X102471Y137393D01*
X102500Y137441D01*
X102537Y137488D01*
X102577Y137532D01*
X102621Y137572D01*
X102624Y137575D01*
X102635Y137583D01*
X102653Y137594D01*
X102682Y137612D01*
X102715Y137630D01*
X102759Y137648D01*
X102810Y137674D01*
X102868Y137696D01*
X102934Y137717D01*
X103010Y137739D01*
X103094Y137761D01*
X103188Y137779D01*
X103290Y137797D01*
X103400Y137808D01*
X103520Y137816D01*
X103647Y137819D01*
X103651D01*
X103665D01*
X103691D01*
X103720D01*
X103760Y137816D01*
D02*
G37*
G36*
Y135857D02*
X103804D01*
X103851Y135854D01*
X103905Y135850D01*
X104018Y135839D01*
X104139Y135821D01*
X104259Y135799D01*
X104313Y135784D01*
X104368Y135770D01*
X104371D01*
X104379Y135766D01*
X104393Y135759D01*
X104411Y135752D01*
X104437Y135745D01*
X104462Y135730D01*
X104524Y135701D01*
X104590Y135664D01*
X104659Y135617D01*
X104728Y135563D01*
X104786Y135497D01*
Y135493D01*
X104794Y135490D01*
X104801Y135479D01*
X104808Y135464D01*
X104823Y135446D01*
X104834Y135424D01*
X104863Y135370D01*
X104888Y135304D01*
X104914Y135228D01*
X104928Y135137D01*
X104936Y135038D01*
Y135006D01*
X104932Y134966D01*
X104925Y134918D01*
X104914Y134864D01*
X104899Y134805D01*
X104881Y134743D01*
X104852Y134685D01*
Y134682D01*
X104848Y134678D01*
X104837Y134660D01*
X104819Y134631D01*
X104794Y134594D01*
X104757Y134554D01*
X104717Y134511D01*
X104670Y134470D01*
X104615Y134431D01*
X104608Y134427D01*
X104590Y134412D01*
X104557Y134398D01*
X104510Y134372D01*
X104455Y134350D01*
X104393Y134321D01*
X104321Y134296D01*
X104240Y134274D01*
X104237D01*
X104229Y134270D01*
X104218Y134267D01*
X104200Y134263D01*
X104179Y134259D01*
X104153Y134256D01*
X104120Y134248D01*
X104084Y134245D01*
X104044Y134238D01*
X104000Y134234D01*
X103949Y134230D01*
X103898Y134223D01*
X103840Y134219D01*
X103782D01*
X103716Y134216D01*
X103647D01*
X103643D01*
X103629D01*
X103603D01*
X103574D01*
X103534Y134219D01*
X103490D01*
X103443Y134223D01*
X103392Y134227D01*
X103276Y134238D01*
X103156Y134256D01*
X103039Y134278D01*
X102985Y134292D01*
X102930Y134310D01*
X102926D01*
X102919Y134314D01*
X102904Y134321D01*
X102886Y134328D01*
X102861Y134336D01*
X102835Y134350D01*
X102773Y134379D01*
X102708Y134416D01*
X102635Y134463D01*
X102570Y134518D01*
X102508Y134583D01*
Y134587D01*
X102500Y134591D01*
X102493Y134601D01*
X102486Y134616D01*
X102475Y134634D01*
X102460Y134652D01*
X102435Y134707D01*
X102410Y134773D01*
X102384Y134849D01*
X102369Y134940D01*
X102362Y135038D01*
Y135075D01*
X102366Y135100D01*
X102369Y135129D01*
X102377Y135166D01*
X102384Y135206D01*
X102395Y135249D01*
X102410Y135293D01*
X102424Y135340D01*
X102446Y135388D01*
X102471Y135435D01*
X102500Y135482D01*
X102537Y135530D01*
X102577Y135573D01*
X102621Y135614D01*
X102624Y135617D01*
X102635Y135624D01*
X102653Y135635D01*
X102682Y135653D01*
X102715Y135672D01*
X102759Y135690D01*
X102810Y135715D01*
X102868Y135737D01*
X102934Y135759D01*
X103010Y135781D01*
X103094Y135803D01*
X103188Y135821D01*
X103290Y135839D01*
X103400Y135850D01*
X103520Y135857D01*
X103647Y135861D01*
X103651D01*
X103665D01*
X103691D01*
X103720D01*
X103760Y135857D01*
D02*
G37*
G36*
X104233Y133513D02*
X103217D01*
X103214D01*
X103207D01*
X103196D01*
X103177D01*
X103138D01*
X103086Y133510D01*
X103032D01*
X102977Y133506D01*
X102930Y133502D01*
X102890Y133495D01*
X102886D01*
X102872Y133488D01*
X102850Y133480D01*
X102821Y133469D01*
X102792Y133451D01*
X102759Y133430D01*
X102730Y133404D01*
X102701Y133371D01*
X102697Y133368D01*
X102690Y133353D01*
X102679Y133335D01*
X102668Y133306D01*
X102653Y133273D01*
X102642Y133233D01*
X102635Y133189D01*
X102631Y133138D01*
Y133113D01*
X102635Y133087D01*
X102639Y133054D01*
X102650Y133015D01*
X102661Y132971D01*
X102679Y132923D01*
X102701Y132876D01*
X102704Y132869D01*
X102715Y132854D01*
X102730Y132833D01*
X102752Y132807D01*
X102781Y132778D01*
X102813Y132749D01*
X102850Y132723D01*
X102894Y132702D01*
X102901Y132698D01*
X102915Y132694D01*
X102945Y132687D01*
X102985Y132676D01*
X103035Y132665D01*
X103097Y132658D01*
X103170Y132654D01*
X103254Y132650D01*
X104233D01*
Y132341D01*
X102406D01*
Y132618D01*
X102672D01*
X102668Y132621D01*
X102657Y132629D01*
X102642Y132640D01*
X102624Y132658D01*
X102602Y132680D01*
X102573Y132705D01*
X102548Y132734D01*
X102519Y132771D01*
X102489Y132811D01*
X102464Y132854D01*
X102439Y132902D01*
X102413Y132953D01*
X102395Y133011D01*
X102380Y133069D01*
X102369Y133135D01*
X102366Y133200D01*
Y133226D01*
X102369Y133258D01*
X102373Y133298D01*
X102380Y133346D01*
X102391Y133397D01*
X102406Y133448D01*
X102428Y133502D01*
X102431Y133510D01*
X102439Y133524D01*
X102453Y133550D01*
X102471Y133579D01*
X102493Y133615D01*
X102519Y133648D01*
X102548Y133681D01*
X102580Y133710D01*
X102584Y133713D01*
X102599Y133721D01*
X102617Y133732D01*
X102646Y133746D01*
X102679Y133764D01*
X102719Y133779D01*
X102762Y133793D01*
X102810Y133804D01*
X102813D01*
X102828Y133808D01*
X102850Y133812D01*
X102879D01*
X102923Y133815D01*
X102970Y133819D01*
X103032Y133823D01*
X103101D01*
X104233D01*
Y133513D01*
D02*
G37*
G36*
X104925Y130099D02*
X104626D01*
Y131467D01*
X103847D01*
Y130285D01*
X103549D01*
Y131467D01*
X102406D01*
Y131802D01*
X104925D01*
Y130099D01*
D02*
G37*
G36*
X256655Y141423D02*
X256652D01*
X256644Y141419D01*
X256630Y141416D01*
X256612Y141412D01*
X256590Y141408D01*
X256564Y141401D01*
X256510Y141383D01*
X256444Y141357D01*
X256382Y141325D01*
X256324Y141288D01*
X256273Y141244D01*
X256270Y141237D01*
X256255Y141223D01*
X256237Y141194D01*
X256219Y141157D01*
X256197Y141113D01*
X256178Y141059D01*
X256164Y140997D01*
X256160Y140931D01*
Y140910D01*
X256164Y140895D01*
X256168Y140855D01*
X256178Y140804D01*
X256197Y140746D01*
X256222Y140684D01*
X256259Y140622D01*
X256310Y140564D01*
X256317Y140557D01*
X256339Y140538D01*
X256371Y140516D01*
X256415Y140487D01*
X256470Y140458D01*
X256532Y140436D01*
X256604Y140418D01*
X256684Y140411D01*
X256688D01*
X256695D01*
X256706D01*
X256721Y140415D01*
X256761Y140418D01*
X256808Y140429D01*
X256866Y140444D01*
X256925Y140469D01*
X256983Y140506D01*
X257037Y140553D01*
X257045Y140560D01*
X257059Y140578D01*
X257081Y140608D01*
X257107Y140648D01*
X257132Y140699D01*
X257154Y140760D01*
X257169Y140830D01*
X257176Y140906D01*
Y140939D01*
X257172Y140964D01*
X257169Y140997D01*
X257161Y141033D01*
X257154Y141077D01*
X257143Y141124D01*
X257416Y141088D01*
Y141070D01*
X257412Y141055D01*
Y141008D01*
X257420Y140968D01*
X257427Y140921D01*
X257438Y140866D01*
X257456Y140804D01*
X257482Y140746D01*
X257514Y140684D01*
Y140680D01*
X257518Y140677D01*
X257533Y140658D01*
X257558Y140633D01*
X257591Y140604D01*
X257638Y140575D01*
X257693Y140549D01*
X257755Y140531D01*
X257791Y140524D01*
X257831D01*
X257835D01*
X257838D01*
X257860D01*
X257889Y140531D01*
X257929Y140538D01*
X257973Y140553D01*
X258020Y140571D01*
X258068Y140600D01*
X258111Y140640D01*
X258115Y140644D01*
X258130Y140662D01*
X258148Y140688D01*
X258170Y140720D01*
X258188Y140764D01*
X258206Y140815D01*
X258221Y140873D01*
X258224Y140939D01*
Y140968D01*
X258217Y141001D01*
X258210Y141044D01*
X258195Y141092D01*
X258177Y141139D01*
X258148Y141190D01*
X258111Y141237D01*
X258108Y141241D01*
X258089Y141255D01*
X258064Y141277D01*
X258028Y141303D01*
X257980Y141328D01*
X257922Y141354D01*
X257853Y141376D01*
X257773Y141390D01*
X257827Y141700D01*
X257831D01*
X257842Y141696D01*
X257856Y141692D01*
X257878Y141689D01*
X257904Y141681D01*
X257933Y141670D01*
X258002Y141649D01*
X258082Y141612D01*
X258162Y141569D01*
X258239Y141514D01*
X258308Y141445D01*
X258312Y141441D01*
X258315Y141434D01*
X258322Y141423D01*
X258333Y141408D01*
X258348Y141390D01*
X258363Y141365D01*
X258377Y141339D01*
X258395Y141306D01*
X258424Y141234D01*
X258453Y141150D01*
X258472Y141052D01*
X258479Y141001D01*
Y140910D01*
X258475Y140870D01*
X258468Y140822D01*
X258457Y140764D01*
X258439Y140699D01*
X258417Y140633D01*
X258388Y140568D01*
Y140564D01*
X258384Y140560D01*
X258373Y140538D01*
X258351Y140506D01*
X258326Y140469D01*
X258290Y140426D01*
X258250Y140382D01*
X258202Y140338D01*
X258148Y140302D01*
X258140Y140298D01*
X258122Y140287D01*
X258089Y140273D01*
X258049Y140254D01*
X258002Y140236D01*
X257947Y140222D01*
X257886Y140211D01*
X257824Y140207D01*
X257817D01*
X257795D01*
X257766Y140211D01*
X257726Y140218D01*
X257678Y140229D01*
X257627Y140247D01*
X257576Y140269D01*
X257525Y140298D01*
X257518Y140302D01*
X257503Y140313D01*
X257478Y140334D01*
X257449Y140364D01*
X257416Y140400D01*
X257380Y140444D01*
X257347Y140495D01*
X257314Y140557D01*
Y140553D01*
X257311Y140546D01*
X257307Y140535D01*
X257303Y140520D01*
X257289Y140480D01*
X257267Y140429D01*
X257238Y140371D01*
X257201Y140313D01*
X257154Y140258D01*
X257099Y140207D01*
X257092Y140203D01*
X257070Y140189D01*
X257034Y140167D01*
X256986Y140145D01*
X256928Y140123D01*
X256859Y140102D01*
X256779Y140087D01*
X256692Y140083D01*
X256688D01*
X256677D01*
X256659D01*
X256637Y140087D01*
X256608Y140091D01*
X256575Y140098D01*
X256539Y140105D01*
X256499Y140112D01*
X256411Y140142D01*
X256364Y140164D01*
X256320Y140185D01*
X256273Y140214D01*
X256226Y140247D01*
X256178Y140284D01*
X256135Y140327D01*
X256131Y140331D01*
X256124Y140338D01*
X256113Y140353D01*
X256098Y140371D01*
X256080Y140393D01*
X256062Y140422D01*
X256040Y140455D01*
X256022Y140495D01*
X256000Y140535D01*
X255978Y140582D01*
X255960Y140629D01*
X255942Y140684D01*
X255927Y140742D01*
X255916Y140804D01*
X255909Y140866D01*
X255906Y140935D01*
Y140968D01*
X255909Y140990D01*
X255913Y141019D01*
X255916Y141052D01*
X255924Y141088D01*
X255931Y141128D01*
X255953Y141215D01*
X255989Y141306D01*
X256011Y141354D01*
X256036Y141397D01*
X256069Y141441D01*
X256102Y141485D01*
X256106Y141488D01*
X256113Y141496D01*
X256124Y141507D01*
X256138Y141517D01*
X256157Y141536D01*
X256182Y141554D01*
X256208Y141576D01*
X256240Y141598D01*
X256277Y141620D01*
X256313Y141641D01*
X256400Y141681D01*
X256502Y141714D01*
X256557Y141725D01*
X256615Y141732D01*
X256655Y141423D01*
D02*
G37*
G36*
Y139465D02*
X256652D01*
X256644Y139461D01*
X256630Y139457D01*
X256612Y139454D01*
X256590Y139450D01*
X256564Y139443D01*
X256510Y139425D01*
X256444Y139399D01*
X256382Y139366D01*
X256324Y139330D01*
X256273Y139286D01*
X256270Y139279D01*
X256255Y139264D01*
X256237Y139235D01*
X256219Y139199D01*
X256197Y139155D01*
X256178Y139101D01*
X256164Y139039D01*
X256160Y138973D01*
Y138951D01*
X256164Y138937D01*
X256168Y138897D01*
X256178Y138846D01*
X256197Y138787D01*
X256222Y138726D01*
X256259Y138664D01*
X256310Y138605D01*
X256317Y138598D01*
X256339Y138580D01*
X256371Y138558D01*
X256415Y138529D01*
X256470Y138500D01*
X256532Y138478D01*
X256604Y138460D01*
X256684Y138453D01*
X256688D01*
X256695D01*
X256706D01*
X256721Y138456D01*
X256761Y138460D01*
X256808Y138471D01*
X256866Y138485D01*
X256925Y138511D01*
X256983Y138547D01*
X257037Y138595D01*
X257045Y138602D01*
X257059Y138620D01*
X257081Y138649D01*
X257107Y138689D01*
X257132Y138740D01*
X257154Y138802D01*
X257169Y138871D01*
X257176Y138948D01*
Y138980D01*
X257172Y139006D01*
X257169Y139039D01*
X257161Y139075D01*
X257154Y139119D01*
X257143Y139166D01*
X257416Y139130D01*
Y139111D01*
X257412Y139097D01*
Y139050D01*
X257420Y139010D01*
X257427Y138962D01*
X257438Y138908D01*
X257456Y138846D01*
X257482Y138787D01*
X257514Y138726D01*
Y138722D01*
X257518Y138718D01*
X257533Y138700D01*
X257558Y138675D01*
X257591Y138646D01*
X257638Y138617D01*
X257693Y138591D01*
X257755Y138573D01*
X257791Y138566D01*
X257831D01*
X257835D01*
X257838D01*
X257860D01*
X257889Y138573D01*
X257929Y138580D01*
X257973Y138595D01*
X258020Y138613D01*
X258068Y138642D01*
X258111Y138682D01*
X258115Y138686D01*
X258130Y138704D01*
X258148Y138729D01*
X258170Y138762D01*
X258188Y138806D01*
X258206Y138857D01*
X258221Y138915D01*
X258224Y138980D01*
Y139010D01*
X258217Y139042D01*
X258210Y139086D01*
X258195Y139133D01*
X258177Y139181D01*
X258148Y139232D01*
X258111Y139279D01*
X258108Y139283D01*
X258089Y139297D01*
X258064Y139319D01*
X258028Y139345D01*
X257980Y139370D01*
X257922Y139395D01*
X257853Y139417D01*
X257773Y139432D01*
X257827Y139741D01*
X257831D01*
X257842Y139738D01*
X257856Y139734D01*
X257878Y139730D01*
X257904Y139723D01*
X257933Y139712D01*
X258002Y139690D01*
X258082Y139654D01*
X258162Y139610D01*
X258239Y139556D01*
X258308Y139486D01*
X258312Y139483D01*
X258315Y139476D01*
X258322Y139465D01*
X258333Y139450D01*
X258348Y139432D01*
X258363Y139406D01*
X258377Y139381D01*
X258395Y139348D01*
X258424Y139275D01*
X258453Y139192D01*
X258472Y139093D01*
X258479Y139042D01*
Y138951D01*
X258475Y138911D01*
X258468Y138864D01*
X258457Y138806D01*
X258439Y138740D01*
X258417Y138675D01*
X258388Y138609D01*
Y138605D01*
X258384Y138602D01*
X258373Y138580D01*
X258351Y138547D01*
X258326Y138511D01*
X258290Y138467D01*
X258250Y138424D01*
X258202Y138380D01*
X258148Y138344D01*
X258140Y138340D01*
X258122Y138329D01*
X258089Y138314D01*
X258049Y138296D01*
X258002Y138278D01*
X257947Y138263D01*
X257886Y138252D01*
X257824Y138249D01*
X257817D01*
X257795D01*
X257766Y138252D01*
X257726Y138260D01*
X257678Y138271D01*
X257627Y138289D01*
X257576Y138311D01*
X257525Y138340D01*
X257518Y138344D01*
X257503Y138354D01*
X257478Y138376D01*
X257449Y138405D01*
X257416Y138442D01*
X257380Y138485D01*
X257347Y138536D01*
X257314Y138598D01*
Y138595D01*
X257311Y138587D01*
X257307Y138576D01*
X257303Y138562D01*
X257289Y138522D01*
X257267Y138471D01*
X257238Y138413D01*
X257201Y138354D01*
X257154Y138300D01*
X257099Y138249D01*
X257092Y138245D01*
X257070Y138231D01*
X257034Y138209D01*
X256986Y138187D01*
X256928Y138165D01*
X256859Y138143D01*
X256779Y138129D01*
X256692Y138125D01*
X256688D01*
X256677D01*
X256659D01*
X256637Y138129D01*
X256608Y138132D01*
X256575Y138140D01*
X256539Y138147D01*
X256499Y138154D01*
X256411Y138183D01*
X256364Y138205D01*
X256320Y138227D01*
X256273Y138256D01*
X256226Y138289D01*
X256178Y138325D01*
X256135Y138369D01*
X256131Y138373D01*
X256124Y138380D01*
X256113Y138394D01*
X256098Y138413D01*
X256080Y138435D01*
X256062Y138464D01*
X256040Y138496D01*
X256022Y138536D01*
X256000Y138576D01*
X255978Y138624D01*
X255960Y138671D01*
X255942Y138726D01*
X255927Y138784D01*
X255916Y138846D01*
X255909Y138908D01*
X255906Y138977D01*
Y139010D01*
X255909Y139031D01*
X255913Y139060D01*
X255916Y139093D01*
X255924Y139130D01*
X255931Y139170D01*
X255953Y139257D01*
X255989Y139348D01*
X256011Y139395D01*
X256036Y139439D01*
X256069Y139483D01*
X256102Y139526D01*
X256106Y139530D01*
X256113Y139537D01*
X256124Y139548D01*
X256138Y139559D01*
X256157Y139577D01*
X256182Y139596D01*
X256208Y139618D01*
X256240Y139639D01*
X256277Y139661D01*
X256313Y139683D01*
X256400Y139723D01*
X256502Y139756D01*
X256557Y139767D01*
X256615Y139774D01*
X256655Y139465D01*
D02*
G37*
G36*
X257303Y137816D02*
X257347D01*
X257394Y137812D01*
X257449Y137808D01*
X257562Y137797D01*
X257682Y137779D01*
X257802Y137757D01*
X257856Y137743D01*
X257911Y137728D01*
X257915D01*
X257922Y137725D01*
X257937Y137717D01*
X257955Y137710D01*
X257980Y137703D01*
X258006Y137688D01*
X258068Y137659D01*
X258133Y137623D01*
X258202Y137575D01*
X258272Y137521D01*
X258330Y137455D01*
Y137452D01*
X258337Y137448D01*
X258344Y137437D01*
X258351Y137423D01*
X258366Y137404D01*
X258377Y137382D01*
X258406Y137328D01*
X258432Y137262D01*
X258457Y137186D01*
X258472Y137095D01*
X258479Y136997D01*
Y136964D01*
X258475Y136924D01*
X258468Y136876D01*
X258457Y136822D01*
X258442Y136764D01*
X258424Y136702D01*
X258395Y136644D01*
Y136640D01*
X258392Y136636D01*
X258381Y136618D01*
X258363Y136589D01*
X258337Y136553D01*
X258301Y136512D01*
X258260Y136469D01*
X258213Y136429D01*
X258159Y136389D01*
X258151Y136385D01*
X258133Y136371D01*
X258100Y136356D01*
X258053Y136330D01*
X257998Y136309D01*
X257937Y136280D01*
X257864Y136254D01*
X257784Y136232D01*
X257780D01*
X257773Y136229D01*
X257762Y136225D01*
X257744Y136221D01*
X257722Y136218D01*
X257696Y136214D01*
X257664Y136207D01*
X257627Y136203D01*
X257587Y136196D01*
X257543Y136192D01*
X257492Y136189D01*
X257441Y136181D01*
X257383Y136178D01*
X257325D01*
X257259Y136174D01*
X257190D01*
X257187D01*
X257172D01*
X257147D01*
X257118D01*
X257078Y136178D01*
X257034D01*
X256986Y136181D01*
X256936Y136185D01*
X256819Y136196D01*
X256699Y136214D01*
X256582Y136236D01*
X256528Y136250D01*
X256473Y136269D01*
X256470D01*
X256462Y136272D01*
X256448Y136280D01*
X256430Y136287D01*
X256404Y136294D01*
X256379Y136309D01*
X256317Y136338D01*
X256251Y136374D01*
X256178Y136422D01*
X256113Y136476D01*
X256051Y136542D01*
Y136545D01*
X256044Y136549D01*
X256036Y136560D01*
X256029Y136574D01*
X256018Y136593D01*
X256004Y136611D01*
X255978Y136665D01*
X255953Y136731D01*
X255927Y136807D01*
X255913Y136898D01*
X255906Y136997D01*
Y137033D01*
X255909Y137058D01*
X255913Y137088D01*
X255920Y137124D01*
X255927Y137164D01*
X255938Y137208D01*
X255953Y137251D01*
X255967Y137299D01*
X255989Y137346D01*
X256015Y137393D01*
X256044Y137441D01*
X256080Y137488D01*
X256120Y137532D01*
X256164Y137572D01*
X256168Y137575D01*
X256178Y137583D01*
X256197Y137594D01*
X256226Y137612D01*
X256259Y137630D01*
X256302Y137648D01*
X256353Y137674D01*
X256411Y137696D01*
X256477Y137717D01*
X256553Y137739D01*
X256637Y137761D01*
X256732Y137779D01*
X256834Y137797D01*
X256943Y137808D01*
X257063Y137816D01*
X257190Y137819D01*
X257194D01*
X257209D01*
X257234D01*
X257263D01*
X257303Y137816D01*
D02*
G37*
G36*
Y135857D02*
X257347D01*
X257394Y135854D01*
X257449Y135850D01*
X257562Y135839D01*
X257682Y135821D01*
X257802Y135799D01*
X257856Y135784D01*
X257911Y135770D01*
X257915D01*
X257922Y135766D01*
X257937Y135759D01*
X257955Y135752D01*
X257980Y135745D01*
X258006Y135730D01*
X258068Y135701D01*
X258133Y135664D01*
X258202Y135617D01*
X258272Y135563D01*
X258330Y135497D01*
Y135493D01*
X258337Y135490D01*
X258344Y135479D01*
X258351Y135464D01*
X258366Y135446D01*
X258377Y135424D01*
X258406Y135370D01*
X258432Y135304D01*
X258457Y135228D01*
X258472Y135137D01*
X258479Y135038D01*
Y135006D01*
X258475Y134966D01*
X258468Y134918D01*
X258457Y134864D01*
X258442Y134805D01*
X258424Y134743D01*
X258395Y134685D01*
Y134682D01*
X258392Y134678D01*
X258381Y134660D01*
X258363Y134631D01*
X258337Y134594D01*
X258301Y134554D01*
X258260Y134511D01*
X258213Y134470D01*
X258159Y134431D01*
X258151Y134427D01*
X258133Y134412D01*
X258100Y134398D01*
X258053Y134372D01*
X257998Y134350D01*
X257937Y134321D01*
X257864Y134296D01*
X257784Y134274D01*
X257780D01*
X257773Y134270D01*
X257762Y134267D01*
X257744Y134263D01*
X257722Y134259D01*
X257696Y134256D01*
X257664Y134248D01*
X257627Y134245D01*
X257587Y134238D01*
X257543Y134234D01*
X257492Y134230D01*
X257441Y134223D01*
X257383Y134219D01*
X257325D01*
X257259Y134216D01*
X257190D01*
X257187D01*
X257172D01*
X257147D01*
X257118D01*
X257078Y134219D01*
X257034D01*
X256986Y134223D01*
X256936Y134227D01*
X256819Y134238D01*
X256699Y134256D01*
X256582Y134278D01*
X256528Y134292D01*
X256473Y134310D01*
X256470D01*
X256462Y134314D01*
X256448Y134321D01*
X256430Y134328D01*
X256404Y134336D01*
X256379Y134350D01*
X256317Y134379D01*
X256251Y134416D01*
X256178Y134463D01*
X256113Y134518D01*
X256051Y134583D01*
Y134587D01*
X256044Y134591D01*
X256036Y134601D01*
X256029Y134616D01*
X256018Y134634D01*
X256004Y134652D01*
X255978Y134707D01*
X255953Y134773D01*
X255927Y134849D01*
X255913Y134940D01*
X255906Y135038D01*
Y135075D01*
X255909Y135100D01*
X255913Y135129D01*
X255920Y135166D01*
X255927Y135206D01*
X255938Y135249D01*
X255953Y135293D01*
X255967Y135340D01*
X255989Y135388D01*
X256015Y135435D01*
X256044Y135482D01*
X256080Y135530D01*
X256120Y135573D01*
X256164Y135614D01*
X256168Y135617D01*
X256178Y135624D01*
X256197Y135635D01*
X256226Y135653D01*
X256259Y135672D01*
X256302Y135690D01*
X256353Y135715D01*
X256411Y135737D01*
X256477Y135759D01*
X256553Y135781D01*
X256637Y135803D01*
X256732Y135821D01*
X256834Y135839D01*
X256943Y135850D01*
X257063Y135857D01*
X257190Y135861D01*
X257194D01*
X257209D01*
X257234D01*
X257263D01*
X257303Y135857D01*
D02*
G37*
G36*
X257776Y133513D02*
X256761D01*
X256757D01*
X256750D01*
X256739D01*
X256721D01*
X256681D01*
X256630Y133510D01*
X256575D01*
X256521Y133506D01*
X256473Y133502D01*
X256433Y133495D01*
X256430D01*
X256415Y133488D01*
X256393Y133480D01*
X256364Y133469D01*
X256335Y133451D01*
X256302Y133430D01*
X256273Y133404D01*
X256244Y133371D01*
X256240Y133368D01*
X256233Y133353D01*
X256222Y133335D01*
X256211Y133306D01*
X256197Y133273D01*
X256186Y133233D01*
X256178Y133189D01*
X256175Y133138D01*
Y133113D01*
X256178Y133087D01*
X256182Y133054D01*
X256193Y133015D01*
X256204Y132971D01*
X256222Y132923D01*
X256244Y132876D01*
X256248Y132869D01*
X256259Y132854D01*
X256273Y132833D01*
X256295Y132807D01*
X256324Y132778D01*
X256357Y132749D01*
X256393Y132723D01*
X256437Y132702D01*
X256444Y132698D01*
X256459Y132694D01*
X256488Y132687D01*
X256528Y132676D01*
X256579Y132665D01*
X256641Y132658D01*
X256714Y132654D01*
X256797Y132650D01*
X257776D01*
Y132341D01*
X255949D01*
Y132618D01*
X256215D01*
X256211Y132621D01*
X256200Y132629D01*
X256186Y132640D01*
X256168Y132658D01*
X256146Y132680D01*
X256117Y132705D01*
X256091Y132734D01*
X256062Y132771D01*
X256033Y132811D01*
X256007Y132854D01*
X255982Y132902D01*
X255956Y132953D01*
X255938Y133011D01*
X255924Y133069D01*
X255913Y133135D01*
X255909Y133200D01*
Y133226D01*
X255913Y133258D01*
X255916Y133298D01*
X255924Y133346D01*
X255935Y133397D01*
X255949Y133448D01*
X255971Y133502D01*
X255975Y133510D01*
X255982Y133524D01*
X255996Y133550D01*
X256015Y133579D01*
X256036Y133615D01*
X256062Y133648D01*
X256091Y133681D01*
X256124Y133710D01*
X256128Y133713D01*
X256142Y133721D01*
X256160Y133732D01*
X256189Y133746D01*
X256222Y133764D01*
X256262Y133779D01*
X256306Y133793D01*
X256353Y133804D01*
X256357D01*
X256371Y133808D01*
X256393Y133812D01*
X256422D01*
X256466Y133815D01*
X256513Y133819D01*
X256575Y133823D01*
X256644D01*
X257776D01*
Y133513D01*
D02*
G37*
G36*
X258468Y130099D02*
X258170D01*
Y131467D01*
X257391D01*
Y130285D01*
X257092D01*
Y131467D01*
X255949D01*
Y131802D01*
X258468D01*
Y130099D01*
D02*
G37*
G36*
X315410Y90771D02*
X316189D01*
Y91954D01*
X316487D01*
Y90771D01*
X317630D01*
Y90436D01*
X315111D01*
Y92140D01*
X315410D01*
Y90771D01*
D02*
G37*
G36*
X317630Y89621D02*
X317365D01*
X317368Y89617D01*
X317379Y89610D01*
X317394Y89599D01*
X317412Y89581D01*
X317434Y89559D01*
X317463Y89534D01*
X317488Y89504D01*
X317517Y89468D01*
X317547Y89428D01*
X317572Y89384D01*
X317597Y89337D01*
X317623Y89286D01*
X317641Y89228D01*
X317656Y89170D01*
X317667Y89104D01*
X317670Y89038D01*
Y89013D01*
X317667Y88980D01*
X317663Y88940D01*
X317656Y88893D01*
X317645Y88842D01*
X317630Y88791D01*
X317608Y88736D01*
X317605Y88729D01*
X317597Y88714D01*
X317583Y88689D01*
X317565Y88660D01*
X317543Y88623D01*
X317517Y88591D01*
X317488Y88558D01*
X317456Y88529D01*
X317452Y88525D01*
X317437Y88518D01*
X317419Y88507D01*
X317390Y88492D01*
X317357Y88474D01*
X317317Y88460D01*
X317273Y88445D01*
X317226Y88434D01*
X317222D01*
X317208Y88431D01*
X317186Y88427D01*
X317157D01*
X317113Y88423D01*
X317066Y88420D01*
X317004Y88416D01*
X316935D01*
X315803D01*
Y88725D01*
X316818D01*
X316822D01*
X316829D01*
X316840D01*
X316859D01*
X316899D01*
X316950Y88729D01*
X317004D01*
X317059Y88733D01*
X317106Y88736D01*
X317146Y88744D01*
X317150D01*
X317164Y88751D01*
X317186Y88758D01*
X317215Y88769D01*
X317244Y88787D01*
X317277Y88809D01*
X317306Y88835D01*
X317335Y88867D01*
X317339Y88871D01*
X317346Y88886D01*
X317357Y88904D01*
X317368Y88933D01*
X317383Y88966D01*
X317394Y89006D01*
X317401Y89049D01*
X317405Y89100D01*
Y89126D01*
X317401Y89151D01*
X317397Y89184D01*
X317386Y89224D01*
X317375Y89268D01*
X317357Y89315D01*
X317335Y89362D01*
X317332Y89370D01*
X317321Y89384D01*
X317306Y89406D01*
X317284Y89432D01*
X317255Y89461D01*
X317222Y89490D01*
X317186Y89515D01*
X317142Y89537D01*
X317135Y89541D01*
X317121Y89544D01*
X317091Y89552D01*
X317051Y89563D01*
X317001Y89574D01*
X316939Y89581D01*
X316866Y89584D01*
X316782Y89588D01*
X315803D01*
Y89898D01*
X317630D01*
Y89621D01*
D02*
G37*
G36*
Y87233D02*
X315661D01*
X315665Y87229D01*
X315679Y87211D01*
X315701Y87189D01*
X315726Y87153D01*
X315759Y87113D01*
X315796Y87062D01*
X315836Y87004D01*
X315876Y86938D01*
Y86935D01*
X315879Y86931D01*
X315894Y86909D01*
X315912Y86873D01*
X315934Y86829D01*
X315959Y86778D01*
X315985Y86723D01*
X316010Y86669D01*
X316032Y86614D01*
X315734D01*
Y86618D01*
X315726Y86625D01*
X315723Y86640D01*
X315712Y86658D01*
X315701Y86680D01*
X315686Y86705D01*
X315650Y86767D01*
X315610Y86840D01*
X315559Y86913D01*
X315501Y86989D01*
X315439Y87066D01*
X315435Y87069D01*
X315432Y87073D01*
X315421Y87084D01*
X315410Y87098D01*
X315373Y87131D01*
X315330Y87175D01*
X315279Y87218D01*
X315220Y87266D01*
X315162Y87306D01*
X315100Y87342D01*
Y87542D01*
X317630D01*
Y87233D01*
D02*
G37*
G36*
X315410Y165574D02*
X316189D01*
Y166757D01*
X316487D01*
Y165574D01*
X317630D01*
Y165239D01*
X315111D01*
Y166943D01*
X315410D01*
Y165574D01*
D02*
G37*
G36*
X317630Y164424D02*
X317365D01*
X317368Y164420D01*
X317379Y164413D01*
X317394Y164402D01*
X317412Y164384D01*
X317434Y164362D01*
X317463Y164337D01*
X317488Y164307D01*
X317517Y164271D01*
X317547Y164231D01*
X317572Y164187D01*
X317597Y164140D01*
X317623Y164089D01*
X317641Y164031D01*
X317656Y163973D01*
X317667Y163907D01*
X317670Y163842D01*
Y163816D01*
X317667Y163783D01*
X317663Y163743D01*
X317656Y163696D01*
X317645Y163645D01*
X317630Y163594D01*
X317608Y163540D01*
X317605Y163532D01*
X317597Y163518D01*
X317583Y163492D01*
X317565Y163463D01*
X317543Y163427D01*
X317517Y163394D01*
X317488Y163361D01*
X317456Y163332D01*
X317452Y163328D01*
X317437Y163321D01*
X317419Y163310D01*
X317390Y163296D01*
X317357Y163277D01*
X317317Y163263D01*
X317273Y163248D01*
X317226Y163237D01*
X317222D01*
X317208Y163234D01*
X317186Y163230D01*
X317157D01*
X317113Y163226D01*
X317066Y163223D01*
X317004Y163219D01*
X316935D01*
X315803D01*
Y163529D01*
X316818D01*
X316822D01*
X316829D01*
X316840D01*
X316859D01*
X316899D01*
X316950Y163532D01*
X317004D01*
X317059Y163536D01*
X317106Y163540D01*
X317146Y163547D01*
X317150D01*
X317164Y163554D01*
X317186Y163561D01*
X317215Y163572D01*
X317244Y163590D01*
X317277Y163612D01*
X317306Y163638D01*
X317335Y163671D01*
X317339Y163674D01*
X317346Y163689D01*
X317357Y163707D01*
X317368Y163736D01*
X317383Y163769D01*
X317394Y163809D01*
X317401Y163853D01*
X317405Y163903D01*
Y163929D01*
X317401Y163954D01*
X317397Y163987D01*
X317386Y164027D01*
X317375Y164071D01*
X317357Y164118D01*
X317335Y164165D01*
X317332Y164173D01*
X317321Y164187D01*
X317306Y164209D01*
X317284Y164235D01*
X317255Y164264D01*
X317222Y164293D01*
X317186Y164318D01*
X317143Y164340D01*
X317135Y164344D01*
X317121Y164348D01*
X317091Y164355D01*
X317052Y164366D01*
X317001Y164377D01*
X316939Y164384D01*
X316866Y164388D01*
X316782Y164391D01*
X315803D01*
Y164701D01*
X317630D01*
Y164424D01*
D02*
G37*
G36*
Y162036D02*
X315661D01*
X315665Y162032D01*
X315679Y162014D01*
X315701Y161993D01*
X315726Y161956D01*
X315759Y161916D01*
X315796Y161865D01*
X315836Y161807D01*
X315876Y161741D01*
Y161738D01*
X315879Y161734D01*
X315894Y161712D01*
X315912Y161676D01*
X315934Y161632D01*
X315960Y161581D01*
X315985Y161527D01*
X316010Y161472D01*
X316032Y161417D01*
X315734D01*
Y161421D01*
X315726Y161428D01*
X315723Y161443D01*
X315712Y161461D01*
X315701Y161483D01*
X315686Y161508D01*
X315650Y161570D01*
X315610Y161643D01*
X315559Y161716D01*
X315501Y161792D01*
X315439Y161869D01*
X315435Y161872D01*
X315432Y161876D01*
X315421Y161887D01*
X315410Y161901D01*
X315373Y161934D01*
X315330Y161978D01*
X315279Y162022D01*
X315220Y162069D01*
X315162Y162109D01*
X315100Y162145D01*
Y162346D01*
X317630D01*
Y162036D01*
D02*
G37*
G36*
X318125Y127949D02*
X318132Y127942D01*
X318135Y127927D01*
X318146Y127909D01*
X318157Y127887D01*
X318172Y127862D01*
X318208Y127800D01*
X318248Y127727D01*
X318299Y127654D01*
X318357Y127578D01*
X318419Y127501D01*
X318423Y127498D01*
X318427Y127494D01*
X318438Y127483D01*
X318448Y127469D01*
X318485Y127436D01*
X318529Y127392D01*
X318580Y127348D01*
X318638Y127301D01*
X318696Y127261D01*
X318758Y127225D01*
Y127025D01*
X316228D01*
Y127334D01*
X318197D01*
X318194Y127338D01*
X318179Y127356D01*
X318157Y127378D01*
X318132Y127414D01*
X318099Y127454D01*
X318063Y127505D01*
X318023Y127563D01*
X317983Y127629D01*
Y127632D01*
X317979Y127636D01*
X317964Y127658D01*
X317946Y127694D01*
X317924Y127738D01*
X317899Y127789D01*
X317873Y127844D01*
X317848Y127898D01*
X317826Y127953D01*
X318125D01*
Y127949D01*
D02*
G37*
G36*
X318055Y125842D02*
X317040D01*
X317036D01*
X317029D01*
X317018D01*
X317000D01*
X316960D01*
X316909Y125838D01*
X316854D01*
X316799Y125834D01*
X316752Y125831D01*
X316712Y125823D01*
X316708D01*
X316694Y125816D01*
X316672Y125809D01*
X316643Y125798D01*
X316614Y125780D01*
X316581Y125758D01*
X316552Y125732D01*
X316523Y125700D01*
X316519Y125696D01*
X316512Y125681D01*
X316501Y125663D01*
X316490Y125634D01*
X316476Y125601D01*
X316465Y125561D01*
X316457Y125518D01*
X316454Y125467D01*
Y125441D01*
X316457Y125416D01*
X316461Y125383D01*
X316472Y125343D01*
X316483Y125299D01*
X316501Y125252D01*
X316523Y125205D01*
X316527Y125197D01*
X316537Y125183D01*
X316552Y125161D01*
X316574Y125135D01*
X316603Y125106D01*
X316636Y125077D01*
X316672Y125052D01*
X316716Y125030D01*
X316723Y125026D01*
X316738Y125023D01*
X316767Y125015D01*
X316807Y125004D01*
X316858Y124994D01*
X316920Y124986D01*
X316992Y124983D01*
X317076Y124979D01*
X318055D01*
Y124670D01*
X316228D01*
Y124946D01*
X316494D01*
X316490Y124950D01*
X316479Y124957D01*
X316465Y124968D01*
X316446Y124986D01*
X316425Y125008D01*
X316395Y125033D01*
X316370Y125063D01*
X316341Y125099D01*
X316312Y125139D01*
X316286Y125183D01*
X316261Y125230D01*
X316235Y125281D01*
X316217Y125339D01*
X316203Y125398D01*
X316192Y125463D01*
X316188Y125529D01*
Y125554D01*
X316192Y125587D01*
X316195Y125627D01*
X316203Y125674D01*
X316213Y125725D01*
X316228Y125776D01*
X316250Y125831D01*
X316253Y125838D01*
X316261Y125853D01*
X316275Y125878D01*
X316294Y125907D01*
X316315Y125944D01*
X316341Y125976D01*
X316370Y126009D01*
X316403Y126038D01*
X316406Y126042D01*
X316421Y126049D01*
X316439Y126060D01*
X316468Y126075D01*
X316501Y126093D01*
X316541Y126107D01*
X316585Y126122D01*
X316632Y126133D01*
X316636D01*
X316650Y126136D01*
X316672Y126140D01*
X316701D01*
X316745Y126144D01*
X316792Y126147D01*
X316854Y126151D01*
X316923D01*
X318055D01*
Y125842D01*
D02*
G37*
G36*
X318747Y122427D02*
X318448D01*
Y123796D01*
X317670D01*
Y122613D01*
X317371D01*
Y123796D01*
X316228D01*
Y124131D01*
X318747D01*
Y122427D01*
D02*
G37*
%LPC*%
G36*
X180419Y137503D02*
X180411D01*
X180393D01*
X180360D01*
X180317Y137499D01*
X180270D01*
X180211Y137495D01*
X180149Y137492D01*
X180084Y137484D01*
X179942Y137466D01*
X179873Y137455D01*
X179807Y137441D01*
X179745Y137426D01*
X179687Y137404D01*
X179636Y137382D01*
X179592Y137357D01*
X179589D01*
X179585Y137350D01*
X179560Y137331D01*
X179527Y137299D01*
X179490Y137259D01*
X179454Y137204D01*
X179421Y137142D01*
X179396Y137073D01*
X179392Y137037D01*
X179389Y136997D01*
Y136975D01*
X179392Y136960D01*
X179400Y136924D01*
X179414Y136873D01*
X179440Y136818D01*
X179476Y136756D01*
X179498Y136727D01*
X179527Y136698D01*
X179556Y136669D01*
X179592Y136640D01*
X179596D01*
X179603Y136633D01*
X179614Y136625D01*
X179632Y136618D01*
X179658Y136603D01*
X179691Y136593D01*
X179727Y136578D01*
X179771Y136564D01*
X179825Y136553D01*
X179884Y136538D01*
X179953Y136523D01*
X180026Y136513D01*
X180113Y136505D01*
X180204Y136498D01*
X180306Y136491D01*
X180419D01*
X180422D01*
X180426D01*
X180444D01*
X180477D01*
X180521Y136494D01*
X180568D01*
X180626Y136498D01*
X180688Y136502D01*
X180757Y136509D01*
X180896Y136527D01*
X180965Y136538D01*
X181030Y136553D01*
X181092Y136567D01*
X181150Y136589D01*
X181201Y136611D01*
X181245Y136636D01*
X181249D01*
X181252Y136644D01*
X181263Y136651D01*
X181278Y136662D01*
X181310Y136695D01*
X181351Y136735D01*
X181387Y136789D01*
X181420Y136851D01*
X181434Y136884D01*
X181445Y136920D01*
X181449Y136960D01*
X181453Y137000D01*
Y137022D01*
X181449Y137037D01*
X181442Y137077D01*
X181431Y137124D01*
X181409Y137179D01*
X181376Y137237D01*
X181354Y137266D01*
X181332Y137295D01*
X181303Y137321D01*
X181271Y137346D01*
X181267D01*
X181260Y137353D01*
X181245Y137361D01*
X181227Y137372D01*
X181198Y137382D01*
X181165Y137397D01*
X181125Y137408D01*
X181078Y137423D01*
X181023Y137437D01*
X180961Y137452D01*
X180892Y137466D01*
X180815Y137477D01*
X180728Y137488D01*
X180633Y137495D01*
X180532Y137499D01*
X180419Y137503D01*
D02*
G37*
G36*
Y135544D02*
X180411D01*
X180393D01*
X180360D01*
X180317Y135541D01*
X180270D01*
X180211Y135537D01*
X180149Y135533D01*
X180084Y135526D01*
X179942Y135508D01*
X179873Y135497D01*
X179807Y135482D01*
X179745Y135468D01*
X179687Y135446D01*
X179636Y135424D01*
X179592Y135399D01*
X179589D01*
X179585Y135391D01*
X179560Y135373D01*
X179527Y135340D01*
X179490Y135300D01*
X179454Y135246D01*
X179421Y135184D01*
X179396Y135115D01*
X179392Y135078D01*
X179389Y135038D01*
Y135017D01*
X179392Y135002D01*
X179400Y134966D01*
X179414Y134915D01*
X179440Y134860D01*
X179476Y134798D01*
X179498Y134769D01*
X179527Y134740D01*
X179556Y134711D01*
X179592Y134682D01*
X179596D01*
X179603Y134674D01*
X179614Y134667D01*
X179632Y134660D01*
X179658Y134645D01*
X179691Y134634D01*
X179727Y134620D01*
X179771Y134605D01*
X179825Y134594D01*
X179884Y134580D01*
X179953Y134565D01*
X180026Y134554D01*
X180113Y134547D01*
X180204Y134540D01*
X180306Y134532D01*
X180419D01*
X180422D01*
X180426D01*
X180444D01*
X180477D01*
X180521Y134536D01*
X180568D01*
X180626Y134540D01*
X180688Y134543D01*
X180757Y134551D01*
X180896Y134569D01*
X180965Y134580D01*
X181030Y134594D01*
X181092Y134609D01*
X181150Y134631D01*
X181201Y134652D01*
X181245Y134678D01*
X181249D01*
X181252Y134685D01*
X181263Y134693D01*
X181278Y134704D01*
X181310Y134736D01*
X181351Y134776D01*
X181387Y134831D01*
X181420Y134893D01*
X181434Y134925D01*
X181445Y134962D01*
X181449Y135002D01*
X181453Y135042D01*
Y135064D01*
X181449Y135078D01*
X181442Y135118D01*
X181431Y135166D01*
X181409Y135220D01*
X181376Y135279D01*
X181354Y135308D01*
X181332Y135337D01*
X181303Y135362D01*
X181271Y135388D01*
X181267D01*
X181260Y135395D01*
X181245Y135402D01*
X181227Y135413D01*
X181198Y135424D01*
X181165Y135439D01*
X181125Y135450D01*
X181078Y135464D01*
X181023Y135479D01*
X180961Y135493D01*
X180892Y135508D01*
X180815Y135519D01*
X180728Y135530D01*
X180633Y135537D01*
X180532Y135541D01*
X180419Y135544D01*
D02*
G37*
G36*
X103647Y61715D02*
X103640D01*
X103622D01*
X103589D01*
X103545Y61712D01*
X103498D01*
X103440Y61708D01*
X103378Y61704D01*
X103312Y61697D01*
X103170Y61679D01*
X103101Y61668D01*
X103035Y61653D01*
X102974Y61639D01*
X102915Y61617D01*
X102865Y61595D01*
X102821Y61570D01*
X102817D01*
X102813Y61562D01*
X102788Y61544D01*
X102755Y61511D01*
X102719Y61471D01*
X102682Y61417D01*
X102650Y61355D01*
X102624Y61286D01*
X102621Y61249D01*
X102617Y61209D01*
Y61187D01*
X102621Y61173D01*
X102628Y61137D01*
X102642Y61085D01*
X102668Y61031D01*
X102704Y60969D01*
X102726Y60940D01*
X102755Y60911D01*
X102784Y60882D01*
X102821Y60852D01*
X102824D01*
X102832Y60845D01*
X102843Y60838D01*
X102861Y60831D01*
X102886Y60816D01*
X102919Y60805D01*
X102955Y60791D01*
X102999Y60776D01*
X103054Y60765D01*
X103112Y60751D01*
X103181Y60736D01*
X103254Y60725D01*
X103341Y60718D01*
X103432Y60711D01*
X103534Y60703D01*
X103647D01*
X103651D01*
X103654D01*
X103673D01*
X103705D01*
X103749Y60707D01*
X103796D01*
X103855Y60711D01*
X103916Y60714D01*
X103986Y60721D01*
X104124Y60740D01*
X104193Y60751D01*
X104259Y60765D01*
X104321Y60780D01*
X104379Y60802D01*
X104430Y60823D01*
X104473Y60849D01*
X104477D01*
X104481Y60856D01*
X104491Y60864D01*
X104506Y60874D01*
X104539Y60907D01*
X104579Y60947D01*
X104615Y61002D01*
X104648Y61064D01*
X104663Y61096D01*
X104674Y61133D01*
X104677Y61173D01*
X104681Y61213D01*
Y61235D01*
X104677Y61249D01*
X104670Y61289D01*
X104659Y61337D01*
X104637Y61391D01*
X104604Y61449D01*
X104583Y61479D01*
X104561Y61508D01*
X104532Y61533D01*
X104499Y61559D01*
X104495D01*
X104488Y61566D01*
X104473Y61573D01*
X104455Y61584D01*
X104426Y61595D01*
X104393Y61610D01*
X104353Y61621D01*
X104306Y61635D01*
X104251Y61650D01*
X104189Y61664D01*
X104120Y61679D01*
X104044Y61690D01*
X103956Y61701D01*
X103862Y61708D01*
X103760Y61712D01*
X103647Y61715D01*
D02*
G37*
G36*
Y59757D02*
X103640D01*
X103622D01*
X103589D01*
X103545Y59753D01*
X103498D01*
X103440Y59750D01*
X103378Y59746D01*
X103312Y59739D01*
X103170Y59720D01*
X103101Y59710D01*
X103035Y59695D01*
X102974Y59680D01*
X102915Y59659D01*
X102865Y59637D01*
X102821Y59611D01*
X102817D01*
X102813Y59604D01*
X102788Y59586D01*
X102755Y59553D01*
X102719Y59513D01*
X102682Y59458D01*
X102650Y59397D01*
X102624Y59327D01*
X102621Y59291D01*
X102617Y59251D01*
Y59229D01*
X102621Y59215D01*
X102628Y59178D01*
X102642Y59127D01*
X102668Y59073D01*
X102704Y59011D01*
X102726Y58982D01*
X102755Y58952D01*
X102784Y58923D01*
X102821Y58894D01*
X102824D01*
X102832Y58887D01*
X102843Y58880D01*
X102861Y58872D01*
X102886Y58858D01*
X102919Y58847D01*
X102955Y58832D01*
X102999Y58818D01*
X103054Y58807D01*
X103112Y58792D01*
X103181Y58778D01*
X103254Y58767D01*
X103341Y58760D01*
X103432Y58752D01*
X103534Y58745D01*
X103647D01*
X103651D01*
X103654D01*
X103673D01*
X103705D01*
X103749Y58749D01*
X103796D01*
X103855Y58752D01*
X103916Y58756D01*
X103986Y58763D01*
X104124Y58781D01*
X104193Y58792D01*
X104259Y58807D01*
X104321Y58821D01*
X104379Y58843D01*
X104430Y58865D01*
X104473Y58891D01*
X104477D01*
X104481Y58898D01*
X104491Y58905D01*
X104506Y58916D01*
X104539Y58949D01*
X104579Y58989D01*
X104615Y59044D01*
X104648Y59105D01*
X104663Y59138D01*
X104674Y59175D01*
X104677Y59215D01*
X104681Y59255D01*
Y59276D01*
X104677Y59291D01*
X104670Y59331D01*
X104659Y59378D01*
X104637Y59433D01*
X104604Y59491D01*
X104583Y59520D01*
X104561Y59549D01*
X104532Y59575D01*
X104499Y59600D01*
X104495D01*
X104488Y59608D01*
X104473Y59615D01*
X104455Y59626D01*
X104426Y59637D01*
X104393Y59651D01*
X104353Y59662D01*
X104306Y59677D01*
X104251Y59691D01*
X104189Y59706D01*
X104120Y59720D01*
X104044Y59731D01*
X103956Y59742D01*
X103862Y59750D01*
X103760Y59753D01*
X103647Y59757D01*
D02*
G37*
G36*
X257190Y61715D02*
X257183D01*
X257165D01*
X257132D01*
X257088Y61712D01*
X257041D01*
X256983Y61708D01*
X256921Y61704D01*
X256856Y61697D01*
X256714Y61679D01*
X256644Y61668D01*
X256579Y61653D01*
X256517Y61639D01*
X256459Y61617D01*
X256408Y61595D01*
X256364Y61570D01*
X256361D01*
X256357Y61562D01*
X256331Y61544D01*
X256299Y61511D01*
X256262Y61471D01*
X256226Y61417D01*
X256193Y61355D01*
X256168Y61286D01*
X256164Y61249D01*
X256160Y61209D01*
Y61187D01*
X256164Y61173D01*
X256171Y61137D01*
X256186Y61085D01*
X256211Y61031D01*
X256248Y60969D01*
X256270Y60940D01*
X256299Y60911D01*
X256328Y60882D01*
X256364Y60852D01*
X256368D01*
X256375Y60845D01*
X256386Y60838D01*
X256404Y60831D01*
X256430Y60816D01*
X256462Y60805D01*
X256499Y60791D01*
X256542Y60776D01*
X256597Y60765D01*
X256655Y60751D01*
X256725Y60736D01*
X256797Y60725D01*
X256885Y60718D01*
X256976Y60711D01*
X257078Y60703D01*
X257190D01*
X257194D01*
X257198D01*
X257216D01*
X257249D01*
X257292Y60707D01*
X257340D01*
X257398Y60711D01*
X257460Y60714D01*
X257529Y60721D01*
X257667Y60740D01*
X257736Y60751D01*
X257802Y60765D01*
X257864Y60780D01*
X257922Y60802D01*
X257973Y60823D01*
X258017Y60849D01*
X258020D01*
X258024Y60856D01*
X258035Y60864D01*
X258049Y60874D01*
X258082Y60907D01*
X258122Y60947D01*
X258159Y61002D01*
X258191Y61064D01*
X258206Y61096D01*
X258217Y61133D01*
X258221Y61173D01*
X258224Y61213D01*
Y61235D01*
X258221Y61249D01*
X258213Y61289D01*
X258202Y61337D01*
X258180Y61391D01*
X258148Y61449D01*
X258126Y61479D01*
X258104Y61508D01*
X258075Y61533D01*
X258042Y61559D01*
X258038D01*
X258031Y61566D01*
X258017Y61573D01*
X257998Y61584D01*
X257969Y61595D01*
X257937Y61610D01*
X257896Y61621D01*
X257849Y61635D01*
X257795Y61650D01*
X257733Y61664D01*
X257664Y61679D01*
X257587Y61690D01*
X257500Y61701D01*
X257405Y61708D01*
X257303Y61712D01*
X257190Y61715D01*
D02*
G37*
G36*
Y59757D02*
X257183D01*
X257165D01*
X257132D01*
X257088Y59753D01*
X257041D01*
X256983Y59750D01*
X256921Y59746D01*
X256856Y59739D01*
X256714Y59720D01*
X256644Y59710D01*
X256579Y59695D01*
X256517Y59680D01*
X256459Y59659D01*
X256408Y59637D01*
X256364Y59611D01*
X256361D01*
X256357Y59604D01*
X256331Y59586D01*
X256299Y59553D01*
X256262Y59513D01*
X256226Y59458D01*
X256193Y59396D01*
X256168Y59327D01*
X256164Y59291D01*
X256160Y59251D01*
Y59229D01*
X256164Y59215D01*
X256171Y59178D01*
X256186Y59127D01*
X256211Y59073D01*
X256248Y59011D01*
X256270Y58982D01*
X256299Y58952D01*
X256328Y58923D01*
X256364Y58894D01*
X256368D01*
X256375Y58887D01*
X256386Y58880D01*
X256404Y58872D01*
X256430Y58858D01*
X256462Y58847D01*
X256499Y58832D01*
X256542Y58818D01*
X256597Y58807D01*
X256655Y58792D01*
X256725Y58778D01*
X256797Y58767D01*
X256885Y58759D01*
X256976Y58752D01*
X257078Y58745D01*
X257190D01*
X257194D01*
X257198D01*
X257216D01*
X257249D01*
X257292Y58749D01*
X257340D01*
X257398Y58752D01*
X257460Y58756D01*
X257529Y58763D01*
X257667Y58781D01*
X257736Y58792D01*
X257802Y58807D01*
X257864Y58821D01*
X257922Y58843D01*
X257973Y58865D01*
X258017Y58891D01*
X258020D01*
X258024Y58898D01*
X258035Y58905D01*
X258049Y58916D01*
X258082Y58949D01*
X258122Y58989D01*
X258159Y59044D01*
X258191Y59105D01*
X258206Y59138D01*
X258217Y59175D01*
X258221Y59215D01*
X258224Y59255D01*
Y59276D01*
X258221Y59291D01*
X258213Y59331D01*
X258202Y59378D01*
X258180Y59433D01*
X258148Y59491D01*
X258126Y59520D01*
X258104Y59549D01*
X258075Y59575D01*
X258042Y59600D01*
X258038D01*
X258031Y59608D01*
X258017Y59615D01*
X257998Y59626D01*
X257969Y59637D01*
X257937Y59651D01*
X257896Y59662D01*
X257849Y59677D01*
X257795Y59691D01*
X257733Y59706D01*
X257664Y59720D01*
X257587Y59731D01*
X257500Y59742D01*
X257405Y59750D01*
X257303Y59753D01*
X257190Y59757D01*
D02*
G37*
G36*
X180419Y61715D02*
X180411D01*
X180393D01*
X180360D01*
X180317Y61712D01*
X180270D01*
X180211Y61708D01*
X180149Y61704D01*
X180084Y61697D01*
X179942Y61679D01*
X179873Y61668D01*
X179807Y61653D01*
X179745Y61639D01*
X179687Y61617D01*
X179636Y61595D01*
X179592Y61570D01*
X179589D01*
X179585Y61562D01*
X179560Y61544D01*
X179527Y61511D01*
X179490Y61471D01*
X179454Y61417D01*
X179421Y61355D01*
X179396Y61286D01*
X179392Y61249D01*
X179389Y61209D01*
Y61187D01*
X179392Y61173D01*
X179400Y61137D01*
X179414Y61085D01*
X179440Y61031D01*
X179476Y60969D01*
X179498Y60940D01*
X179527Y60911D01*
X179556Y60882D01*
X179592Y60852D01*
X179596D01*
X179603Y60845D01*
X179614Y60838D01*
X179632Y60831D01*
X179658Y60816D01*
X179691Y60805D01*
X179727Y60791D01*
X179771Y60776D01*
X179825Y60765D01*
X179884Y60751D01*
X179953Y60736D01*
X180026Y60725D01*
X180113Y60718D01*
X180204Y60711D01*
X180306Y60703D01*
X180419D01*
X180422D01*
X180426D01*
X180444D01*
X180477D01*
X180521Y60707D01*
X180568D01*
X180626Y60711D01*
X180688Y60714D01*
X180757Y60721D01*
X180896Y60740D01*
X180965Y60751D01*
X181030Y60765D01*
X181092Y60780D01*
X181150Y60802D01*
X181201Y60823D01*
X181245Y60849D01*
X181249D01*
X181252Y60856D01*
X181263Y60864D01*
X181278Y60874D01*
X181310Y60907D01*
X181351Y60947D01*
X181387Y61002D01*
X181420Y61064D01*
X181434Y61096D01*
X181445Y61133D01*
X181449Y61173D01*
X181453Y61213D01*
Y61235D01*
X181449Y61249D01*
X181442Y61289D01*
X181431Y61337D01*
X181409Y61391D01*
X181376Y61449D01*
X181354Y61479D01*
X181332Y61508D01*
X181303Y61533D01*
X181271Y61559D01*
X181267D01*
X181260Y61566D01*
X181245Y61573D01*
X181227Y61584D01*
X181198Y61595D01*
X181165Y61610D01*
X181125Y61621D01*
X181078Y61635D01*
X181023Y61650D01*
X180961Y61664D01*
X180892Y61679D01*
X180815Y61690D01*
X180728Y61701D01*
X180633Y61708D01*
X180532Y61712D01*
X180419Y61715D01*
D02*
G37*
G36*
Y59757D02*
X180411D01*
X180393D01*
X180360D01*
X180317Y59753D01*
X180270D01*
X180211Y59750D01*
X180149Y59746D01*
X180084Y59739D01*
X179942Y59720D01*
X179873Y59710D01*
X179807Y59695D01*
X179745Y59680D01*
X179687Y59659D01*
X179636Y59637D01*
X179592Y59611D01*
X179589D01*
X179585Y59604D01*
X179560Y59586D01*
X179527Y59553D01*
X179490Y59513D01*
X179454Y59458D01*
X179421Y59397D01*
X179396Y59327D01*
X179392Y59291D01*
X179389Y59251D01*
Y59229D01*
X179392Y59215D01*
X179400Y59178D01*
X179414Y59127D01*
X179440Y59073D01*
X179476Y59011D01*
X179498Y58982D01*
X179527Y58952D01*
X179556Y58923D01*
X179592Y58894D01*
X179596D01*
X179603Y58887D01*
X179614Y58880D01*
X179632Y58872D01*
X179658Y58858D01*
X179691Y58847D01*
X179727Y58832D01*
X179771Y58818D01*
X179825Y58807D01*
X179884Y58792D01*
X179953Y58778D01*
X180026Y58767D01*
X180113Y58760D01*
X180204Y58752D01*
X180306Y58745D01*
X180419D01*
X180422D01*
X180426D01*
X180444D01*
X180477D01*
X180521Y58749D01*
X180568D01*
X180626Y58752D01*
X180688Y58756D01*
X180757Y58763D01*
X180896Y58781D01*
X180965Y58792D01*
X181030Y58807D01*
X181092Y58821D01*
X181150Y58843D01*
X181201Y58865D01*
X181245Y58891D01*
X181249D01*
X181252Y58898D01*
X181263Y58905D01*
X181278Y58916D01*
X181310Y58949D01*
X181351Y58989D01*
X181387Y59044D01*
X181420Y59105D01*
X181434Y59138D01*
X181445Y59175D01*
X181449Y59215D01*
X181453Y59255D01*
Y59276D01*
X181449Y59291D01*
X181442Y59331D01*
X181431Y59378D01*
X181409Y59433D01*
X181376Y59491D01*
X181354Y59520D01*
X181332Y59549D01*
X181303Y59575D01*
X181271Y59600D01*
X181267D01*
X181260Y59608D01*
X181245Y59615D01*
X181227Y59626D01*
X181198Y59637D01*
X181165Y59651D01*
X181125Y59662D01*
X181078Y59677D01*
X181023Y59691D01*
X180961Y59706D01*
X180892Y59720D01*
X180815Y59731D01*
X180728Y59742D01*
X180633Y59750D01*
X180532Y59753D01*
X180419Y59757D01*
D02*
G37*
G36*
X103647Y137503D02*
X103640D01*
X103622D01*
X103589D01*
X103545Y137499D01*
X103498D01*
X103440Y137495D01*
X103378Y137492D01*
X103312Y137484D01*
X103170Y137466D01*
X103101Y137455D01*
X103035Y137441D01*
X102974Y137426D01*
X102915Y137404D01*
X102865Y137382D01*
X102821Y137357D01*
X102817D01*
X102813Y137350D01*
X102788Y137331D01*
X102755Y137299D01*
X102719Y137259D01*
X102682Y137204D01*
X102650Y137142D01*
X102624Y137073D01*
X102621Y137037D01*
X102617Y136997D01*
Y136975D01*
X102621Y136960D01*
X102628Y136924D01*
X102642Y136873D01*
X102668Y136818D01*
X102704Y136756D01*
X102726Y136727D01*
X102755Y136698D01*
X102784Y136669D01*
X102821Y136640D01*
X102824D01*
X102832Y136633D01*
X102843Y136625D01*
X102861Y136618D01*
X102886Y136603D01*
X102919Y136593D01*
X102955Y136578D01*
X102999Y136564D01*
X103054Y136553D01*
X103112Y136538D01*
X103181Y136523D01*
X103254Y136513D01*
X103341Y136505D01*
X103432Y136498D01*
X103534Y136491D01*
X103647D01*
X103651D01*
X103654D01*
X103673D01*
X103705D01*
X103749Y136494D01*
X103796D01*
X103855Y136498D01*
X103916Y136502D01*
X103986Y136509D01*
X104124Y136527D01*
X104193Y136538D01*
X104259Y136553D01*
X104321Y136567D01*
X104379Y136589D01*
X104430Y136611D01*
X104473Y136636D01*
X104477D01*
X104481Y136644D01*
X104491Y136651D01*
X104506Y136662D01*
X104539Y136695D01*
X104579Y136735D01*
X104615Y136789D01*
X104648Y136851D01*
X104663Y136884D01*
X104674Y136920D01*
X104677Y136960D01*
X104681Y137000D01*
Y137022D01*
X104677Y137037D01*
X104670Y137077D01*
X104659Y137124D01*
X104637Y137179D01*
X104604Y137237D01*
X104583Y137266D01*
X104561Y137295D01*
X104532Y137321D01*
X104499Y137346D01*
X104495D01*
X104488Y137353D01*
X104473Y137361D01*
X104455Y137372D01*
X104426Y137382D01*
X104393Y137397D01*
X104353Y137408D01*
X104306Y137423D01*
X104251Y137437D01*
X104189Y137452D01*
X104120Y137466D01*
X104044Y137477D01*
X103956Y137488D01*
X103862Y137495D01*
X103760Y137499D01*
X103647Y137503D01*
D02*
G37*
G36*
Y135544D02*
X103640D01*
X103622D01*
X103589D01*
X103545Y135541D01*
X103498D01*
X103440Y135537D01*
X103378Y135533D01*
X103312Y135526D01*
X103170Y135508D01*
X103101Y135497D01*
X103035Y135482D01*
X102974Y135468D01*
X102915Y135446D01*
X102865Y135424D01*
X102821Y135399D01*
X102817D01*
X102813Y135391D01*
X102788Y135373D01*
X102755Y135340D01*
X102719Y135300D01*
X102682Y135246D01*
X102650Y135184D01*
X102624Y135115D01*
X102621Y135078D01*
X102617Y135038D01*
Y135017D01*
X102621Y135002D01*
X102628Y134966D01*
X102642Y134915D01*
X102668Y134860D01*
X102704Y134798D01*
X102726Y134769D01*
X102755Y134740D01*
X102784Y134711D01*
X102821Y134682D01*
X102824D01*
X102832Y134674D01*
X102843Y134667D01*
X102861Y134660D01*
X102886Y134645D01*
X102919Y134634D01*
X102955Y134620D01*
X102999Y134605D01*
X103054Y134594D01*
X103112Y134580D01*
X103181Y134565D01*
X103254Y134554D01*
X103341Y134547D01*
X103432Y134540D01*
X103534Y134532D01*
X103647D01*
X103651D01*
X103654D01*
X103673D01*
X103705D01*
X103749Y134536D01*
X103796D01*
X103855Y134540D01*
X103916Y134543D01*
X103986Y134551D01*
X104124Y134569D01*
X104193Y134580D01*
X104259Y134594D01*
X104321Y134609D01*
X104379Y134631D01*
X104430Y134652D01*
X104473Y134678D01*
X104477D01*
X104481Y134685D01*
X104491Y134693D01*
X104506Y134704D01*
X104539Y134736D01*
X104579Y134776D01*
X104615Y134831D01*
X104648Y134893D01*
X104663Y134925D01*
X104674Y134962D01*
X104677Y135002D01*
X104681Y135042D01*
Y135064D01*
X104677Y135078D01*
X104670Y135118D01*
X104659Y135166D01*
X104637Y135220D01*
X104604Y135279D01*
X104583Y135308D01*
X104561Y135337D01*
X104532Y135362D01*
X104499Y135388D01*
X104495D01*
X104488Y135395D01*
X104473Y135402D01*
X104455Y135413D01*
X104426Y135424D01*
X104393Y135439D01*
X104353Y135450D01*
X104306Y135464D01*
X104251Y135479D01*
X104189Y135493D01*
X104120Y135508D01*
X104044Y135519D01*
X103956Y135530D01*
X103862Y135537D01*
X103760Y135541D01*
X103647Y135544D01*
D02*
G37*
G36*
X257190Y137503D02*
X257183D01*
X257165D01*
X257132D01*
X257088Y137499D01*
X257041D01*
X256983Y137495D01*
X256921Y137492D01*
X256856Y137484D01*
X256714Y137466D01*
X256644Y137455D01*
X256579Y137441D01*
X256517Y137426D01*
X256459Y137404D01*
X256408Y137382D01*
X256364Y137357D01*
X256361D01*
X256357Y137350D01*
X256331Y137331D01*
X256299Y137299D01*
X256262Y137259D01*
X256226Y137204D01*
X256193Y137142D01*
X256168Y137073D01*
X256164Y137037D01*
X256160Y136997D01*
Y136975D01*
X256164Y136960D01*
X256171Y136924D01*
X256186Y136873D01*
X256211Y136818D01*
X256248Y136756D01*
X256270Y136727D01*
X256299Y136698D01*
X256328Y136669D01*
X256364Y136640D01*
X256368D01*
X256375Y136633D01*
X256386Y136625D01*
X256404Y136618D01*
X256430Y136603D01*
X256462Y136593D01*
X256499Y136578D01*
X256542Y136564D01*
X256597Y136553D01*
X256655Y136538D01*
X256725Y136523D01*
X256797Y136512D01*
X256885Y136505D01*
X256976Y136498D01*
X257078Y136491D01*
X257190D01*
X257194D01*
X257198D01*
X257216D01*
X257249D01*
X257292Y136494D01*
X257340D01*
X257398Y136498D01*
X257460Y136502D01*
X257529Y136509D01*
X257667Y136527D01*
X257736Y136538D01*
X257802Y136553D01*
X257864Y136567D01*
X257922Y136589D01*
X257973Y136611D01*
X258017Y136636D01*
X258020D01*
X258024Y136644D01*
X258035Y136651D01*
X258049Y136662D01*
X258082Y136695D01*
X258122Y136735D01*
X258159Y136789D01*
X258191Y136851D01*
X258206Y136884D01*
X258217Y136920D01*
X258221Y136960D01*
X258224Y137000D01*
Y137022D01*
X258221Y137037D01*
X258213Y137077D01*
X258202Y137124D01*
X258180Y137179D01*
X258148Y137237D01*
X258126Y137266D01*
X258104Y137295D01*
X258075Y137321D01*
X258042Y137346D01*
X258038D01*
X258031Y137353D01*
X258017Y137361D01*
X257998Y137372D01*
X257969Y137382D01*
X257937Y137397D01*
X257896Y137408D01*
X257849Y137423D01*
X257795Y137437D01*
X257733Y137452D01*
X257664Y137466D01*
X257587Y137477D01*
X257500Y137488D01*
X257405Y137495D01*
X257303Y137499D01*
X257190Y137503D01*
D02*
G37*
G36*
Y135544D02*
X257183D01*
X257165D01*
X257132D01*
X257088Y135541D01*
X257041D01*
X256983Y135537D01*
X256921Y135533D01*
X256856Y135526D01*
X256714Y135508D01*
X256644Y135497D01*
X256579Y135482D01*
X256517Y135468D01*
X256459Y135446D01*
X256408Y135424D01*
X256364Y135399D01*
X256361D01*
X256357Y135391D01*
X256331Y135373D01*
X256299Y135340D01*
X256262Y135300D01*
X256226Y135246D01*
X256193Y135184D01*
X256168Y135115D01*
X256164Y135078D01*
X256160Y135038D01*
Y135017D01*
X256164Y135002D01*
X256171Y134966D01*
X256186Y134915D01*
X256211Y134860D01*
X256248Y134798D01*
X256270Y134769D01*
X256299Y134740D01*
X256328Y134711D01*
X256364Y134682D01*
X256368D01*
X256375Y134674D01*
X256386Y134667D01*
X256404Y134660D01*
X256430Y134645D01*
X256462Y134634D01*
X256499Y134620D01*
X256542Y134605D01*
X256597Y134594D01*
X256655Y134580D01*
X256725Y134565D01*
X256797Y134554D01*
X256885Y134547D01*
X256976Y134540D01*
X257078Y134532D01*
X257190D01*
X257194D01*
X257198D01*
X257216D01*
X257249D01*
X257292Y134536D01*
X257340D01*
X257398Y134540D01*
X257460Y134543D01*
X257529Y134551D01*
X257667Y134569D01*
X257736Y134580D01*
X257802Y134594D01*
X257864Y134609D01*
X257922Y134631D01*
X257973Y134652D01*
X258017Y134678D01*
X258020D01*
X258024Y134685D01*
X258035Y134693D01*
X258049Y134704D01*
X258082Y134736D01*
X258122Y134776D01*
X258159Y134831D01*
X258191Y134893D01*
X258206Y134925D01*
X258217Y134962D01*
X258221Y135002D01*
X258224Y135042D01*
Y135064D01*
X258221Y135078D01*
X258213Y135118D01*
X258202Y135166D01*
X258180Y135220D01*
X258148Y135279D01*
X258126Y135308D01*
X258104Y135337D01*
X258075Y135362D01*
X258042Y135388D01*
X258038D01*
X258031Y135395D01*
X258017Y135402D01*
X257998Y135413D01*
X257969Y135424D01*
X257937Y135439D01*
X257896Y135450D01*
X257849Y135464D01*
X257795Y135479D01*
X257733Y135493D01*
X257664Y135508D01*
X257587Y135519D01*
X257500Y135530D01*
X257405Y135537D01*
X257303Y135541D01*
X257190Y135544D01*
D02*
G37*
%LPD*%
D11*
X306496Y68307D02*
X327362D01*
X306496Y37992D02*
Y68307D01*
Y37992D02*
X327362D01*
Y68307D01*
X306496Y71457D02*
Y101772D01*
X327362D01*
Y71457D02*
Y101772D01*
X306496Y71457D02*
X327362D01*
X306496Y146260D02*
Y176575D01*
X327362D01*
Y146260D02*
Y176575D01*
X306496Y146260D02*
X327362D01*
Y112795D02*
Y143110D01*
X306496Y112795D02*
X327362D01*
X306496D02*
Y143110D01*
X327362D01*
M02*
