G04*
G04 #@! TF.GenerationSoftware,Altium Limited,Altium Designer,24.5.1 (21)*
G04*
G04 Layer_Color=32768*
%FSLAX25Y25*%
%MOIN*%
G70*
G04*
G04 #@! TF.SameCoordinates,C76CA4C4-4B78-49E4-996D-9464DF6DB47D*
G04*
G04*
G04 #@! TF.FilePolarity,Positive*
G04*
G01*
G75*
%ADD11C,0.00787*%
%ADD13C,0.00394*%
%ADD40C,0.00197*%
D11*
X179134Y104921D02*
G03*
X179134Y178543I0J36811D01*
G01*
D02*
G03*
X179134Y104921I0J-36811D01*
G01*
X102362Y29134D02*
G03*
X102362Y102756I0J36811D01*
G01*
D02*
G03*
X102362Y29134I0J-36811D01*
G01*
X255906D02*
G03*
X255906Y102756I0J36811D01*
G01*
D02*
G03*
X255906Y29134I0J-36811D01*
G01*
X179134D02*
G03*
X179134Y102756I0J36811D01*
G01*
D02*
G03*
X179134Y29134I0J-36811D01*
G01*
X102362Y104921D02*
G03*
X102362Y178543I0J36811D01*
G01*
D02*
G03*
X102362Y104921I0J-36811D01*
G01*
X255906D02*
G03*
X255906Y178543I0J36811D01*
G01*
D02*
G03*
X255906Y104921I0J-36811D01*
G01*
X306496Y68307D02*
X327362D01*
X306496Y37992D02*
Y68307D01*
Y37992D02*
X327362D01*
Y68307D01*
X306496Y71457D02*
Y101772D01*
X327362D01*
Y71457D02*
Y101772D01*
X306496Y71457D02*
X327362D01*
X306496Y146260D02*
Y176575D01*
X327362D01*
Y146260D02*
Y176575D01*
X306496Y146260D02*
X327362D01*
Y112795D02*
Y143110D01*
X306496Y112795D02*
X327362D01*
X306496D02*
Y143110D01*
X327362D01*
D13*
X360236Y145827D02*
Y149764D01*
X358268Y147795D02*
X362205D01*
X51181Y137795D02*
X55118D01*
X53150Y135827D02*
Y139764D01*
Y61024D02*
Y64961D01*
X51181Y62992D02*
X55118D01*
X307087Y198819D02*
X311024D01*
X309055Y196850D02*
Y200787D01*
X354331Y11811D02*
X358268D01*
X356299Y9843D02*
Y13780D01*
X407480Y90551D02*
X411417D01*
X409449Y88583D02*
Y92520D01*
X407480Y104331D02*
X411417D01*
X409449Y102362D02*
Y106299D01*
X358268Y62835D02*
X362205D01*
X360236Y60866D02*
Y64803D01*
X354331Y198819D02*
X358268D01*
X356299Y196850D02*
Y200787D01*
X307087Y11811D02*
X311024D01*
X309055Y9843D02*
Y13780D01*
D40*
X47441Y156791D02*
X58858D01*
X47441Y118799D02*
Y156791D01*
Y118799D02*
X58858D01*
Y156791D01*
X433445Y87697D02*
Y109153D01*
X453740D01*
Y87697D02*
Y109153D01*
X433445Y87697D02*
X453740D01*
X13976Y120866D02*
X45079D01*
X13976Y79921D02*
Y120866D01*
Y79921D02*
X45079D01*
Y120866D01*
X58858Y43996D02*
Y81988D01*
X47441Y43996D02*
X58858D01*
X47441D02*
Y81988D01*
X58858D01*
X290059Y193110D02*
X328051D01*
X290059D02*
Y204528D01*
X328051D01*
Y193110D02*
Y204528D01*
X377067Y6693D02*
Y16929D01*
X335531D02*
X377067D01*
X335531Y6693D02*
X377067D01*
X335531D02*
Y16929D01*
X411791Y50295D02*
Y71752D01*
X432087D01*
Y50295D02*
Y71752D01*
X411791Y50295D02*
X432087D01*
X390453Y96260D02*
X428445D01*
Y84842D02*
Y96260D01*
X390453Y84842D02*
X428445D01*
X390453D02*
Y96260D01*
X390453Y110039D02*
X428445D01*
Y98622D02*
Y110039D01*
X390453Y98622D02*
X428445D01*
X390453D02*
Y110039D01*
X411791Y123130D02*
Y144587D01*
X432087D01*
Y123130D02*
Y144587D01*
X411791Y123130D02*
X432087D01*
X377067Y193701D02*
Y203937D01*
X335531D02*
X377067D01*
X335531Y193701D02*
X377067D01*
X335531D02*
Y203937D01*
X290059Y6102D02*
X328051D01*
X290059D02*
Y17520D01*
X328051D01*
Y6102D02*
Y17520D01*
M02*
